<?xml version="1.0" encoding="UTF-8" standalone="no"?><svg xmlns="http://www.w3.org/2000/svg" xmlns:xlink="http://www.w3.org/1999/xlink" contentScriptType="application/ecmascript" contentStyleType="text/css" height="406px" preserveAspectRatio="none" style="width:558px;height:406px;" version="1.1" viewBox="0 0 558 406" width="558px" zoomAndPan="magnify"><defs><filter height="300%" id="fuui3uu68r6g5" width="300%" x="-1" y="-1"><feGaussianBlur result="blurOut" stdDeviation="2.0"/><feColorMatrix in="blurOut" result="blurOut2" type="matrix" values="0 0 0 0 0 0 0 0 0 0 0 0 0 0 0 0 0 0 .4 0"/><feOffset dx="4.0" dy="4.0" in="blurOut2" result="blurOut3"/><feBlend in="SourceGraphic" in2="blurOut3" mode="normal"/></filter></defs><g><!--class Project--><rect fill="#FEFECE" filter="url(#fuui3uu68r6g5)" height="79.5469" id="Project" style="stroke: #A80036; stroke-width: 1.5;" width="305" x="6" y="8"/><ellipse cx="120.75" cy="26.9688" fill="#00FFFF" rx="11" ry="11" style="stroke: #A80036; stroke-width: 1.0;"/><path d="M120.3438,22.7813 L120.3438,30.7656 L121,30.7656 Q122.4375,30.7656 123.0547,29.8516 Q123.6719,28.9375 123.6719,26.7656 Q123.6719,24.5938 123.0547,23.6875 Q122.4375,22.7813 121,22.7813 L120.3438,22.7813 Z M117.8906,20.5781 L120.5156,20.5781 Q123.5469,20.5781 124.8828,22.0234 Q126.2188,23.4688 126.2188,26.7656 Q126.2188,30.0625 124.8828,31.5156 Q123.5469,32.9688 120.5156,32.9688 L117.8906,32.9688 L117.8906,20.5781 Z "/><text fill="#000000" font-family="sans-serif" font-size="12" font-style="italic" lengthAdjust="spacingAndGlyphs" textLength="71" x="139.25" y="24.1387">«Directory»</text><text fill="#000000" font-family="sans-serif" font-size="12" lengthAdjust="spacingAndGlyphs" textLength="44" x="152.75" y="38.1074">Project</text><line style="stroke: #A80036; stroke-width: 1.5;" x1="7" x2="310" y1="45.9375" y2="45.9375"/><line style="stroke: #A80036; stroke-width: 1.5;" x1="7" x2="310" y1="53.9375" y2="53.9375"/><ellipse cx="17" cy="65.8398" fill="#84BE84" rx="3" ry="3" style="stroke: #038048; stroke-width: 1.0;"/><text fill="#000000" font-family="sans-serif" font-size="11" lengthAdjust="spacingAndGlyphs" textLength="180" x="26" y="68.1479">resolve(name : String) : Artifact</text><ellipse cx="17" cy="78.6445" fill="#84BE84" rx="3" ry="3" style="stroke: #038048; stroke-width: 1.0;"/><text fill="#000000" font-family="sans-serif" font-size="11" lengthAdjust="spacingAndGlyphs" textLength="279" x="26" y="80.9526">resolve(name : String, network : String) : Artifact</text><!--class Network--><rect fill="#FEFECE" filter="url(#fuui3uu68r6g5)" height="66.7422" id="Network" style="stroke: #A80036; stroke-width: 1.5;" width="104" x="443.25" y="14.5"/><ellipse cx="460.5" cy="33.4688" fill="#00FFFF" rx="11" ry="11" style="stroke: #A80036; stroke-width: 1.0;"/><path d="M460.0938,29.2813 L460.0938,37.2656 L460.75,37.2656 Q462.1875,37.2656 462.8047,36.3516 Q463.4219,35.4375 463.4219,33.2656 Q463.4219,31.0938 462.8047,30.1875 Q462.1875,29.2813 460.75,29.2813 L460.0938,29.2813 Z M457.6406,27.0781 L460.2656,27.0781 Q463.2969,27.0781 464.6328,28.5234 Q465.9688,29.9688 465.9688,33.2656 Q465.9688,36.5625 464.6328,38.0156 Q463.2969,39.4688 460.2656,39.4688 L457.6406,39.4688 L457.6406,27.0781 Z "/><text fill="#000000" font-family="sans-serif" font-size="12" font-style="italic" lengthAdjust="spacingAndGlyphs" textLength="71" x="473" y="30.6387">«Directory»</text><text fill="#000000" font-family="sans-serif" font-size="12" lengthAdjust="spacingAndGlyphs" textLength="51" x="483" y="44.6074">Network</text><line style="stroke: #A80036; stroke-width: 1.5;" x1="444.25" x2="546.25" y1="52.4375" y2="52.4375"/><ellipse cx="454.25" cy="64.3398" fill="none" rx="3" ry="3" style="stroke: #038048; stroke-width: 1.0;"/><text fill="#000000" font-family="sans-serif" font-size="11" lengthAdjust="spacingAndGlyphs" textLength="78" x="463.25" y="66.6479">name : String</text><line style="stroke: #A80036; stroke-width: 1.5;" x1="444.25" x2="546.25" y1="73.2422" y2="73.2422"/><!--class Artifact--><rect fill="#FEFECE" filter="url(#fuui3uu68r6g5)" height="66.7422" id="Artifact" style="stroke: #A80036; stroke-width: 1.5;" width="77" x="288" y="166.5"/><ellipse cx="303" cy="185.4688" fill="#40E0D0" rx="11" ry="11" style="stroke: #A80036; stroke-width: 1.0;"/><path d="M307.2344,181.2344 L301.9531,181.2344 L301.9531,183.9063 L306.75,183.9063 L306.75,186.0625 L301.9531,186.0625 L301.9531,191.4688 L299.5156,191.4688 L299.5156,179.0781 L307.2344,179.0781 L307.2344,181.2344 Z "/><text fill="#000000" font-family="sans-serif" font-size="12" font-style="italic" lengthAdjust="spacingAndGlyphs" textLength="35" x="322" y="182.6387">«File»</text><text fill="#000000" font-family="sans-serif" font-size="12" lengthAdjust="spacingAndGlyphs" textLength="45" x="317" y="196.6074">Artifact</text><line style="stroke: #A80036; stroke-width: 1.5;" x1="289" x2="364" y1="204.4375" y2="204.4375"/><ellipse cx="299" cy="216.3398" fill="none" rx="3" ry="3" style="stroke: #038048; stroke-width: 1.0;"/><text fill="#000000" font-family="sans-serif" font-size="11" lengthAdjust="spacingAndGlyphs" textLength="28" x="308" y="218.6479">JSON</text><line style="stroke: #A80036; stroke-width: 1.5;" x1="289" x2="364" y1="225.2422" y2="225.2422"/><!--class Contract--><rect fill="#FEFECE" filter="url(#fuui3uu68r6g5)" height="99.2188" id="Contract" style="stroke: #A80036; stroke-width: 1.5;" width="218" x="217.25" y="296.5"/><ellipse cx="295" cy="312.5" fill="#A9DCDF" rx="11" ry="11" style="stroke: #A80036; stroke-width: 1.0;"/><path d="M295.1094,307.8438 L293.9531,312.9219 L296.2813,312.9219 L295.1094,307.8438 Z M293.625,305.6094 L296.6094,305.6094 L299.9688,318 L297.5156,318 L296.75,314.9375 L293.4688,314.9375 L292.7188,318 L290.2813,318 L293.625,305.6094 Z "/><text fill="#000000" font-family="sans-serif" font-size="12" font-style="italic" lengthAdjust="spacingAndGlyphs" textLength="54" x="315.5" y="316.6543">Contract</text><line style="stroke: #A80036; stroke-width: 1.5;" x1="218.25" x2="434.25" y1="328.5" y2="328.5"/><ellipse cx="228.25" cy="340.4023" fill="none" rx="3" ry="3" style="stroke: #038048; stroke-width: 1.0;"/><text fill="#000000" font-family="sans-serif" font-size="11" lengthAdjust="spacingAndGlyphs" textLength="78" x="237.25" y="342.7104">name : String</text><ellipse cx="228.25" cy="353.207" fill="none" rx="3" ry="3" style="stroke: #038048; stroke-width: 1.0;"/><text fill="#000000" font-family="sans-serif" font-size="11" lengthAdjust="spacingAndGlyphs" textLength="133" x="237.25" y="355.5151">snapshots : Snapshots</text><ellipse cx="228.25" cy="366.0117" fill="none" rx="3" ry="3" style="stroke: #038048; stroke-width: 1.0;"/><text fill="#000000" font-family="sans-serif" font-size="11" lengthAdjust="spacingAndGlyphs" textLength="192" x="237.25" y="368.3198">links : Map&lt;String =&gt; LinkValue&gt;</text><line style="stroke: #A80036; stroke-width: 1.5;" x1="218.25" x2="434.25" y1="374.9141" y2="374.9141"/><ellipse cx="228.25" cy="386.8164" fill="#84BE84" rx="3" ry="3" style="stroke: #038048; stroke-width: 1.0;"/><text fill="#000000" font-family="sans-serif" font-size="11" lengthAdjust="spacingAndGlyphs" textLength="25" x="237.25" y="389.1245">abi()</text><!--link Project to Artifact--><path d="M211.8,96.813 C237.167,119.461 266.818,145.935 289.583,166.261 " fill="none" id="Project-Artifact" style="stroke: #A80036; stroke-width: 1.0;"/><polygon fill="#A80036" points="201.951,88.019,203.7624,94.9989,210.9021,96.0114,209.0907,89.0315,201.951,88.019" style="stroke: #A80036; stroke-width: 1.0;"/><text fill="#000000" font-family="sans-serif" font-size="13" lengthAdjust="spacingAndGlyphs" textLength="98" x="254.25" y="131.0669">build/contracts/</text><text fill="#000000" font-family="sans-serif" font-size="13" lengthAdjust="spacingAndGlyphs" textLength="8" x="273.6405" y="155.3644">n</text><!--link Project to Network--><path d="M324.049,48 C367.234,48 410.656,48 442.964,48 " fill="none" id="Project-Network" style="stroke: #A80036; stroke-width: 1.0;"/><polygon fill="#A80036" points="310.974,48,316.974,52,322.974,48,316.974,44,310.974,48" style="stroke: #A80036; stroke-width: 1.0;"/><text fill="#000000" font-family="sans-serif" font-size="13" lengthAdjust="spacingAndGlyphs" textLength="95" x="328.75" y="40.0669">build/networks/</text><text fill="#000000" font-family="sans-serif" font-size="13" lengthAdjust="spacingAndGlyphs" textLength="8" x="427.3403" y="43.1067">n</text><!--link Network to Artifact--><path d="M448.6,90.405 C421.656,114.32 388.239,143.98 363.14,166.257 " fill="none" id="Network-Artifact" style="stroke: #A80036; stroke-width: 1.0;"/><polygon fill="#A80036" points="458.58,81.548,451.4374,82.5394,449.6053,89.5139,456.748,88.5225,458.58,81.548" style="stroke: #A80036; stroke-width: 1.0;"/><text fill="#000000" font-family="sans-serif" font-size="13" lengthAdjust="spacingAndGlyphs" textLength="8" x="359.3804" y="155.3597">n</text><!--link Artifact to Contract--><path d="M326.25,246.932 C326.25,262.683 326.25,280.36 326.25,296.3219 " fill="none" id="Artifact-Contract" style="stroke: #A80036; stroke-width: 1.0;"/><polygon fill="#A80036" points="326.25,233.676,322.25,239.676,326.25,245.676,330.25,239.676,326.25,233.676" style="stroke: #A80036; stroke-width: 1.0;"/><text fill="#000000" font-family="sans-serif" font-size="13" lengthAdjust="spacingAndGlyphs" textLength="8" x="316.6406" y="285.2932">1</text><!--
@startuml

class Project << (D,cyan) Directory >> {
 + resolve(name : String) : Artifact
 + resolve(name : String, network : String) : Artifact
}


class Network << (D,cyan) Directory >> {
 + name : String
}

class Artifact << (F,turquoise) File >> {
 + JSON
}

abstract class Contract {
 + name : String
 + snapshots : Snapshots
 + links : Map<String => LinkValue>
 + abi()
}


Project *- - "n" Artifact : build/contracts/
Project *-right- "n" Network : build/networks/
Network *- - "n" Artifact

Artifact *-down- "1" Contract

@enduml

PlantUML version 1.2018.14(Fri Dec 21 16:33:16 UTC 2018)
(GPL source distribution)
Java Runtime: Java(TM) SE Runtime Environment
JVM: Java HotSpot(TM) 64-Bit Server VM
Java Version: 1.8.0_151-b12
Operating System: Linux
OS Version: 4.4.0-101-generic
Default Encoding: UTF-8
Language: en
Country: US
--></g></svg>