<?xml version="1.0" encoding="UTF-8" standalone="no"?><svg xmlns="http://www.w3.org/2000/svg" xmlns:xlink="http://www.w3.org/1999/xlink" contentScriptType="application/ecmascript" contentStyleType="text/css" height="903px" preserveAspectRatio="none" style="width:1323px;height:903px;" version="1.1" viewBox="0 0 1323 903" width="1323px" zoomAndPan="magnify"><defs><filter height="300%" id="f3sf0iubmx7qk" width="300%" x="-1" y="-1"><feGaussianBlur result="blurOut" stdDeviation="2.0"/><feColorMatrix in="blurOut" result="blurOut2" type="matrix" values="0 0 0 0 0 0 0 0 0 0 0 0 0 0 0 0 0 0 .4 0"/><feOffset dx="4.0" dy="4.0" in="blurOut2" result="blurOut3"/><feBlend in="SourceGraphic" in2="blurOut3" mode="normal"/></filter></defs><g><!--class Project--><rect fill="#FEFECE" filter="url(#f3sf0iubmx7qk)" height="79.5469" id="Project" style="stroke: #A80036; stroke-width: 1.5;" width="305" x="6" y="47"/><ellipse cx="120.75" cy="65.9688" fill="#00FFFF" rx="11" ry="11" style="stroke: #A80036; stroke-width: 1.0;"/><path d="M120.3438,61.7813 L120.3438,69.7656 L121,69.7656 Q122.4375,69.7656 123.0547,68.8516 Q123.6719,67.9375 123.6719,65.7656 Q123.6719,63.5938 123.0547,62.6875 Q122.4375,61.7813 121,61.7813 L120.3438,61.7813 Z M117.8906,59.5781 L120.5156,59.5781 Q123.5469,59.5781 124.8828,61.0234 Q126.2188,62.4688 126.2188,65.7656 Q126.2188,69.0625 124.8828,70.5156 Q123.5469,71.9688 120.5156,71.9688 L117.8906,71.9688 L117.8906,59.5781 Z "/><text fill="#000000" font-family="sans-serif" font-size="12" font-style="italic" lengthAdjust="spacingAndGlyphs" textLength="71" x="139.25" y="63.1387">«Directory»</text><text fill="#000000" font-family="sans-serif" font-size="12" lengthAdjust="spacingAndGlyphs" textLength="44" x="152.75" y="77.1074">Project</text><line style="stroke: #A80036; stroke-width: 1.5;" x1="7" x2="310" y1="84.9375" y2="84.9375"/><line style="stroke: #A80036; stroke-width: 1.5;" x1="7" x2="310" y1="92.9375" y2="92.9375"/><rect fill="#F24D5C" height="6" style="stroke: #C82930; stroke-width: 1.0;" width="6" x="14" y="101.8398"/><text fill="#000000" font-family="sans-serif" font-size="11" lengthAdjust="spacingAndGlyphs" textLength="180" x="26" y="107.1479">resolve(name : String) : Artifact</text><rect fill="#F24D5C" height="6" style="stroke: #C82930; stroke-width: 1.0;" width="6" x="14" y="114.6445"/><text fill="#000000" font-family="sans-serif" font-size="11" lengthAdjust="spacingAndGlyphs" textLength="279" x="26" y="119.9526">resolve(name : String, network : String) : Artifact</text><!--class Network--><rect fill="#FEFECE" filter="url(#f3sf0iubmx7qk)" height="66.7422" id="Network" style="stroke: #A80036; stroke-width: 1.5;" width="104" x="443.25" y="53.5"/><ellipse cx="460.5" cy="72.4688" fill="#00FFFF" rx="11" ry="11" style="stroke: #A80036; stroke-width: 1.0;"/><path d="M460.0938,68.2813 L460.0938,76.2656 L460.75,76.2656 Q462.1875,76.2656 462.8047,75.3516 Q463.4219,74.4375 463.4219,72.2656 Q463.4219,70.0938 462.8047,69.1875 Q462.1875,68.2813 460.75,68.2813 L460.0938,68.2813 Z M457.6406,66.0781 L460.2656,66.0781 Q463.2969,66.0781 464.6328,67.5234 Q465.9688,68.9688 465.9688,72.2656 Q465.9688,75.5625 464.6328,77.0156 Q463.2969,78.4688 460.2656,78.4688 L457.6406,78.4688 L457.6406,66.0781 Z "/><text fill="#000000" font-family="sans-serif" font-size="12" font-style="italic" lengthAdjust="spacingAndGlyphs" textLength="71" x="473" y="69.6387">«Directory»</text><text fill="#000000" font-family="sans-serif" font-size="12" lengthAdjust="spacingAndGlyphs" textLength="51" x="483" y="83.6074">Network</text><line style="stroke: #A80036; stroke-width: 1.5;" x1="444.25" x2="546.25" y1="91.4375" y2="91.4375"/><rect fill="none" height="6" style="stroke: #C82930; stroke-width: 1.0;" width="6" x="451.25" y="100.3398"/><text fill="#000000" font-family="sans-serif" font-size="11" lengthAdjust="spacingAndGlyphs" textLength="78" x="463.25" y="105.6479">name : String</text><line style="stroke: #A80036; stroke-width: 1.5;" x1="444.25" x2="546.25" y1="112.2422" y2="112.2422"/><!--class Artifact--><rect fill="#FEFECE" filter="url(#f3sf0iubmx7qk)" height="66.7422" id="Artifact" style="stroke: #A80036; stroke-width: 1.5;" width="77" x="288" y="260.5"/><ellipse cx="303" cy="279.4688" fill="#40E0D0" rx="11" ry="11" style="stroke: #A80036; stroke-width: 1.0;"/><path d="M307.2344,275.2344 L301.9531,275.2344 L301.9531,277.9063 L306.75,277.9063 L306.75,280.0625 L301.9531,280.0625 L301.9531,285.4688 L299.5156,285.4688 L299.5156,273.0781 L307.2344,273.0781 L307.2344,275.2344 Z "/><text fill="#000000" font-family="sans-serif" font-size="12" font-style="italic" lengthAdjust="spacingAndGlyphs" textLength="35" x="322" y="276.6387">«File»</text><text fill="#000000" font-family="sans-serif" font-size="12" lengthAdjust="spacingAndGlyphs" textLength="45" x="317" y="290.6074">Artifact</text><line style="stroke: #A80036; stroke-width: 1.5;" x1="289" x2="364" y1="298.4375" y2="298.4375"/><rect fill="none" height="6" style="stroke: #C82930; stroke-width: 1.0;" width="6" x="296" y="307.3398"/><text fill="#000000" font-family="sans-serif" font-size="11" lengthAdjust="spacingAndGlyphs" textLength="28" x="308" y="312.6479">JSON</text><line style="stroke: #A80036; stroke-width: 1.5;" x1="289" x2="364" y1="319.2422" y2="319.2422"/><!--class Snapshots--><rect fill="#FEFECE" filter="url(#f3sf0iubmx7qk)" height="105.1563" id="Snapshots" style="stroke: #A80036; stroke-width: 1.5;" width="281" x="707" y="422.5"/><ellipse cx="807.75" cy="441.4688" fill="#FF1493" rx="11" ry="11" style="stroke: #A80036; stroke-width: 1.0;"/><path d="M810.7188,447.1094 Q810.1406,447.4063 809.5,447.5547 Q808.8594,447.7031 808.1563,447.7031 Q805.6563,447.7031 804.3359,446.0547 Q803.0156,444.4063 803.0156,441.2813 Q803.0156,438.1563 804.3359,436.5 Q805.6563,434.8438 808.1563,434.8438 Q808.8594,434.8438 809.5078,435 Q810.1563,435.1563 810.7188,435.4531 L810.7188,438.1719 Q810.0938,437.5938 809.5,437.3203 Q808.9063,437.0469 808.2813,437.0469 Q806.9375,437.0469 806.25,438.1172 Q805.5625,439.1875 805.5625,441.2813 Q805.5625,443.375 806.25,444.4453 Q806.9375,445.5156 808.2813,445.5156 Q808.9063,445.5156 809.5,445.2422 Q810.0938,444.9688 810.7188,444.3906 L810.7188,447.1094 Z "/><text fill="#000000" font-family="sans-serif" font-size="12" font-style="italic" lengthAdjust="spacingAndGlyphs" textLength="75" x="826.25" y="438.6387">«Collection»</text><text fill="#000000" font-family="sans-serif" font-size="12" lengthAdjust="spacingAndGlyphs" textLength="67" x="830.25" y="452.6074">Snapshots</text><line style="stroke: #A80036; stroke-width: 1.5;" x1="708" x2="987" y1="460.4375" y2="460.4375"/><rect fill="none" height="6" style="stroke: #C82930; stroke-width: 1.0;" width="6" x="715" y="469.3398"/><text fill="#000000" font-family="sans-serif" font-size="11" lengthAdjust="spacingAndGlyphs" textLength="227" x="727" y="474.6479">snapshots : Map&lt;String =&gt; Snapshot&gt;</text><rect fill="none" height="6" style="stroke: #C82930; stroke-width: 1.0;" width="6" x="715" y="482.1445"/><text fill="#000000" font-family="sans-serif" font-size="11" lengthAdjust="spacingAndGlyphs" textLength="97" x="727" y="487.4526">currentId : String</text><line style="stroke: #A80036; stroke-width: 1.5;" x1="708" x2="987" y1="494.0469" y2="494.0469"/><rect fill="#F24D5C" height="6" style="stroke: #C82930; stroke-width: 1.0;" width="6" x="715" y="502.9492"/><text fill="#000000" font-family="sans-serif" font-size="11" lengthAdjust="spacingAndGlyphs" textLength="172" x="727" y="508.2573">getById(id : String) : Snapshot</text><rect fill="#F24D5C" height="6" style="stroke: #C82930; stroke-width: 1.0;" width="6" x="715" y="515.7539"/><text fill="#000000" font-family="sans-serif" font-size="11" lengthAdjust="spacingAndGlyphs" textLength="255" x="727" y="521.062">getByBytecode(bytecode : String) : Snapshot</text><!--class Source--><rect fill="#FEFECE" filter="url(#f3sf0iubmx7qk)" height="92.3516" id="Source" style="stroke: #A80036; stroke-width: 1.5;" width="136" x="617.25" y="626"/><ellipse cx="657" cy="644.9688" fill="#DA70D6" rx="11" ry="11" style="stroke: #A80036; stroke-width: 1.0;"/><path d="M657.1094,640.5469 Q656.1719,640.5469 655.7422,641.5469 Q655.3125,642.5469 655.3125,644.7813 Q655.3125,647.0156 655.7422,648.0156 Q656.1719,649.0156 657.1094,649.0156 Q658.0625,649.0156 658.4922,648.0156 Q658.9219,647.0156 658.9219,644.7813 Q658.9219,642.5469 658.4922,641.5469 Q658.0625,640.5469 657.1094,640.5469 Z M652.7656,644.7813 Q652.7656,641.6094 653.8672,639.9766 Q654.9688,638.3438 657.1094,638.3438 Q659.2656,638.3438 660.3672,639.9766 Q661.4688,641.6094 661.4688,644.7813 Q661.4688,647.9531 660.3672,649.5781 Q659.2656,651.2031 657.1094,651.2031 Q654.9688,651.2031 653.8672,649.5781 Q652.7656,647.9531 652.7656,644.7813 Z "/><text fill="#000000" font-family="sans-serif" font-size="12" font-style="italic" lengthAdjust="spacingAndGlyphs" textLength="53" x="674.5" y="642.1387">«Object»</text><text fill="#000000" font-family="sans-serif" font-size="12" lengthAdjust="spacingAndGlyphs" textLength="44" x="679" y="656.1074">Source</text><line style="stroke: #A80036; stroke-width: 1.5;" x1="618.25" x2="752.25" y1="663.9375" y2="663.9375"/><rect fill="none" height="6" style="stroke: #C82930; stroke-width: 1.0;" width="6" x="625.25" y="672.8398"/><text fill="#000000" font-family="sans-serif" font-size="11" lengthAdjust="spacingAndGlyphs" textLength="110" x="637.25" y="678.1479">sourcePath : String</text><rect fill="none" height="6" style="stroke: #C82930; stroke-width: 1.0;" width="6" x="625.25" y="685.6445"/><text fill="#000000" font-family="sans-serif" font-size="11" lengthAdjust="spacingAndGlyphs" textLength="85" x="637.25" y="690.9526">source : String</text><rect fill="none" height="6" style="stroke: #C82930; stroke-width: 1.0;" width="6" x="625.25" y="698.4492"/><text fill="#000000" font-family="sans-serif" font-size="11" lengthAdjust="spacingAndGlyphs" textLength="52" x="637.25" y="703.7573">ast : AST</text><line style="stroke: #A80036; stroke-width: 1.5;" x1="618.25" x2="752.25" y1="710.3516" y2="710.3516"/><!--class Contract--><rect fill="#FEFECE" filter="url(#f3sf0iubmx7qk)" height="99.2188" id="Contract" style="stroke: #A80036; stroke-width: 1.5;" width="218" x="738.25" y="244.5"/><ellipse cx="816" cy="260.5" fill="#A9DCDF" rx="11" ry="11" style="stroke: #A80036; stroke-width: 1.0;"/><path d="M816.1094,255.8438 L814.9531,260.9219 L817.2813,260.9219 L816.1094,255.8438 Z M814.625,253.6094 L817.6094,253.6094 L820.9688,266 L818.5156,266 L817.75,262.9375 L814.4688,262.9375 L813.7188,266 L811.2813,266 L814.625,253.6094 Z "/><text fill="#000000" font-family="sans-serif" font-size="12" font-style="italic" lengthAdjust="spacingAndGlyphs" textLength="54" x="836.5" y="264.6543">Contract</text><line style="stroke: #A80036; stroke-width: 1.5;" x1="739.25" x2="955.25" y1="276.5" y2="276.5"/><rect fill="none" height="6" style="stroke: #C82930; stroke-width: 1.0;" width="6" x="746.25" y="285.4023"/><text fill="#000000" font-family="sans-serif" font-size="11" lengthAdjust="spacingAndGlyphs" textLength="78" x="758.25" y="290.7104">name : String</text><rect fill="none" height="6" style="stroke: #C82930; stroke-width: 1.0;" width="6" x="746.25" y="298.207"/><text fill="#000000" font-family="sans-serif" font-size="11" lengthAdjust="spacingAndGlyphs" textLength="133" x="758.25" y="303.5151">snapshots : Snapshots</text><rect fill="none" height="6" style="stroke: #C82930; stroke-width: 1.0;" width="6" x="746.25" y="311.0117"/><text fill="#000000" font-family="sans-serif" font-size="11" lengthAdjust="spacingAndGlyphs" textLength="192" x="758.25" y="316.3198">links : Map&lt;String =&gt; LinkValue&gt;</text><line style="stroke: #A80036; stroke-width: 1.5;" x1="739.25" x2="955.25" y1="322.9141" y2="322.9141"/><rect fill="#F24D5C" height="6" style="stroke: #C82930; stroke-width: 1.0;" width="6" x="746.25" y="331.8164"/><text fill="#000000" font-family="sans-serif" font-size="11" lengthAdjust="spacingAndGlyphs" textLength="25" x="758.25" y="337.1245">abi()</text><!--class Instance--><rect fill="#FEFECE" filter="url(#f3sf0iubmx7qk)" height="158.4375" id="Instance" style="stroke: #A80036; stroke-width: 1.5;" width="258" x="582.25" y="8"/><ellipse cx="680" cy="24" fill="#ADD1B2" rx="11" ry="11" style="stroke: #A80036; stroke-width: 1.0;"/><path d="M682.9688,29.6406 Q682.3906,29.9375 681.75,30.0859 Q681.1094,30.2344 680.4063,30.2344 Q677.9063,30.2344 676.5859,28.5859 Q675.2656,26.9375 675.2656,23.8125 Q675.2656,20.6875 676.5859,19.0313 Q677.9063,17.375 680.4063,17.375 Q681.1094,17.375 681.7578,17.5313 Q682.4063,17.6875 682.9688,17.9844 L682.9688,20.7031 Q682.3438,20.125 681.75,19.8516 Q681.1563,19.5781 680.5313,19.5781 Q679.1875,19.5781 678.5,20.6484 Q677.8125,21.7188 677.8125,23.8125 Q677.8125,25.9063 678.5,26.9766 Q679.1875,28.0469 680.5313,28.0469 Q681.1563,28.0469 681.75,27.7734 Q682.3438,27.5 682.9688,26.9219 L682.9688,29.6406 Z "/><text fill="#000000" font-family="sans-serif" font-size="12" lengthAdjust="spacingAndGlyphs" textLength="54" x="700.5" y="28.1543">Instance</text><line style="stroke: #A80036; stroke-width: 1.5;" x1="583.25" x2="839.25" y1="40" y2="40"/><rect fill="none" height="6" style="stroke: #C82930; stroke-width: 1.0;" width="6" x="590.25" y="48.9023"/><text fill="#000000" font-family="sans-serif" font-size="11" lengthAdjust="spacingAndGlyphs" textLength="47" x="602.25" y="54.2104">address</text><rect fill="none" height="6" style="stroke: #C82930; stroke-width: 1.0;" width="6" x="590.25" y="61.707"/><text fill="#000000" font-family="sans-serif" font-size="11" lengthAdjust="spacingAndGlyphs" textLength="93" x="602.25" y="67.0151">transactionHash</text><rect fill="none" height="6" style="stroke: #C82930; stroke-width: 1.0;" width="6" x="590.25" y="74.5117"/><text fill="#000000" font-family="sans-serif" font-size="11" lengthAdjust="spacingAndGlyphs" textLength="91" x="602.25" y="79.8198">constructorArgs</text><line style="stroke: #A80036; stroke-width: 1.5;" x1="583.25" x2="839.25" y1="86.4141" y2="86.4141"/><rect fill="#F24D5C" height="6" style="stroke: #C82930; stroke-width: 1.0;" width="6" x="590.25" y="95.3164"/><text fill="#000000" font-family="sans-serif" font-size="11" lengthAdjust="spacingAndGlyphs" textLength="168" x="602.25" y="100.6245">methods() : MethodsInterface</text><rect fill="#F24D5C" height="6" style="stroke: #C82930; stroke-width: 1.0;" width="6" x="590.25" y="108.1211"/><text fill="#000000" font-family="sans-serif" font-size="11" lengthAdjust="spacingAndGlyphs" textLength="146" x="602.25" y="113.4292">events() : EventsInterface</text><rect fill="#F24D5C" height="6" style="stroke: #C82930; stroke-width: 1.0;" width="6" x="590.25" y="120.9258"/><text fill="#000000" font-family="sans-serif" font-size="11" lengthAdjust="spacingAndGlyphs" textLength="232" x="602.25" y="126.2339">sendTransaction() : TransactionInterface</text><rect fill="#F24D5C" height="6" style="stroke: #C82930; stroke-width: 1.0;" width="6" x="590.25" y="133.7305"/><text fill="#000000" font-family="sans-serif" font-size="11" lengthAdjust="spacingAndGlyphs" textLength="36" x="602.25" y="139.0386">send()</text><line style="stroke: #A80036; stroke-width: 1.0; stroke-dasharray: 1.0,2.0;" x1="583.25" x2="839.25" y1="145.6328" y2="145.6328"/><rect fill="#F24D5C" height="6" style="stroke: #C82930; stroke-width: 1.0;" width="6" x="590.25" y="154.5352"/><text fill="#000000" font-family="sans-serif" font-size="11" lengthAdjust="spacingAndGlyphs" textLength="71" x="602.25" y="159.8433">type() : Type</text><!--class Type--><rect fill="#FEFECE" filter="url(#f3sf0iubmx7qk)" height="94.4141" id="Type" style="stroke: #A80036; stroke-width: 1.5;" width="215" x="876" y="40"/><ellipse cx="964.75" cy="56" fill="#ADD1B2" rx="11" ry="11" style="stroke: #A80036; stroke-width: 1.0;"/><path d="M967.7188,61.6406 Q967.1406,61.9375 966.5,62.0859 Q965.8594,62.2344 965.1563,62.2344 Q962.6563,62.2344 961.3359,60.5859 Q960.0156,58.9375 960.0156,55.8125 Q960.0156,52.6875 961.3359,51.0313 Q962.6563,49.375 965.1563,49.375 Q965.8594,49.375 966.5078,49.5313 Q967.1563,49.6875 967.7188,49.9844 L967.7188,52.7031 Q967.0938,52.125 966.5,51.8516 Q965.9063,51.5781 965.2813,51.5781 Q963.9375,51.5781 963.25,52.6484 Q962.5625,53.7188 962.5625,55.8125 Q962.5625,57.9063 963.25,58.9766 Q963.9375,60.0469 965.2813,60.0469 Q965.9063,60.0469 966.5,59.7734 Q967.0938,59.5 967.7188,58.9219 L967.7188,61.6406 Z "/><text fill="#000000" font-family="sans-serif" font-size="12" lengthAdjust="spacingAndGlyphs" textLength="29" x="985.25" y="60.1543">Type</text><line style="stroke: #A80036; stroke-width: 1.5;" x1="877" x2="1090" y1="72" y2="72"/><line style="stroke: #A80036; stroke-width: 1.5;" x1="877" x2="1090" y1="80" y2="80"/><rect fill="#F24D5C" height="6" style="stroke: #C82930; stroke-width: 1.0;" width="6" x="884" y="88.9023"/><text fill="#000000" font-family="sans-serif" font-size="11" lengthAdjust="spacingAndGlyphs" textLength="189" x="896" y="94.2104">link(name : String, value : String)</text><line style="stroke: #A80036; stroke-width: 1.0; stroke-dasharray: 1.0,2.0;" x1="877" x2="1090" y1="100.8047" y2="100.8047"/><rect fill="#F24D5C" height="6" style="stroke: #C82930; stroke-width: 1.0;" width="6" x="884" y="109.707"/><text fill="#000000" font-family="sans-serif" font-size="11" lengthAdjust="spacingAndGlyphs" textLength="156" x="896" y="115.0151">new() : Promise&lt;Instance&gt;</text><rect fill="#F24D5C" height="6" style="stroke: #C82930; stroke-width: 1.0;" width="6" x="884" y="122.5117"/><text fill="#000000" font-family="sans-serif" font-size="11" lengthAdjust="spacingAndGlyphs" textLength="172" x="896" y="127.8198">at(address : String) : Instance</text><!--class Snapshot--><rect fill="#FEFECE" filter="url(#f3sf0iubmx7qk)" height="130.7656" id="Snapshot" style="stroke: #A80036; stroke-width: 1.5;" width="178" x="788.75" y="606.5"/><ellipse cx="843.5" cy="625.4688" fill="#DA70D6" rx="11" ry="11" style="stroke: #A80036; stroke-width: 1.0;"/><path d="M843.6094,621.0469 Q842.6719,621.0469 842.2422,622.0469 Q841.8125,623.0469 841.8125,625.2813 Q841.8125,627.5156 842.2422,628.5156 Q842.6719,629.5156 843.6094,629.5156 Q844.5625,629.5156 844.9922,628.5156 Q845.4219,627.5156 845.4219,625.2813 Q845.4219,623.0469 844.9922,622.0469 Q844.5625,621.0469 843.6094,621.0469 Z M839.2656,625.2813 Q839.2656,622.1094 840.3672,620.4766 Q841.4688,618.8438 843.6094,618.8438 Q845.7656,618.8438 846.8672,620.4766 Q847.9688,622.1094 847.9688,625.2813 Q847.9688,628.4531 846.8672,630.0781 Q845.7656,631.7031 843.6094,631.7031 Q841.4688,631.7031 840.3672,630.0781 Q839.2656,628.4531 839.2656,625.2813 Z "/><text fill="#000000" font-family="sans-serif" font-size="12" font-style="italic" lengthAdjust="spacingAndGlyphs" textLength="53" x="867.5" y="622.6387">«Object»</text><text fill="#000000" font-family="sans-serif" font-size="12" lengthAdjust="spacingAndGlyphs" textLength="60" x="864" y="636.6074">Snapshot</text><line style="stroke: #A80036; stroke-width: 1.5;" x1="789.75" x2="965.75" y1="644.4375" y2="644.4375"/><rect fill="none" height="6" style="stroke: #C82930; stroke-width: 1.0;" width="6" x="796.75" y="653.3398"/><text fill="#000000" font-family="sans-serif" font-size="11" lengthAdjust="spacingAndGlyphs" textLength="10" x="808.75" y="658.6479">id</text><rect fill="none" height="6" style="stroke: #C82930; stroke-width: 1.0;" width="6" x="796.75" y="666.1445"/><text fill="#000000" font-family="sans-serif" font-size="11" lengthAdjust="spacingAndGlyphs" textLength="47" x="808.75" y="671.4526">abi : ABI</text><rect fill="none" height="6" style="stroke: #C82930; stroke-width: 1.0;" width="6" x="796.75" y="678.9492"/><text fill="#000000" font-family="sans-serif" font-size="11" lengthAdjust="spacingAndGlyphs" textLength="135" x="808.75" y="684.2573">callBytecode : Bytecode</text><rect fill="none" height="6" style="stroke: #C82930; stroke-width: 1.0;" width="6" x="796.75" y="691.7539"/><text fill="#000000" font-family="sans-serif" font-size="11" lengthAdjust="spacingAndGlyphs" textLength="152" x="808.75" y="697.062">createBytecode : Bytecode</text><rect fill="none" height="6" style="stroke: #C82930; stroke-width: 1.0;" width="6" x="796.75" y="704.5586"/><text fill="#000000" font-family="sans-serif" font-size="11" lengthAdjust="spacingAndGlyphs" textLength="112" x="808.75" y="709.8667">compiler : Compiler</text><rect fill="none" height="6" style="stroke: #C82930; stroke-width: 1.0;" width="6" x="796.75" y="717.3633"/><text fill="#000000" font-family="sans-serif" font-size="11" lengthAdjust="spacingAndGlyphs" textLength="146" x="808.75" y="722.6714">sources : Array&lt;Source&gt;</text><line style="stroke: #A80036; stroke-width: 1.5;" x1="789.75" x2="965.75" y1="729.2656" y2="729.2656"/><!--class Compiler--><rect fill="#FEFECE" filter="url(#f3sf0iubmx7qk)" height="92.3516" id="Compiler" style="stroke: #A80036; stroke-width: 1.5;" width="120" x="817.75" y="800"/><ellipse cx="848.05" cy="818.9688" fill="#DA70D6" rx="11" ry="11" style="stroke: #A80036; stroke-width: 1.0;"/><path d="M848.1594,814.5469 Q847.2219,814.5469 846.7922,815.5469 Q846.3625,816.5469 846.3625,818.7813 Q846.3625,821.0156 846.7922,822.0156 Q847.2219,823.0156 848.1594,823.0156 Q849.1125,823.0156 849.5422,822.0156 Q849.9719,821.0156 849.9719,818.7813 Q849.9719,816.5469 849.5422,815.5469 Q849.1125,814.5469 848.1594,814.5469 Z M843.8156,818.7813 Q843.8156,815.6094 844.9172,813.9766 Q846.0188,812.3438 848.1594,812.3438 Q850.3156,812.3438 851.4172,813.9766 Q852.5188,815.6094 852.5188,818.7813 Q852.5188,821.9531 851.4172,823.5781 Q850.3156,825.2031 848.1594,825.2031 Q846.0188,825.2031 844.9172,823.5781 Q843.8156,821.9531 843.8156,818.7813 Z "/><text fill="#000000" font-family="sans-serif" font-size="12" font-style="italic" lengthAdjust="spacingAndGlyphs" textLength="53" x="865.95" y="816.1387">«Object»</text><text fill="#000000" font-family="sans-serif" font-size="12" lengthAdjust="spacingAndGlyphs" textLength="54" x="865.45" y="830.1074">Compiler</text><line style="stroke: #A80036; stroke-width: 1.5;" x1="818.75" x2="936.75" y1="837.9375" y2="837.9375"/><rect fill="none" height="6" style="stroke: #C82930; stroke-width: 1.0;" width="6" x="825.75" y="846.8398"/><text fill="#000000" font-family="sans-serif" font-size="11" lengthAdjust="spacingAndGlyphs" textLength="78" x="837.75" y="852.1479">name : String</text><rect fill="none" height="6" style="stroke: #C82930; stroke-width: 1.0;" width="6" x="825.75" y="859.6445"/><text fill="#000000" font-family="sans-serif" font-size="11" lengthAdjust="spacingAndGlyphs" textLength="88" x="837.75" y="864.9526">version : String</text><rect fill="none" height="6" style="stroke: #C82930; stroke-width: 1.0;" width="6" x="825.75" y="872.4492"/><text fill="#000000" font-family="sans-serif" font-size="11" lengthAdjust="spacingAndGlyphs" textLength="94" x="837.75" y="877.7573">settings : Object</text><line style="stroke: #A80036; stroke-width: 1.5;" x1="818.75" x2="936.75" y1="884.3516" y2="884.3516"/><!--class Bytecode--><rect fill="#FEFECE" filter="url(#f3sf0iubmx7qk)" height="92.3516" id="Bytecode" style="stroke: #A80036; stroke-width: 1.5;" width="301" x="1011" y="626"/><ellipse cx="1128.25" cy="644.9688" fill="#DA70D6" rx="11" ry="11" style="stroke: #A80036; stroke-width: 1.0;"/><path d="M1128.3594,640.5469 Q1127.4219,640.5469 1126.9922,641.5469 Q1126.5625,642.5469 1126.5625,644.7813 Q1126.5625,647.0156 1126.9922,648.0156 Q1127.4219,649.0156 1128.3594,649.0156 Q1129.3125,649.0156 1129.7422,648.0156 Q1130.1719,647.0156 1130.1719,644.7813 Q1130.1719,642.5469 1129.7422,641.5469 Q1129.3125,640.5469 1128.3594,640.5469 Z M1124.0156,644.7813 Q1124.0156,641.6094 1125.1172,639.9766 Q1126.2188,638.3438 1128.3594,638.3438 Q1130.5156,638.3438 1131.6172,639.9766 Q1132.7188,641.6094 1132.7188,644.7813 Q1132.7188,647.9531 1131.6172,649.5781 Q1130.5156,651.2031 1128.3594,651.2031 Q1126.2188,651.2031 1125.1172,649.5781 Q1124.0156,647.9531 1124.0156,644.7813 Z "/><text fill="#000000" font-family="sans-serif" font-size="12" font-style="italic" lengthAdjust="spacingAndGlyphs" textLength="53" x="1151.25" y="642.1387">«Object»</text><text fill="#000000" font-family="sans-serif" font-size="12" lengthAdjust="spacingAndGlyphs" textLength="58" x="1148.75" y="656.1074">Bytecode</text><line style="stroke: #A80036; stroke-width: 1.5;" x1="1012" x2="1311" y1="663.9375" y2="663.9375"/><rect fill="none" height="6" style="stroke: #C82930; stroke-width: 1.0;" width="6" x="1019" y="672.8398"/><text fill="#000000" font-family="sans-serif" font-size="11" lengthAdjust="spacingAndGlyphs" textLength="129" x="1031" y="678.1479">unlinkedBinary : String</text><rect fill="none" height="6" style="stroke: #C82930; stroke-width: 1.0;" width="6" x="1019" y="685.6445"/><text fill="#000000" font-family="sans-serif" font-size="11" lengthAdjust="spacingAndGlyphs" textLength="137" x="1031" y="690.9526">sourceMap : SourceMap</text><rect fill="none" height="6" style="stroke: #C82930; stroke-width: 1.0;" width="6" x="1019" y="698.4492"/><text fill="#000000" font-family="sans-serif" font-size="11" lengthAdjust="spacingAndGlyphs" textLength="275" x="1031" y="703.7573">linkReferences : Map&lt;String =&gt; LinkReference&gt;</text><line style="stroke: #A80036; stroke-width: 1.5;" x1="1012" x2="1311" y1="710.3516" y2="710.3516"/><!--class SourceMap--><rect fill="#FEFECE" filter="url(#f3sf0iubmx7qk)" height="66.7422" id="SourceMap" style="stroke: #A80036; stroke-width: 1.5;" width="134" x="1094.25" y="812.5"/><ellipse cx="1123.65" cy="831.4688" fill="#DA70D6" rx="11" ry="11" style="stroke: #A80036; stroke-width: 1.0;"/><path d="M1123.7594,827.0469 Q1122.8219,827.0469 1122.3922,828.0469 Q1121.9625,829.0469 1121.9625,831.2813 Q1121.9625,833.5156 1122.3922,834.5156 Q1122.8219,835.5156 1123.7594,835.5156 Q1124.7125,835.5156 1125.1422,834.5156 Q1125.5719,833.5156 1125.5719,831.2813 Q1125.5719,829.0469 1125.1422,828.0469 Q1124.7125,827.0469 1123.7594,827.0469 Z M1119.4156,831.2813 Q1119.4156,828.1094 1120.5172,826.4766 Q1121.6188,824.8438 1123.7594,824.8438 Q1125.9156,824.8438 1127.0172,826.4766 Q1128.1188,828.1094 1128.1188,831.2813 Q1128.1188,834.4531 1127.0172,836.0781 Q1125.9156,837.7031 1123.7594,837.7031 Q1121.6188,837.7031 1120.5172,836.0781 Q1119.4156,834.4531 1119.4156,831.2813 Z "/><text fill="#000000" font-family="sans-serif" font-size="12" font-style="italic" lengthAdjust="spacingAndGlyphs" textLength="53" x="1149.35" y="828.6387">«Object»</text><text fill="#000000" font-family="sans-serif" font-size="12" lengthAdjust="spacingAndGlyphs" textLength="70" x="1140.85" y="842.6074">SourceMap</text><line style="stroke: #A80036; stroke-width: 1.5;" x1="1095.25" x2="1227.25" y1="850.4375" y2="850.4375"/><rect fill="none" height="6" style="stroke: #C82930; stroke-width: 1.0;" width="6" x="1102.25" y="859.3398"/><text fill="#000000" font-family="sans-serif" font-size="11" lengthAdjust="spacingAndGlyphs" textLength="108" x="1114.25" y="864.6479">sourceMap : String</text><line style="stroke: #A80036; stroke-width: 1.5;" x1="1095.25" x2="1227.25" y1="871.2422" y2="871.2422"/><!--class LinkReference--><rect fill="#FEFECE" filter="url(#f3sf0iubmx7qk)" height="92.3516" id="LinkReference" style="stroke: #A80036; stroke-width: 1.5;" width="166" x="1078.25" y="429"/><ellipse cx="1113.95" cy="447.9688" fill="#DA70D6" rx="11" ry="11" style="stroke: #A80036; stroke-width: 1.0;"/><path d="M1114.0594,443.5469 Q1113.1219,443.5469 1112.6922,444.5469 Q1112.2625,445.5469 1112.2625,447.7813 Q1112.2625,450.0156 1112.6922,451.0156 Q1113.1219,452.0156 1114.0594,452.0156 Q1115.0125,452.0156 1115.4422,451.0156 Q1115.8719,450.0156 1115.8719,447.7813 Q1115.8719,445.5469 1115.4422,444.5469 Q1115.0125,443.5469 1114.0594,443.5469 Z M1109.7156,447.7813 Q1109.7156,444.6094 1110.8172,442.9766 Q1111.9188,441.3438 1114.0594,441.3438 Q1116.2156,441.3438 1117.3172,442.9766 Q1118.4188,444.6094 1118.4188,447.7813 Q1118.4188,450.9531 1117.3172,452.5781 Q1116.2156,454.2031 1114.0594,454.2031 Q1111.9188,454.2031 1110.8172,452.5781 Q1109.7156,450.9531 1109.7156,447.7813 Z "/><text fill="#000000" font-family="sans-serif" font-size="12" font-style="italic" lengthAdjust="spacingAndGlyphs" textLength="53" x="1150.05" y="445.1387">«Object»</text><text fill="#000000" font-family="sans-serif" font-size="12" lengthAdjust="spacingAndGlyphs" textLength="88" x="1132.55" y="459.1074">LinkReference</text><line style="stroke: #A80036; stroke-width: 1.5;" x1="1079.25" x2="1243.25" y1="466.9375" y2="466.9375"/><rect fill="none" height="6" style="stroke: #C82930; stroke-width: 1.0;" width="6" x="1086.25" y="475.8398"/><text fill="#000000" font-family="sans-serif" font-size="11" lengthAdjust="spacingAndGlyphs" textLength="78" x="1098.25" y="481.1479">name : String</text><rect fill="none" height="6" style="stroke: #C82930; stroke-width: 1.0;" width="6" x="1086.25" y="488.6445"/><text fill="#000000" font-family="sans-serif" font-size="11" lengthAdjust="spacingAndGlyphs" textLength="140" x="1098.25" y="493.9526">offsets : Array&lt;Integer&gt;</text><rect fill="none" height="6" style="stroke: #C82930; stroke-width: 1.0;" width="6" x="1086.25" y="501.4492"/><text fill="#000000" font-family="sans-serif" font-size="11" lengthAdjust="spacingAndGlyphs" textLength="87" x="1098.25" y="506.7573">length : Integer</text><line style="stroke: #A80036; stroke-width: 1.5;" x1="1079.25" x2="1243.25" y1="513.3516" y2="513.3516"/><!--class LinkValue--><rect fill="#FEFECE" filter="url(#f3sf0iubmx7qk)" height="66.7422" id="LinkValue" style="stroke: #A80036; stroke-width: 1.5;" width="102" x="1110.75" y="260.5"/><ellipse cx="1130.7" cy="279.4688" fill="#DA70D6" rx="11" ry="11" style="stroke: #A80036; stroke-width: 1.0;"/><path d="M1130.8094,275.0469 Q1129.8719,275.0469 1129.4422,276.0469 Q1129.0125,277.0469 1129.0125,279.2813 Q1129.0125,281.5156 1129.4422,282.5156 Q1129.8719,283.5156 1130.8094,283.5156 Q1131.7625,283.5156 1132.1922,282.5156 Q1132.6219,281.5156 1132.6219,279.2813 Q1132.6219,277.0469 1132.1922,276.0469 Q1131.7625,275.0469 1130.8094,275.0469 Z M1126.4656,279.2813 Q1126.4656,276.1094 1127.5672,274.4766 Q1128.6688,272.8438 1130.8094,272.8438 Q1132.9656,272.8438 1134.0672,274.4766 Q1135.1688,276.1094 1135.1688,279.2813 Q1135.1688,282.4531 1134.0672,284.0781 Q1132.9656,285.7031 1130.8094,285.7031 Q1128.6688,285.7031 1127.5672,284.0781 Q1126.4656,282.4531 1126.4656,279.2813 Z "/><text fill="#000000" font-family="sans-serif" font-size="12" font-style="italic" lengthAdjust="spacingAndGlyphs" textLength="53" x="1148.8" y="276.6387">«Object»</text><text fill="#000000" font-family="sans-serif" font-size="12" lengthAdjust="spacingAndGlyphs" textLength="59" x="1145.8" y="290.6074">LinkValue</text><line style="stroke: #A80036; stroke-width: 1.5;" x1="1111.75" x2="1211.75" y1="298.4375" y2="298.4375"/><rect fill="none" height="6" style="stroke: #C82930; stroke-width: 1.0;" width="6" x="1118.75" y="307.3398"/><text fill="#000000" font-family="sans-serif" font-size="11" lengthAdjust="spacingAndGlyphs" textLength="76" x="1130.75" y="312.6479">value : String</text><line style="stroke: #A80036; stroke-width: 1.5;" x1="1111.75" x2="1211.75" y1="319.2422" y2="319.2422"/><!--class AST--><rect fill="#FEFECE" filter="url(#f3sf0iubmx7qk)" height="66.7422" id="AST" style="stroke: #A80036; stroke-width: 1.5;" width="112" x="629.75" y="812.5"/><ellipse cx="658.7" cy="831.4688" fill="#DA70D6" rx="11" ry="11" style="stroke: #A80036; stroke-width: 1.0;"/><path d="M658.8094,827.0469 Q657.8719,827.0469 657.4422,828.0469 Q657.0125,829.0469 657.0125,831.2813 Q657.0125,833.5156 657.4422,834.5156 Q657.8719,835.5156 658.8094,835.5156 Q659.7625,835.5156 660.1922,834.5156 Q660.6219,833.5156 660.6219,831.2813 Q660.6219,829.0469 660.1922,828.0469 Q659.7625,827.0469 658.8094,827.0469 Z M654.4656,831.2813 Q654.4656,828.1094 655.5672,826.4766 Q656.6688,824.8438 658.8094,824.8438 Q660.9656,824.8438 662.0672,826.4766 Q663.1688,828.1094 663.1688,831.2813 Q663.1688,834.4531 662.0672,836.0781 Q660.9656,837.7031 658.8094,837.7031 Q656.6688,837.7031 655.5672,836.0781 Q654.4656,834.4531 654.4656,831.2813 Z "/><text fill="#000000" font-family="sans-serif" font-size="12" font-style="italic" lengthAdjust="spacingAndGlyphs" textLength="53" x="673.8" y="828.6387">«Object»</text><text fill="#000000" font-family="sans-serif" font-size="12" lengthAdjust="spacingAndGlyphs" textLength="23" x="688.8" y="842.6074">AST</text><line style="stroke: #A80036; stroke-width: 1.5;" x1="630.75" x2="740.75" y1="850.4375" y2="850.4375"/><rect fill="none" height="6" style="stroke: #C82930; stroke-width: 1.0;" width="6" x="637.75" y="859.3398"/><text fill="#000000" font-family="sans-serif" font-size="11" lengthAdjust="spacingAndGlyphs" textLength="86" x="649.75" y="864.6479">root : ASTNode</text><line style="stroke: #A80036; stroke-width: 1.5;" x1="630.75" x2="740.75" y1="871.2422" y2="871.2422"/><!--link Project to Artifact--><path d="M198.731,137.396 C229.935,175.472 272.208,227.056 299.36,260.188 " fill="none" id="Project-Artifact" style="stroke: #A80036; stroke-width: 1.0;"/><polygon fill="#A80036" points="190.245,127.041,190.9545,134.2171,197.8515,136.3223,197.142,129.1461,190.245,127.041" style="stroke: #A80036; stroke-width: 1.0;"/><text fill="#000000" font-family="sans-serif" font-size="13" lengthAdjust="spacingAndGlyphs" textLength="98" x="259.25" y="209.0669">build/contracts/</text><text fill="#000000" font-family="sans-serif" font-size="13" lengthAdjust="spacingAndGlyphs" textLength="8" x="285.2377" y="249.5425">n</text><!--link Project to Network--><path d="M324.049,87 C367.234,87 410.656,87 442.964,87 " fill="none" id="Project-Network" style="stroke: #A80036; stroke-width: 1.0;"/><polygon fill="#A80036" points="310.974,87,316.974,91,322.974,87,316.974,83,310.974,87" style="stroke: #A80036; stroke-width: 1.0;"/><text fill="#000000" font-family="sans-serif" font-size="13" lengthAdjust="spacingAndGlyphs" textLength="95" x="328.75" y="79.0669">build/networks/</text><text fill="#000000" font-family="sans-serif" font-size="13" lengthAdjust="spacingAndGlyphs" textLength="8" x="427.3403" y="82.1067">n</text><!--link Network to Artifact--><path d="M459.519,131.343 C427.692,169.949 381.832,225.578 353.056,260.484 " fill="none" id="Network-Artifact" style="stroke: #A80036; stroke-width: 1.0;"/><polygon fill="#A80036" points="468.097,120.937,461.1939,123.0221,460.4637,130.1962,467.3667,128.111,468.097,120.937" style="stroke: #A80036; stroke-width: 1.0;"/><text fill="#000000" font-family="sans-serif" font-size="13" lengthAdjust="spacingAndGlyphs" textLength="8" x="347.7609" y="249.363">n</text><!--link Artifact to Contract--><path d="M377.786,294 C497.828,294 617.871,294 737.914,294 " fill="none" id="Artifact-Contract" style="stroke: #A80036; stroke-width: 1.0;"/><polygon fill="#A80036" points="364.664,294,370.664,298,376.664,294,370.664,290,364.664,294" style="stroke: #A80036; stroke-width: 1.0;"/><text fill="#000000" font-family="sans-serif" font-size="13" lengthAdjust="spacingAndGlyphs" textLength="8" x="722.304" y="289.573">1</text><!--link Instance to Contract--><path d="M763.054,166.087 C776.455,186.287 790.748,207.831 803.681,227.326 " fill="none" id="Instance-Contract" style="stroke: #A80036; stroke-width: 1.0; stroke-dasharray: 7.0,7.0;"/><polygon fill="none" points="809.651,223.663,814.874,244.198,797.985,231.402,809.651,223.663" style="stroke: #A80036; stroke-width: 1.0;"/><!--link Type to Contract--><path d="M952.729,134.006 C934.444,161.568 910.902,197.054 890.699,227.507 " fill="none" id="Type-Contract" style="stroke: #A80036; stroke-width: 1.0; stroke-dasharray: 7.0,7.0;"/><polygon fill="none" points="896.455,231.494,879.565,244.29,884.788,223.754,896.455,231.494" style="stroke: #A80036; stroke-width: 1.0;"/><!--link Contract to Snapshots--><path d="M847.25,357.158 C847.25,378.429 847.25,401.979 847.25,422.331 " fill="none" id="Contract-Snapshots" style="stroke: #A80036; stroke-width: 1.0;"/><polygon fill="#A80036" points="847.25,343.913,843.25,349.913,847.25,355.913,851.25,349.913,847.25,343.913" style="stroke: #A80036; stroke-width: 1.0;"/><text fill="#000000" font-family="sans-serif" font-size="13" lengthAdjust="spacingAndGlyphs" textLength="8" x="837.643" y="411.3239">1</text><!--link Contract to LinkValue--><path d="M969.667,294 C1018.77,294 1072.63,294 1110.7,294 " fill="none" id="Contract-LinkValue" style="stroke: #A80036; stroke-width: 1.0;"/><polygon fill="#A80036" points="956.631,294,962.631,298,968.631,294,962.631,290,956.631,294" style="stroke: #A80036; stroke-width: 1.0;"/><text fill="#000000" font-family="sans-serif" font-size="13" lengthAdjust="spacingAndGlyphs" textLength="96" x="984.75" y="286.0669">maps by name</text><text fill="#000000" font-family="sans-serif" font-size="13" lengthAdjust="spacingAndGlyphs" textLength="8" x="1094.8689" y="289.0548">n</text><!--link Snapshots to Snapshot--><path d="M805.71,539.791 C802.175,551.708 801.265,564.144 805.25,576 C808.778,586.495 813.975,596.752 819.991,606.413 " fill="none" id="Snapshots-Snapshot" style="stroke: #A80036; stroke-width: 1.0;"/><polygon fill="#FFFFFF" points="810.247,527.606,804.4045,531.8327,806.059,538.8515,811.9015,534.6247,810.247,527.606" style="stroke: #A80036; stroke-width: 1.0;"/><text fill="#000000" font-family="sans-serif" font-size="13" lengthAdjust="spacingAndGlyphs" textLength="46" x="806.25" y="571.0669">current</text><text fill="#000000" font-family="sans-serif" font-size="13" lengthAdjust="spacingAndGlyphs" textLength="8" x="805.0093" y="595.436">1</text><!--link Snapshots to Snapshot--><path d="M857.232,540.882 C860.477,561.976 864.076,585.372 867.318,606.442 " fill="none" id="Snapshots-Snapshot" style="stroke: #A80036; stroke-width: 1.0;"/><polygon fill="#A80036" points="855.211,527.744,852.17,534.2825,857.0359,539.6044,860.0769,533.0659,855.211,527.744" style="stroke: #A80036; stroke-width: 1.0;"/><text fill="#000000" font-family="sans-serif" font-size="13" lengthAdjust="spacingAndGlyphs" textLength="14" x="863.25" y="571.0669">all</text><text fill="#000000" font-family="sans-serif" font-size="13" lengthAdjust="spacingAndGlyphs" textLength="8" x="856.8471" y="595.4677">n</text><!--link Snapshot to Bytecode--><path d="M979.008,672 C989.671,672 1000.335,672 1011,672 " fill="none" id="Snapshot-Bytecode" style="stroke: #A80036; stroke-width: 1.0;"/><polygon fill="#A80036" points="966,672,972,676,978,672,972,668,966,672" style="stroke: #A80036; stroke-width: 1.0;"/><text fill="#000000" font-family="sans-serif" font-size="13" lengthAdjust="spacingAndGlyphs" textLength="8" x="994.9529" y="667.6768">2</text><!--link Snapshot to Compiler--><path d="M877.25,750.875 C877.25,767.681 877.25,784.905 877.25,799.9477 " fill="none" id="Snapshot-Compiler" style="stroke: #A80036; stroke-width: 1.0;"/><polygon fill="#A80036" points="877.25,737.536,873.25,743.536,877.25,749.536,881.25,743.536,877.25,737.536" style="stroke: #A80036; stroke-width: 1.0;"/><text fill="#000000" font-family="sans-serif" font-size="13" lengthAdjust="spacingAndGlyphs" textLength="8" x="867.5453" y="789.0114">1</text><!--link Source to Snapshot--><path d="M753.5,672 C760.751,672 768.002,672 775.253,672 " fill="none" id="Source-Snapshot" style="stroke: #A80036; stroke-width: 1.0;"/><polygon fill="#A80036" points="788.305,672,782.305,668,776.305,672,782.305,676,788.305,672" style="stroke: #A80036; stroke-width: 1.0;"/><text fill="#000000" font-family="sans-serif" font-size="13" lengthAdjust="spacingAndGlyphs" textLength="8" x="761.4023" y="667.1252">n</text><!--link Source to AST--><path d="M685.25,731.474 C685.25,758.482 685.25,789.539 685.25,812.3351 " fill="none" id="Source-AST" style="stroke: #A80036; stroke-width: 1.0;"/><polygon fill="#A80036" points="685.25,718.191,681.25,724.191,685.25,730.191,689.25,724.191,685.25,718.191" style="stroke: #A80036; stroke-width: 1.0;"/><text fill="#000000" font-family="sans-serif" font-size="13" lengthAdjust="spacingAndGlyphs" textLength="8" x="675.3391" y="801.4508">1</text><!--link Bytecode to SourceMap--><path d="M1161.25,731.474 C1161.25,758.482 1161.25,789.539 1161.25,812.3351 " fill="none" id="Bytecode-SourceMap" style="stroke: #A80036; stroke-width: 1.0;"/><polygon fill="#A80036" points="1161.25,718.191,1157.25,724.191,1161.25,730.191,1165.25,724.191,1161.25,718.191" style="stroke: #A80036; stroke-width: 1.0;"/><text fill="#000000" font-family="sans-serif" font-size="13" lengthAdjust="spacingAndGlyphs" textLength="8" x="1151.4219" y="801.4508">1</text><!--link LinkReference to Bytecode--><path d="M1161.25,521.227 C1161.25,548.448 1161.25,583.387 1161.25,612.672 " fill="none" id="LinkReference-Bytecode" style="stroke: #A80036; stroke-width: 1.0;"/><polygon fill="#A80036" points="1161.25,625.681,1165.25,619.681,1161.25,613.681,1157.25,619.681,1161.25,625.681" style="stroke: #A80036; stroke-width: 1.0;"/><text fill="#000000" font-family="sans-serif" font-size="13" lengthAdjust="spacingAndGlyphs" textLength="109" x="1162.25" y="571.0669">missing by name</text><text fill="#000000" font-family="sans-serif" font-size="13" lengthAdjust="spacingAndGlyphs" textLength="8" x="1151.4844" y="541.5041">n</text><!--link LinkValue to LinkReference--><path d="M1161.25,327.831 C1161.25,354.641 1161.25,392.977 1161.25,423.662 " fill="none" id="LinkValue-LinkReference" style="stroke: #A80036; stroke-width: 1.0; stroke-dasharray: 7.0,7.0;"/><polygon fill="#A80036" points="1161.25,428.907,1165.25,419.907,1161.25,423.907,1157.25,419.907,1161.25,428.907" style="stroke: #A80036; stroke-width: 1.0;"/><text fill="#000000" font-family="sans-serif" font-size="13" lengthAdjust="spacingAndGlyphs" textLength="69" x="1162.25" y="387.0669">«resolves»</text><!--
@startuml


class Project << (D,cyan) Directory >> {
 - resolve(name : String) : Artifact
 - resolve(name : String, network : String) : Artifact
}


class Network << (D,cyan) Directory >> {
 - name : String
}

class Artifact << (F,turquoise) File >> {
 - JSON
}

class Snapshots << (C,deeppink) Collection >> {
 - snapshots : Map<String => Snapshot>
 - currentId : String
 - getById(id : String) : Snapshot
 - getByBytecode(bytecode : String) : Snapshot
}

class Source << (O,orchid) Object >> {
 - sourcePath : String
 - source : String
 - ast : AST
}

abstract class Contract {
 - name : String
 - snapshots : Snapshots
 - links : Map<String => LinkValue>
 - abi()
}

class Instance {
 - address
 - transactionHash
 - constructorArgs
 __
 - methods() : MethodsInterface
 - events() : EventsInterface
 - sendTransaction() : TransactionInterface
 - send()
 ..
 - type() : Type
}

class Type {
 __
 - link(name : String, value : String)
 ..
 - new() : Promise<Instance>
 - at(address : String) : Instance
}

class Snapshot << (O,orchid) Object >> {
 - {field} id
 - abi : ABI
 - callBytecode : Bytecode
 - createBytecode : Bytecode
 - compiler : Compiler
 - sources : Array<Source>
}

class Compiler << (O,orchid) Object >> {
 - name : String
 - version : String
 - settings : Object
}

class Bytecode << (O,orchid) Object >> {
 - unlinkedBinary : String
 - sourceMap : SourceMap
 - linkReferences : Map<String => LinkReference>
}

class SourceMap << (O,orchid) Object >> {
 - sourceMap : String
}

class LinkReference << (O,orchid) Object >> {
 - name : String
 - offsets : Array<Integer>
 - length : Integer
}

class LinkValue << (O,orchid) Object >> {
 - value : String
}

class AST << (O,orchid) Object >> {
 - root : ASTNode
}

Project *- - "n" Artifact : build/contracts/
Project *-right- "n" Network : build/networks/
Network *- - "n" Artifact

Artifact *-right- "1" Contract

Instance ..|> Contract
Type ..|> Contract

Contract *-down- "1" Snapshots
Contract *-right- "n" LinkValue : maps by name


Snapshots o- - "1" Snapshot : current
Snapshots *-down- "n" Snapshot : all


Snapshot *-right- "2" Bytecode
Snapshot *- - "1" Compiler
Snapshot *-left- "n" Source

Source *- - "1" AST

Bytecode *- - "1" SourceMap
Bytecode *-up- "n" LinkReference : missing by name


LinkValue ..> LinkReference : <<resolves>>

@enduml

PlantUML version 1.2018.03(Thu Apr 05 16:59:15 UTC 2018)
(GPL source distribution)
Java Runtime: Java(TM) SE Runtime Environment
JVM: Java HotSpot(TM) 64-Bit Server VM
Java Version: 1.8.0_151-b12
Operating System: Linux
OS Version: 4.4.0-101-generic
Default Encoding: UTF-8
Language: en
Country: US
--></g></svg>