<?xml version="1.0" encoding="UTF-8" standalone="no"?><svg xmlns="http://www.w3.org/2000/svg" xmlns:xlink="http://www.w3.org/1999/xlink" contentScriptType="application/ecmascript" contentStyleType="text/css" height="887px" preserveAspectRatio="none" style="width:738px;height:887px;" version="1.1" viewBox="0 0 738 887" width="738px" zoomAndPan="magnify"><defs><filter height="300%" id="f1h57t74srwmq3" width="300%" x="-1" y="-1"><feGaussianBlur result="blurOut" stdDeviation="2.0"/><feColorMatrix in="blurOut" result="blurOut2" type="matrix" values="0 0 0 0 0 0 0 0 0 0 0 0 0 0 0 0 0 0 .4 0"/><feOffset dx="4.0" dy="4.0" in="blurOut2" result="blurOut3"/><feBlend in="SourceGraphic" in2="blurOut3" mode="normal"/></filter></defs><g><!--class Snapshots--><rect fill="#FEFECE" filter="url(#f1h57t74srwmq3)" height="105.1563" id="Snapshots" style="stroke: #A80036; stroke-width: 1.5;" width="281" x="130.75" y="406.5"/><ellipse cx="231.5" cy="425.4688" fill="#FF1493" rx="11" ry="11" style="stroke: #A80036; stroke-width: 1.0;"/><path d="M234.4688,431.1094 Q233.8906,431.4063 233.25,431.5547 Q232.6094,431.7031 231.9063,431.7031 Q229.4063,431.7031 228.0859,430.0547 Q226.7656,428.4063 226.7656,425.2813 Q226.7656,422.1563 228.0859,420.5 Q229.4063,418.8438 231.9063,418.8438 Q232.6094,418.8438 233.2578,419 Q233.9063,419.1563 234.4688,419.4531 L234.4688,422.1719 Q233.8438,421.5938 233.25,421.3203 Q232.6563,421.0469 232.0313,421.0469 Q230.6875,421.0469 230,422.1172 Q229.3125,423.1875 229.3125,425.2813 Q229.3125,427.375 230,428.4453 Q230.6875,429.5156 232.0313,429.5156 Q232.6563,429.5156 233.25,429.2422 Q233.8438,428.9688 234.4688,428.3906 L234.4688,431.1094 Z "/><text fill="#000000" font-family="sans-serif" font-size="12" font-style="italic" lengthAdjust="spacingAndGlyphs" textLength="75" x="250" y="422.6387">«Collection»</text><text fill="#000000" font-family="sans-serif" font-size="12" lengthAdjust="spacingAndGlyphs" textLength="67" x="254" y="436.6074">Snapshots</text><line style="stroke: #A80036; stroke-width: 1.5;" x1="131.75" x2="410.75" y1="444.4375" y2="444.4375"/><ellipse cx="141.75" cy="456.3398" fill="none" rx="3" ry="3" style="stroke: #038048; stroke-width: 1.0;"/><text fill="#000000" font-family="sans-serif" font-size="11" lengthAdjust="spacingAndGlyphs" textLength="227" x="150.75" y="458.6479">snapshots : Map&lt;String =&gt; Snapshot&gt;</text><ellipse cx="141.75" cy="469.1445" fill="none" rx="3" ry="3" style="stroke: #038048; stroke-width: 1.0;"/><text fill="#000000" font-family="sans-serif" font-size="11" lengthAdjust="spacingAndGlyphs" textLength="97" x="150.75" y="471.4526">currentId : String</text><line style="stroke: #A80036; stroke-width: 1.5;" x1="131.75" x2="410.75" y1="478.0469" y2="478.0469"/><ellipse cx="141.75" cy="489.9492" fill="#84BE84" rx="3" ry="3" style="stroke: #038048; stroke-width: 1.0;"/><text fill="#000000" font-family="sans-serif" font-size="11" lengthAdjust="spacingAndGlyphs" textLength="172" x="150.75" y="492.2573">getById(id : String) : Snapshot</text><ellipse cx="141.75" cy="502.7539" fill="#84BE84" rx="3" ry="3" style="stroke: #038048; stroke-width: 1.0;"/><text fill="#000000" font-family="sans-serif" font-size="11" lengthAdjust="spacingAndGlyphs" textLength="255" x="150.75" y="505.062">getByBytecode(bytecode : String) : Snapshot</text><!--class Source--><rect fill="#FEFECE" filter="url(#f1h57t74srwmq3)" height="92.3516" id="Source" style="stroke: #A80036; stroke-width: 1.5;" width="136" x="33" y="610"/><ellipse cx="72.75" cy="628.9688" fill="#DA70D6" rx="11" ry="11" style="stroke: #A80036; stroke-width: 1.0;"/><path d="M72.8594,624.5469 Q71.9219,624.5469 71.4922,625.5469 Q71.0625,626.5469 71.0625,628.7813 Q71.0625,631.0156 71.4922,632.0156 Q71.9219,633.0156 72.8594,633.0156 Q73.8125,633.0156 74.2422,632.0156 Q74.6719,631.0156 74.6719,628.7813 Q74.6719,626.5469 74.2422,625.5469 Q73.8125,624.5469 72.8594,624.5469 Z M68.5156,628.7813 Q68.5156,625.6094 69.6172,623.9766 Q70.7188,622.3438 72.8594,622.3438 Q75.0156,622.3438 76.1172,623.9766 Q77.2188,625.6094 77.2188,628.7813 Q77.2188,631.9531 76.1172,633.5781 Q75.0156,635.2031 72.8594,635.2031 Q70.7188,635.2031 69.6172,633.5781 Q68.5156,631.9531 68.5156,628.7813 Z "/><text fill="#000000" font-family="sans-serif" font-size="12" font-style="italic" lengthAdjust="spacingAndGlyphs" textLength="53" x="90.25" y="626.1387">«Object»</text><text fill="#000000" font-family="sans-serif" font-size="12" lengthAdjust="spacingAndGlyphs" textLength="44" x="94.75" y="640.1074">Source</text><line style="stroke: #A80036; stroke-width: 1.5;" x1="34" x2="168" y1="647.9375" y2="647.9375"/><ellipse cx="44" cy="659.8398" fill="none" rx="3" ry="3" style="stroke: #038048; stroke-width: 1.0;"/><text fill="#000000" font-family="sans-serif" font-size="11" lengthAdjust="spacingAndGlyphs" textLength="110" x="53" y="662.1479">sourcePath : String</text><ellipse cx="44" cy="672.6445" fill="none" rx="3" ry="3" style="stroke: #038048; stroke-width: 1.0;"/><text fill="#000000" font-family="sans-serif" font-size="11" lengthAdjust="spacingAndGlyphs" textLength="85" x="53" y="674.9526">source : String</text><ellipse cx="44" cy="685.4492" fill="none" rx="3" ry="3" style="stroke: #038048; stroke-width: 1.0;"/><text fill="#000000" font-family="sans-serif" font-size="11" lengthAdjust="spacingAndGlyphs" textLength="52" x="53" y="687.7573">ast : AST</text><line style="stroke: #A80036; stroke-width: 1.5;" x1="34" x2="168" y1="694.3516" y2="694.3516"/><!--class Contract--><rect fill="#FEFECE" filter="url(#f1h57t74srwmq3)" height="99.2188" id="Contract" style="stroke: #A80036; stroke-width: 1.5;" width="218" x="162" y="228.5"/><ellipse cx="239.75" cy="244.5" fill="#A9DCDF" rx="11" ry="11" style="stroke: #A80036; stroke-width: 1.0;"/><path d="M239.8594,239.8438 L238.7031,244.9219 L241.0313,244.9219 L239.8594,239.8438 Z M238.375,237.6094 L241.3594,237.6094 L244.7188,250 L242.2656,250 L241.5,246.9375 L238.2188,246.9375 L237.4688,250 L235.0313,250 L238.375,237.6094 Z "/><text fill="#000000" font-family="sans-serif" font-size="12" font-style="italic" lengthAdjust="spacingAndGlyphs" textLength="54" x="260.25" y="248.6543">Contract</text><line style="stroke: #A80036; stroke-width: 1.5;" x1="163" x2="379" y1="260.5" y2="260.5"/><ellipse cx="173" cy="272.4023" fill="none" rx="3" ry="3" style="stroke: #038048; stroke-width: 1.0;"/><text fill="#000000" font-family="sans-serif" font-size="11" lengthAdjust="spacingAndGlyphs" textLength="78" x="182" y="274.7104">name : String</text><ellipse cx="173" cy="285.207" fill="none" rx="3" ry="3" style="stroke: #038048; stroke-width: 1.0;"/><text fill="#000000" font-family="sans-serif" font-size="11" lengthAdjust="spacingAndGlyphs" textLength="133" x="182" y="287.5151">snapshots : Snapshots</text><ellipse cx="173" cy="298.0117" fill="none" rx="3" ry="3" style="stroke: #038048; stroke-width: 1.0;"/><text fill="#000000" font-family="sans-serif" font-size="11" lengthAdjust="spacingAndGlyphs" textLength="192" x="182" y="300.3198">links : Map&lt;String =&gt; LinkValue&gt;</text><line style="stroke: #A80036; stroke-width: 1.5;" x1="163" x2="379" y1="306.9141" y2="306.9141"/><ellipse cx="173" cy="318.8164" fill="#84BE84" rx="3" ry="3" style="stroke: #038048; stroke-width: 1.0;"/><text fill="#000000" font-family="sans-serif" font-size="11" lengthAdjust="spacingAndGlyphs" textLength="25" x="182" y="321.1245">abi()</text><!--class Instance--><rect fill="#FEFECE" filter="url(#f1h57t74srwmq3)" height="158.4375" id="Instance" style="stroke: #A80036; stroke-width: 1.5;" width="258" x="6" y="8"/><ellipse cx="74.75" cy="24" fill="#ADD1B2" rx="11" ry="11" style="stroke: #A80036; stroke-width: 1.0;"/><path d="M77.7188,29.6406 Q77.1406,29.9375 76.5,30.0859 Q75.8594,30.2344 75.1563,30.2344 Q72.6563,30.2344 71.3359,28.5859 Q70.0156,26.9375 70.0156,23.8125 Q70.0156,20.6875 71.3359,19.0313 Q72.6563,17.375 75.1563,17.375 Q75.8594,17.375 76.5078,17.5313 Q77.1563,17.6875 77.7188,17.9844 L77.7188,20.7031 Q77.0938,20.125 76.5,19.8516 Q75.9063,19.5781 75.2813,19.5781 Q73.9375,19.5781 73.25,20.6484 Q72.5625,21.7188 72.5625,23.8125 Q72.5625,25.9063 73.25,26.9766 Q73.9375,28.0469 75.2813,28.0469 Q75.9063,28.0469 76.5,27.7734 Q77.0938,27.5 77.7188,26.9219 L77.7188,29.6406 Z "/><text fill="#000000" font-family="sans-serif" font-size="12" lengthAdjust="spacingAndGlyphs" textLength="112" x="95.25" y="28.1543">Contract Instance</text><line style="stroke: #A80036; stroke-width: 1.5;" x1="7" x2="263" y1="40" y2="40"/><ellipse cx="17" cy="51.9023" fill="none" rx="3" ry="3" style="stroke: #038048; stroke-width: 1.0;"/><text fill="#000000" font-family="sans-serif" font-size="11" lengthAdjust="spacingAndGlyphs" textLength="47" x="26" y="54.2104">address</text><ellipse cx="17" cy="64.707" fill="none" rx="3" ry="3" style="stroke: #038048; stroke-width: 1.0;"/><text fill="#000000" font-family="sans-serif" font-size="11" lengthAdjust="spacingAndGlyphs" textLength="93" x="26" y="67.0151">transactionHash</text><ellipse cx="17" cy="77.5117" fill="none" rx="3" ry="3" style="stroke: #038048; stroke-width: 1.0;"/><text fill="#000000" font-family="sans-serif" font-size="11" lengthAdjust="spacingAndGlyphs" textLength="91" x="26" y="79.8198">constructorArgs</text><line style="stroke: #A80036; stroke-width: 1.5;" x1="7" x2="263" y1="86.4141" y2="86.4141"/><ellipse cx="17" cy="98.3164" fill="#84BE84" rx="3" ry="3" style="stroke: #038048; stroke-width: 1.0;"/><text fill="#000000" font-family="sans-serif" font-size="11" lengthAdjust="spacingAndGlyphs" textLength="168" x="26" y="100.6245">methods() : MethodsInterface</text><ellipse cx="17" cy="111.1211" fill="#84BE84" rx="3" ry="3" style="stroke: #038048; stroke-width: 1.0;"/><text fill="#000000" font-family="sans-serif" font-size="11" lengthAdjust="spacingAndGlyphs" textLength="146" x="26" y="113.4292">events() : EventsInterface</text><ellipse cx="17" cy="123.9258" fill="#84BE84" rx="3" ry="3" style="stroke: #038048; stroke-width: 1.0;"/><text fill="#000000" font-family="sans-serif" font-size="11" lengthAdjust="spacingAndGlyphs" textLength="232" x="26" y="126.2339">sendTransaction() : TransactionInterface</text><ellipse cx="17" cy="136.7305" fill="#84BE84" rx="3" ry="3" style="stroke: #038048; stroke-width: 1.0;"/><text fill="#000000" font-family="sans-serif" font-size="11" lengthAdjust="spacingAndGlyphs" textLength="36" x="26" y="139.0386">send()</text><line style="stroke: #A80036; stroke-width: 1.0; stroke-dasharray: 1.0,2.0;" x1="7" x2="263" y1="145.6328" y2="145.6328"/><ellipse cx="17" cy="157.5352" fill="#84BE84" rx="3" ry="3" style="stroke: #038048; stroke-width: 1.0;"/><text fill="#000000" font-family="sans-serif" font-size="11" lengthAdjust="spacingAndGlyphs" textLength="71" x="26" y="159.8433">type() : Type</text><!--class Type--><rect fill="#FEFECE" filter="url(#f1h57t74srwmq3)" height="94.4141" id="Type" style="stroke: #A80036; stroke-width: 1.5;" width="215" x="299.75" y="40"/><ellipse cx="359.5" cy="56" fill="#ADD1B2" rx="11" ry="11" style="stroke: #A80036; stroke-width: 1.0;"/><path d="M362.4688,61.6406 Q361.8906,61.9375 361.25,62.0859 Q360.6094,62.2344 359.9063,62.2344 Q357.4063,62.2344 356.0859,60.5859 Q354.7656,58.9375 354.7656,55.8125 Q354.7656,52.6875 356.0859,51.0313 Q357.4063,49.375 359.9063,49.375 Q360.6094,49.375 361.2578,49.5313 Q361.9063,49.6875 362.4688,49.9844 L362.4688,52.7031 Q361.8438,52.125 361.25,51.8516 Q360.6563,51.5781 360.0313,51.5781 Q358.6875,51.5781 358,52.6484 Q357.3125,53.7188 357.3125,55.8125 Q357.3125,57.9063 358,58.9766 Q358.6875,60.0469 360.0313,60.0469 Q360.6563,60.0469 361.25,59.7734 Q361.8438,59.5 362.4688,58.9219 L362.4688,61.6406 Z "/><text fill="#000000" font-family="sans-serif" font-size="12" lengthAdjust="spacingAndGlyphs" textLength="87" x="380" y="60.1543">Contract Type</text><line style="stroke: #A80036; stroke-width: 1.5;" x1="300.75" x2="513.75" y1="72" y2="72"/><line style="stroke: #A80036; stroke-width: 1.5;" x1="300.75" x2="513.75" y1="80" y2="80"/><ellipse cx="310.75" cy="91.9023" fill="#84BE84" rx="3" ry="3" style="stroke: #038048; stroke-width: 1.0;"/><text fill="#000000" font-family="sans-serif" font-size="11" lengthAdjust="spacingAndGlyphs" textLength="189" x="319.75" y="94.2104">link(name : String, value : String)</text><line style="stroke: #A80036; stroke-width: 1.0; stroke-dasharray: 1.0,2.0;" x1="300.75" x2="513.75" y1="100.8047" y2="100.8047"/><ellipse cx="310.75" cy="112.707" fill="#84BE84" rx="3" ry="3" style="stroke: #038048; stroke-width: 1.0;"/><text fill="#000000" font-family="sans-serif" font-size="11" lengthAdjust="spacingAndGlyphs" textLength="156" x="319.75" y="115.0151">new() : Promise&lt;Instance&gt;</text><ellipse cx="310.75" cy="125.5117" fill="#84BE84" rx="3" ry="3" style="stroke: #038048; stroke-width: 1.0;"/><text fill="#000000" font-family="sans-serif" font-size="11" lengthAdjust="spacingAndGlyphs" textLength="172" x="319.75" y="127.8198">at(address : String) : Instance</text><!--class Snapshot--><rect fill="#FEFECE" filter="url(#f1h57t74srwmq3)" height="130.7656" id="Snapshot" style="stroke: #A80036; stroke-width: 1.5;" width="178" x="204.5" y="590.5"/><ellipse cx="259.25" cy="609.4688" fill="#DA70D6" rx="11" ry="11" style="stroke: #A80036; stroke-width: 1.0;"/><path d="M259.3594,605.0469 Q258.4219,605.0469 257.9922,606.0469 Q257.5625,607.0469 257.5625,609.2813 Q257.5625,611.5156 257.9922,612.5156 Q258.4219,613.5156 259.3594,613.5156 Q260.3125,613.5156 260.7422,612.5156 Q261.1719,611.5156 261.1719,609.2813 Q261.1719,607.0469 260.7422,606.0469 Q260.3125,605.0469 259.3594,605.0469 Z M255.0156,609.2813 Q255.0156,606.1094 256.1172,604.4766 Q257.2188,602.8438 259.3594,602.8438 Q261.5156,602.8438 262.6172,604.4766 Q263.7188,606.1094 263.7188,609.2813 Q263.7188,612.4531 262.6172,614.0781 Q261.5156,615.7031 259.3594,615.7031 Q257.2188,615.7031 256.1172,614.0781 Q255.0156,612.4531 255.0156,609.2813 Z "/><text fill="#000000" font-family="sans-serif" font-size="12" font-style="italic" lengthAdjust="spacingAndGlyphs" textLength="53" x="283.25" y="606.6387">«Object»</text><text fill="#000000" font-family="sans-serif" font-size="12" lengthAdjust="spacingAndGlyphs" textLength="60" x="279.75" y="620.6074">Snapshot</text><line style="stroke: #A80036; stroke-width: 1.5;" x1="205.5" x2="381.5" y1="628.4375" y2="628.4375"/><ellipse cx="215.5" cy="640.3398" fill="none" rx="3" ry="3" style="stroke: #038048; stroke-width: 1.0;"/><text fill="#000000" font-family="sans-serif" font-size="11" lengthAdjust="spacingAndGlyphs" textLength="10" x="224.5" y="642.6479">id</text><ellipse cx="215.5" cy="653.1445" fill="none" rx="3" ry="3" style="stroke: #038048; stroke-width: 1.0;"/><text fill="#000000" font-family="sans-serif" font-size="11" lengthAdjust="spacingAndGlyphs" textLength="47" x="224.5" y="655.4526">abi : ABI</text><ellipse cx="215.5" cy="665.9492" fill="none" rx="3" ry="3" style="stroke: #038048; stroke-width: 1.0;"/><text fill="#000000" font-family="sans-serif" font-size="11" lengthAdjust="spacingAndGlyphs" textLength="135" x="224.5" y="668.2573">callBytecode : Bytecode</text><ellipse cx="215.5" cy="678.7539" fill="none" rx="3" ry="3" style="stroke: #038048; stroke-width: 1.0;"/><text fill="#000000" font-family="sans-serif" font-size="11" lengthAdjust="spacingAndGlyphs" textLength="152" x="224.5" y="681.062">createBytecode : Bytecode</text><ellipse cx="215.5" cy="691.5586" fill="none" rx="3" ry="3" style="stroke: #038048; stroke-width: 1.0;"/><text fill="#000000" font-family="sans-serif" font-size="11" lengthAdjust="spacingAndGlyphs" textLength="112" x="224.5" y="693.8667">compiler : Compiler</text><ellipse cx="215.5" cy="704.3633" fill="none" rx="3" ry="3" style="stroke: #038048; stroke-width: 1.0;"/><text fill="#000000" font-family="sans-serif" font-size="11" lengthAdjust="spacingAndGlyphs" textLength="146" x="224.5" y="706.6714">sources : Array&lt;Source&gt;</text><line style="stroke: #A80036; stroke-width: 1.5;" x1="205.5" x2="381.5" y1="713.2656" y2="713.2656"/><!--class Compiler--><rect fill="#FEFECE" filter="url(#f1h57t74srwmq3)" height="92.3516" id="Compiler" style="stroke: #A80036; stroke-width: 1.5;" width="120" x="233.5" y="784"/><ellipse cx="263.8" cy="802.9688" fill="#DA70D6" rx="11" ry="11" style="stroke: #A80036; stroke-width: 1.0;"/><path d="M263.9094,798.5469 Q262.9719,798.5469 262.5422,799.5469 Q262.1125,800.5469 262.1125,802.7813 Q262.1125,805.0156 262.5422,806.0156 Q262.9719,807.0156 263.9094,807.0156 Q264.8625,807.0156 265.2922,806.0156 Q265.7219,805.0156 265.7219,802.7813 Q265.7219,800.5469 265.2922,799.5469 Q264.8625,798.5469 263.9094,798.5469 Z M259.5656,802.7813 Q259.5656,799.6094 260.6672,797.9766 Q261.7688,796.3438 263.9094,796.3438 Q266.0656,796.3438 267.1672,797.9766 Q268.2688,799.6094 268.2688,802.7813 Q268.2688,805.9531 267.1672,807.5781 Q266.0656,809.2031 263.9094,809.2031 Q261.7688,809.2031 260.6672,807.5781 Q259.5656,805.9531 259.5656,802.7813 Z "/><text fill="#000000" font-family="sans-serif" font-size="12" font-style="italic" lengthAdjust="spacingAndGlyphs" textLength="53" x="281.7" y="800.1387">«Object»</text><text fill="#000000" font-family="sans-serif" font-size="12" lengthAdjust="spacingAndGlyphs" textLength="54" x="281.2" y="814.1074">Compiler</text><line style="stroke: #A80036; stroke-width: 1.5;" x1="234.5" x2="352.5" y1="821.9375" y2="821.9375"/><ellipse cx="244.5" cy="833.8398" fill="none" rx="3" ry="3" style="stroke: #038048; stroke-width: 1.0;"/><text fill="#000000" font-family="sans-serif" font-size="11" lengthAdjust="spacingAndGlyphs" textLength="78" x="253.5" y="836.1479">name : String</text><ellipse cx="244.5" cy="846.6445" fill="none" rx="3" ry="3" style="stroke: #038048; stroke-width: 1.0;"/><text fill="#000000" font-family="sans-serif" font-size="11" lengthAdjust="spacingAndGlyphs" textLength="88" x="253.5" y="848.9526">version : String</text><ellipse cx="244.5" cy="859.4492" fill="none" rx="3" ry="3" style="stroke: #038048; stroke-width: 1.0;"/><text fill="#000000" font-family="sans-serif" font-size="11" lengthAdjust="spacingAndGlyphs" textLength="94" x="253.5" y="861.7573">settings : Object</text><line style="stroke: #A80036; stroke-width: 1.5;" x1="234.5" x2="352.5" y1="868.3516" y2="868.3516"/><!--class Bytecode--><rect fill="#FEFECE" filter="url(#f1h57t74srwmq3)" height="92.3516" id="Bytecode" style="stroke: #A80036; stroke-width: 1.5;" width="301" x="426.75" y="610"/><ellipse cx="544" cy="628.9688" fill="#DA70D6" rx="11" ry="11" style="stroke: #A80036; stroke-width: 1.0;"/><path d="M544.1094,624.5469 Q543.1719,624.5469 542.7422,625.5469 Q542.3125,626.5469 542.3125,628.7813 Q542.3125,631.0156 542.7422,632.0156 Q543.1719,633.0156 544.1094,633.0156 Q545.0625,633.0156 545.4922,632.0156 Q545.9219,631.0156 545.9219,628.7813 Q545.9219,626.5469 545.4922,625.5469 Q545.0625,624.5469 544.1094,624.5469 Z M539.7656,628.7813 Q539.7656,625.6094 540.8672,623.9766 Q541.9688,622.3438 544.1094,622.3438 Q546.2656,622.3438 547.3672,623.9766 Q548.4688,625.6094 548.4688,628.7813 Q548.4688,631.9531 547.3672,633.5781 Q546.2656,635.2031 544.1094,635.2031 Q541.9688,635.2031 540.8672,633.5781 Q539.7656,631.9531 539.7656,628.7813 Z "/><text fill="#000000" font-family="sans-serif" font-size="12" font-style="italic" lengthAdjust="spacingAndGlyphs" textLength="53" x="567" y="626.1387">«Object»</text><text fill="#000000" font-family="sans-serif" font-size="12" lengthAdjust="spacingAndGlyphs" textLength="58" x="564.5" y="640.1074">Bytecode</text><line style="stroke: #A80036; stroke-width: 1.5;" x1="427.75" x2="726.75" y1="647.9375" y2="647.9375"/><ellipse cx="437.75" cy="659.8398" fill="none" rx="3" ry="3" style="stroke: #038048; stroke-width: 1.0;"/><text fill="#000000" font-family="sans-serif" font-size="11" lengthAdjust="spacingAndGlyphs" textLength="129" x="446.75" y="662.1479">unlinkedBinary : String</text><ellipse cx="437.75" cy="672.6445" fill="none" rx="3" ry="3" style="stroke: #038048; stroke-width: 1.0;"/><text fill="#000000" font-family="sans-serif" font-size="11" lengthAdjust="spacingAndGlyphs" textLength="137" x="446.75" y="674.9526">sourceMap : SourceMap</text><ellipse cx="437.75" cy="685.4492" fill="none" rx="3" ry="3" style="stroke: #038048; stroke-width: 1.0;"/><text fill="#000000" font-family="sans-serif" font-size="11" lengthAdjust="spacingAndGlyphs" textLength="275" x="446.75" y="687.7573">linkReferences : Map&lt;String =&gt; LinkReference&gt;</text><line style="stroke: #A80036; stroke-width: 1.5;" x1="427.75" x2="726.75" y1="694.3516" y2="694.3516"/><!--class SourceMap--><rect fill="#FEFECE" filter="url(#f1h57t74srwmq3)" height="66.7422" id="SourceMap" style="stroke: #A80036; stroke-width: 1.5;" width="134" x="510" y="796.5"/><ellipse cx="539.4" cy="815.4688" fill="#DA70D6" rx="11" ry="11" style="stroke: #A80036; stroke-width: 1.0;"/><path d="M539.5094,811.0469 Q538.5719,811.0469 538.1422,812.0469 Q537.7125,813.0469 537.7125,815.2813 Q537.7125,817.5156 538.1422,818.5156 Q538.5719,819.5156 539.5094,819.5156 Q540.4625,819.5156 540.8922,818.5156 Q541.3219,817.5156 541.3219,815.2813 Q541.3219,813.0469 540.8922,812.0469 Q540.4625,811.0469 539.5094,811.0469 Z M535.1656,815.2813 Q535.1656,812.1094 536.2672,810.4766 Q537.3688,808.8438 539.5094,808.8438 Q541.6656,808.8438 542.7672,810.4766 Q543.8688,812.1094 543.8688,815.2813 Q543.8688,818.4531 542.7672,820.0781 Q541.6656,821.7031 539.5094,821.7031 Q537.3688,821.7031 536.2672,820.0781 Q535.1656,818.4531 535.1656,815.2813 Z "/><text fill="#000000" font-family="sans-serif" font-size="12" font-style="italic" lengthAdjust="spacingAndGlyphs" textLength="53" x="565.1" y="812.6387">«Object»</text><text fill="#000000" font-family="sans-serif" font-size="12" lengthAdjust="spacingAndGlyphs" textLength="70" x="556.6" y="826.6074">SourceMap</text><line style="stroke: #A80036; stroke-width: 1.5;" x1="511" x2="643" y1="834.4375" y2="834.4375"/><ellipse cx="521" cy="846.3398" fill="none" rx="3" ry="3" style="stroke: #038048; stroke-width: 1.0;"/><text fill="#000000" font-family="sans-serif" font-size="11" lengthAdjust="spacingAndGlyphs" textLength="108" x="530" y="848.6479">sourceMap : String</text><line style="stroke: #A80036; stroke-width: 1.5;" x1="511" x2="643" y1="855.2422" y2="855.2422"/><!--class LinkReference--><rect fill="#FEFECE" filter="url(#f1h57t74srwmq3)" height="92.3516" id="LinkReference" style="stroke: #A80036; stroke-width: 1.5;" width="166" x="494" y="413"/><ellipse cx="529.7" cy="431.9688" fill="#DA70D6" rx="11" ry="11" style="stroke: #A80036; stroke-width: 1.0;"/><path d="M529.8094,427.5469 Q528.8719,427.5469 528.4422,428.5469 Q528.0125,429.5469 528.0125,431.7813 Q528.0125,434.0156 528.4422,435.0156 Q528.8719,436.0156 529.8094,436.0156 Q530.7625,436.0156 531.1922,435.0156 Q531.6219,434.0156 531.6219,431.7813 Q531.6219,429.5469 531.1922,428.5469 Q530.7625,427.5469 529.8094,427.5469 Z M525.4656,431.7813 Q525.4656,428.6094 526.5672,426.9766 Q527.6688,425.3438 529.8094,425.3438 Q531.9656,425.3438 533.0672,426.9766 Q534.1688,428.6094 534.1688,431.7813 Q534.1688,434.9531 533.0672,436.5781 Q531.9656,438.2031 529.8094,438.2031 Q527.6688,438.2031 526.5672,436.5781 Q525.4656,434.9531 525.4656,431.7813 Z "/><text fill="#000000" font-family="sans-serif" font-size="12" font-style="italic" lengthAdjust="spacingAndGlyphs" textLength="53" x="565.8" y="429.1387">«Object»</text><text fill="#000000" font-family="sans-serif" font-size="12" lengthAdjust="spacingAndGlyphs" textLength="88" x="548.3" y="443.1074">LinkReference</text><line style="stroke: #A80036; stroke-width: 1.5;" x1="495" x2="659" y1="450.9375" y2="450.9375"/><ellipse cx="505" cy="462.8398" fill="none" rx="3" ry="3" style="stroke: #038048; stroke-width: 1.0;"/><text fill="#000000" font-family="sans-serif" font-size="11" lengthAdjust="spacingAndGlyphs" textLength="78" x="514" y="465.1479">name : String</text><ellipse cx="505" cy="475.6445" fill="none" rx="3" ry="3" style="stroke: #038048; stroke-width: 1.0;"/><text fill="#000000" font-family="sans-serif" font-size="11" lengthAdjust="spacingAndGlyphs" textLength="140" x="514" y="477.9526">offsets : Array&lt;Integer&gt;</text><ellipse cx="505" cy="488.4492" fill="none" rx="3" ry="3" style="stroke: #038048; stroke-width: 1.0;"/><text fill="#000000" font-family="sans-serif" font-size="11" lengthAdjust="spacingAndGlyphs" textLength="87" x="514" y="490.7573">length : Integer</text><line style="stroke: #A80036; stroke-width: 1.5;" x1="495" x2="659" y1="497.3516" y2="497.3516"/><!--class LinkValue--><rect fill="#FEFECE" filter="url(#f1h57t74srwmq3)" height="66.7422" id="LinkValue" style="stroke: #A80036; stroke-width: 1.5;" width="102" x="526.5" y="244.5"/><ellipse cx="546.45" cy="263.4688" fill="#DA70D6" rx="11" ry="11" style="stroke: #A80036; stroke-width: 1.0;"/><path d="M546.5594,259.0469 Q545.6219,259.0469 545.1922,260.0469 Q544.7625,261.0469 544.7625,263.2813 Q544.7625,265.5156 545.1922,266.5156 Q545.6219,267.5156 546.5594,267.5156 Q547.5125,267.5156 547.9422,266.5156 Q548.3719,265.5156 548.3719,263.2813 Q548.3719,261.0469 547.9422,260.0469 Q547.5125,259.0469 546.5594,259.0469 Z M542.2156,263.2813 Q542.2156,260.1094 543.3172,258.4766 Q544.4188,256.8438 546.5594,256.8438 Q548.7156,256.8438 549.8172,258.4766 Q550.9188,260.1094 550.9188,263.2813 Q550.9188,266.4531 549.8172,268.0781 Q548.7156,269.7031 546.5594,269.7031 Q544.4188,269.7031 543.3172,268.0781 Q542.2156,266.4531 542.2156,263.2813 Z "/><text fill="#000000" font-family="sans-serif" font-size="12" font-style="italic" lengthAdjust="spacingAndGlyphs" textLength="53" x="564.55" y="260.6387">«Object»</text><text fill="#000000" font-family="sans-serif" font-size="12" lengthAdjust="spacingAndGlyphs" textLength="59" x="561.55" y="274.6074">LinkValue</text><line style="stroke: #A80036; stroke-width: 1.5;" x1="527.5" x2="627.5" y1="282.4375" y2="282.4375"/><ellipse cx="537.5" cy="294.3398" fill="none" rx="3" ry="3" style="stroke: #038048; stroke-width: 1.0;"/><text fill="#000000" font-family="sans-serif" font-size="11" lengthAdjust="spacingAndGlyphs" textLength="76" x="546.5" y="296.6479">value : String</text><line style="stroke: #A80036; stroke-width: 1.5;" x1="527.5" x2="627.5" y1="303.2422" y2="303.2422"/><!--class AST--><rect fill="#FEFECE" filter="url(#f1h57t74srwmq3)" height="66.7422" id="AST" style="stroke: #A80036; stroke-width: 1.5;" width="112" x="45.5" y="796.5"/><ellipse cx="74.45" cy="815.4688" fill="#DA70D6" rx="11" ry="11" style="stroke: #A80036; stroke-width: 1.0;"/><path d="M74.5594,811.0469 Q73.6219,811.0469 73.1922,812.0469 Q72.7625,813.0469 72.7625,815.2813 Q72.7625,817.5156 73.1922,818.5156 Q73.6219,819.5156 74.5594,819.5156 Q75.5125,819.5156 75.9422,818.5156 Q76.3719,817.5156 76.3719,815.2813 Q76.3719,813.0469 75.9422,812.0469 Q75.5125,811.0469 74.5594,811.0469 Z M70.2156,815.2813 Q70.2156,812.1094 71.3172,810.4766 Q72.4188,808.8438 74.5594,808.8438 Q76.7156,808.8438 77.8172,810.4766 Q78.9188,812.1094 78.9188,815.2813 Q78.9188,818.4531 77.8172,820.0781 Q76.7156,821.7031 74.5594,821.7031 Q72.4188,821.7031 71.3172,820.0781 Q70.2156,818.4531 70.2156,815.2813 Z "/><text fill="#000000" font-family="sans-serif" font-size="12" font-style="italic" lengthAdjust="spacingAndGlyphs" textLength="53" x="89.55" y="812.6387">«Object»</text><text fill="#000000" font-family="sans-serif" font-size="12" lengthAdjust="spacingAndGlyphs" textLength="23" x="104.55" y="826.6074">AST</text><line style="stroke: #A80036; stroke-width: 1.5;" x1="46.5" x2="156.5" y1="834.4375" y2="834.4375"/><ellipse cx="56.5" cy="846.3398" fill="none" rx="3" ry="3" style="stroke: #038048; stroke-width: 1.0;"/><text fill="#000000" font-family="sans-serif" font-size="11" lengthAdjust="spacingAndGlyphs" textLength="86" x="65.5" y="848.6479">root : ASTNode</text><line style="stroke: #A80036; stroke-width: 1.5;" x1="46.5" x2="156.5" y1="855.2422" y2="855.2422"/><!--link Instance to Contract--><path d="M191.298,166.238 C202.17,181.347 213.454,197.028 223.992,211.673 " fill="none" id="Instance-Contract" style="stroke: #A80036; stroke-width: 1.0; stroke-dasharray: 7.0,7.0;"/><polygon fill="none" points="229.951,207.969,235.951,228.292,218.587,216.146,229.951,207.969" style="stroke: #A80036; stroke-width: 1.0;"/><!--link Type to Contract--><path d="M373.731,134.235 C356.894,157.632 336.175,186.426 317.764,212.012 " fill="none" id="Type-Contract" style="stroke: #A80036; stroke-width: 1.0; stroke-dasharray: 7.0,7.0;"/><polygon fill="none" points="323.426,216.128,306.063,228.273,312.062,207.951,323.426,216.128" style="stroke: #A80036; stroke-width: 1.0;"/><!--link Contract to Snapshots--><path d="M271,341.158 C271,362.429 271,385.979 271,406.331 " fill="none" id="Contract-Snapshots" style="stroke: #A80036; stroke-width: 1.0;"/><polygon fill="#A80036" points="271,327.913,267,333.913,271,339.913,275,333.913,271,327.913" style="stroke: #A80036; stroke-width: 1.0;"/><text fill="#000000" font-family="sans-serif" font-size="13" lengthAdjust="spacingAndGlyphs" textLength="8" x="261.393" y="395.3239">1</text><!--link Contract to LinkValue--><path d="M393.442,278 C439.759,278 489.972,278 526.152,278 " fill="none" id="Contract-LinkValue" style="stroke: #A80036; stroke-width: 1.0;"/><polygon fill="#A80036" points="380.177,278,386.177,282,392.177,278,386.177,274,380.177,278" style="stroke: #A80036; stroke-width: 1.0;"/><text fill="#000000" font-family="sans-serif" font-size="13" lengthAdjust="spacingAndGlyphs" textLength="96" x="404.5" y="270.0669">maps by name</text><text fill="#000000" font-family="sans-serif" font-size="13" lengthAdjust="spacingAndGlyphs" textLength="8" x="510.6368" y="273.1067">n</text><!--link Snapshots to Snapshot--><path d="M278.32,524.882 C280.7,545.976 283.339,569.372 285.717,590.442 " fill="none" id="Snapshots-Snapshot" style="stroke: #A80036; stroke-width: 1.0;"/><polygon fill="#FFFFFF" points="276.838,511.744,273.5364,518.1549,278.1843,523.6682,281.4859,517.2574,276.838,511.744" style="stroke: #A80036; stroke-width: 1.0;"/><text fill="#000000" font-family="sans-serif" font-size="13" lengthAdjust="spacingAndGlyphs" textLength="46" x="283" y="555.0669">current</text><text fill="#000000" font-family="sans-serif" font-size="13" lengthAdjust="spacingAndGlyphs" textLength="8" x="275.4986" y="579.4677">1</text><!--link Snapshots to Snapshot--><path d="M254.948,524.606 C253.821,536.407 253.857,548.592 256,560 C257.879,570.002 260.781,580.304 264.151,590.266 " fill="none" id="Snapshots-Snapshot" style="stroke: #A80036; stroke-width: 1.0;"/><polygon fill="#A80036" points="256.663,511.509,251.9181,516.9391,255.1056,523.4075,259.8505,517.9774,256.663,511.509" style="stroke: #A80036; stroke-width: 1.0;"/><text fill="#000000" font-family="sans-serif" font-size="13" lengthAdjust="spacingAndGlyphs" textLength="14" x="257" y="555.0669">all</text><text fill="#000000" font-family="sans-serif" font-size="13" lengthAdjust="spacingAndGlyphs" textLength="8" x="251.9845" y="579.5064">n</text><!--link Snapshot to Bytecode--><path d="M394.758,656 C405.421,656 416.085,656 426.749,656 " fill="none" id="Snapshot-Bytecode" style="stroke: #A80036; stroke-width: 1.0;"/><polygon fill="#A80036" points="381.75,656,387.75,660,393.75,656,387.75,652,381.75,656" style="stroke: #A80036; stroke-width: 1.0;"/><text fill="#000000" font-family="sans-serif" font-size="13" lengthAdjust="spacingAndGlyphs" textLength="8" x="410.7029" y="651.6768">2</text><!--link Snapshot to Compiler--><path d="M293,734.875 C293,751.681 293,768.905 293,783.9477 " fill="none" id="Snapshot-Compiler" style="stroke: #A80036; stroke-width: 1.0;"/><polygon fill="#A80036" points="293,721.536,289,727.536,293,733.536,297,727.536,293,721.536" style="stroke: #A80036; stroke-width: 1.0;"/><text fill="#000000" font-family="sans-serif" font-size="13" lengthAdjust="spacingAndGlyphs" textLength="8" x="283.2953" y="773.0114">1</text><!--link Source to Snapshot--><path d="M169.25,656 C176.501,656 183.752,656 191.003,656 " fill="none" id="Source-Snapshot" style="stroke: #A80036; stroke-width: 1.0;"/><polygon fill="#A80036" points="204.055,656,198.055,652,192.055,656,198.055,660,204.055,656" style="stroke: #A80036; stroke-width: 1.0;"/><text fill="#000000" font-family="sans-serif" font-size="13" lengthAdjust="spacingAndGlyphs" textLength="8" x="177.1523" y="651.1252">n</text><!--link Source to AST--><path d="M101,715.474 C101,742.482 101,773.539 101,796.3351 " fill="none" id="Source-AST" style="stroke: #A80036; stroke-width: 1.0;"/><polygon fill="#A80036" points="101,702.191,97,708.191,101,714.191,105,708.191,101,702.191" style="stroke: #A80036; stroke-width: 1.0;"/><text fill="#000000" font-family="sans-serif" font-size="13" lengthAdjust="spacingAndGlyphs" textLength="8" x="91.0891" y="785.4508">1</text><!--link Bytecode to SourceMap--><path d="M577,715.474 C577,742.482 577,773.539 577,796.3351 " fill="none" id="Bytecode-SourceMap" style="stroke: #A80036; stroke-width: 1.0;"/><polygon fill="#A80036" points="577,702.191,573,708.191,577,714.191,581,708.191,577,702.191" style="stroke: #A80036; stroke-width: 1.0;"/><text fill="#000000" font-family="sans-serif" font-size="13" lengthAdjust="spacingAndGlyphs" textLength="8" x="567.1719" y="785.4508">1</text><!--link LinkReference to Bytecode--><path d="M577,505.227 C577,532.448 577,567.387 577,596.672 " fill="none" id="LinkReference-Bytecode" style="stroke: #A80036; stroke-width: 1.0;"/><polygon fill="#A80036" points="577,609.681,581,603.681,577,597.681,573,603.681,577,609.681" style="stroke: #A80036; stroke-width: 1.0;"/><text fill="#000000" font-family="sans-serif" font-size="13" lengthAdjust="spacingAndGlyphs" textLength="109" x="578" y="555.0669">missing by name</text><text fill="#000000" font-family="sans-serif" font-size="13" lengthAdjust="spacingAndGlyphs" textLength="8" x="567.2344" y="525.5041">n</text><!--link LinkValue to LinkReference--><path d="M577,311.831 C577,338.641 577,376.977 577,407.662 " fill="none" id="LinkValue-LinkReference" style="stroke: #A80036; stroke-width: 1.0; stroke-dasharray: 7.0,7.0;"/><polygon fill="#A80036" points="577,412.907,581,403.907,577,407.907,573,403.907,577,412.907" style="stroke: #A80036; stroke-width: 1.0;"/><text fill="#000000" font-family="sans-serif" font-size="13" lengthAdjust="spacingAndGlyphs" textLength="69" x="578" y="371.0669">«resolves»</text><!--
@startuml

class Snapshots << (C,deeppink) Collection >> {
 + snapshots : Map<String => Snapshot>
 + currentId : String
 + getById(id : String) : Snapshot
 + getByBytecode(bytecode : String) : Snapshot
}

class Source << (O,orchid) Object >> {
 + sourcePath : String
 + source : String
 + ast : AST
}

abstract class Contract {
 + name : String
 + snapshots : Snapshots
 + links : Map<String => LinkValue>
 + abi()
}

class "Contract Instance" as Instance {
 + address
 + transactionHash
 + constructorArgs
 __
 + methods() : MethodsInterface
 + events() : EventsInterface
 + sendTransaction() : TransactionInterface
 + send()
 ..
 + type() : Type
}

class "Contract Type" as Type {
 __
 + link(name : String, value : String)
 ..
 + new() : Promise<Instance>
 + at(address : String) : Instance
}

class Snapshot << (O,orchid) Object >> {
 + {field} id
 + abi : ABI
 + callBytecode : Bytecode
 + createBytecode : Bytecode
 + compiler : Compiler
 + sources : Array<Source>
}

class Compiler << (O,orchid) Object >> {
 + name : String
 + version : String
 + settings : Object
}

class Bytecode << (O,orchid) Object >> {
 + unlinkedBinary : String
 + sourceMap : SourceMap
 + linkReferences : Map<String => LinkReference>
}

class SourceMap << (O,orchid) Object >> {
 + sourceMap : String
}

class LinkReference << (O,orchid) Object >> {
 + name : String
 + offsets : Array<Integer>
 + length : Integer
}

class LinkValue << (O,orchid) Object >> {
 + value : String
}

class AST << (O,orchid) Object >> {
 + root : ASTNode
}

Instance ..|> Contract
Type ..|> Contract

Contract *-down- "1" Snapshots
Contract *-right- "n" LinkValue : maps by name


Snapshots o- - "1" Snapshot : current
Snapshots *-down- "n" Snapshot : all


Snapshot *-right- "2" Bytecode
Snapshot *- - "1" Compiler
Snapshot *-left- "n" Source

Source *- - "1" AST

Bytecode *- - "1" SourceMap
Bytecode *-up- "n" LinkReference : missing by name


LinkValue ..> LinkReference : <<resolves>>

@enduml

PlantUML version 1.2018.03(Thu Apr 05 16:59:15 UTC 2018)
(GPL source distribution)
Java Runtime: Java(TM) SE Runtime Environment
JVM: Java HotSpot(TM) 64-Bit Server VM
Java Version: 1.8.0_151-b12
Operating System: Linux
OS Version: 4.4.0-101-generic
Default Encoding: UTF-8
Language: en
Country: US
--></g></svg>