<?xml version="1.0" encoding="UTF-8" standalone="no"?><svg xmlns="http://www.w3.org/2000/svg" xmlns:xlink="http://www.w3.org/1999/xlink" contentScriptType="application/ecmascript" contentStyleType="text/css" height="749.25px" preserveAspectRatio="none" style="width:681px;height:749px;" version="1.1" viewBox="0 0 681 749" width="681.75px" zoomAndPan="magnify"><defs><filter height="300%" id="f1gfj8ee631f7l" width="300%" x="-1" y="-1"><feGaussianBlur result="blurOut" stdDeviation="1.5"/><feColorMatrix in="blurOut" result="blurOut2" type="matrix" values="0 0 0 0 0 0 0 0 0 0 0 0 0 0 0 0 0 0 .4 0"/><feOffset dx="3.0" dy="3.0" in="blurOut2" result="blurOut3"/><feBlend in="SourceGraphic" in2="blurOut3" mode="normal"/></filter></defs><g><!--class Deployment--><rect fill="#FEFECE" filter="url(#f1gfj8ee631f7l)" height="69.2637" id="Deployment" style="stroke: #A80036; stroke-width: 1.125;" width="209.25" x="266.25" y="460.5"/><ellipse cx="339.9375" cy="474.7266" fill="#DA70D6" rx="8.25" ry="8.25" style="stroke: #A80036; stroke-width: 0.75;"/><path d="M340.8398,474.832 Q341.1094,474.8906 341.3145,475.0957 Q341.5195,475.3008 341.8125,475.8867 L343.4883,479.2266 L341.4727,479.2266 L340.3477,476.8828 Q340.3008,476.7773 340.2188,476.6016 Q339.7266,475.5586 339.0586,475.5586 L338.4727,475.5586 L338.4727,479.2266 L336.6445,479.2266 L336.6445,469.9336 L339.293,469.9336 Q341.0859,469.9336 341.8652,470.5664 Q342.6445,471.1992 342.6445,472.6289 Q342.6445,473.5898 342.1816,474.1582 Q341.7188,474.7266 340.8398,474.832 Z M338.4727,471.4805 L338.4727,474.0117 L339.3398,474.0117 Q340.1016,474.0117 340.4238,473.7129 Q340.7461,473.4141 340.7461,472.7344 Q340.7461,472.0664 340.4238,471.7734 Q340.1016,471.4805 339.3398,471.4805 L338.4727,471.4805 Z "/><text fill="#000000" font-family="sans-serif" font-size="9" font-style="italic" lengthAdjust="spacingAndGlyphs" textLength="54" x="356.0625" y="472.604">«Resource»</text><text fill="#000000" font-family="sans-serif" font-size="9" lengthAdjust="spacingAndGlyphs" textLength="55.5" x="355.3125" y="483.0806">Deployment</text><line style="stroke: #A80036; stroke-width: 1.125;" x1="267" x2="474.75" y1="488.9531" y2="488.9531"/><ellipse cx="274.5" cy="497.8799" fill="none" rx="2.25" ry="2.25" style="stroke: #038048; stroke-width: 0.75;"/><text fill="#000000" font-family="sans-serif" font-size="8.25" lengthAdjust="spacingAndGlyphs" textLength="74.25" x="281.25" y="499.611">network: Network</text><ellipse cx="274.5" cy="507.4834" fill="none" rx="2.25" ry="2.25" style="stroke: #038048; stroke-width: 0.75;"/><text fill="#000000" font-family="sans-serif" font-size="8.25" lengthAdjust="spacingAndGlyphs" textLength="189.75" x="281.25" y="509.2145">contractInstances: Array&lt;ContractInstance&gt;</text><line style="stroke: #A80036; stroke-width: 0.75; stroke-dasharray: 1.0,2.0;" x1="267" x2="474.75" y1="514.1602" y2="514.1602"/><rect fill="none" height="4.5" style="stroke: #C82930; stroke-width: 0.75;" width="4.5" x="272.25" y="520.8369"/><path d="M285.7813,519.2012 C284.8325,519.2012 284.0625,519.9712 284.0625,520.9199 C284.0625,521.0299 284.0852,521.1241 284.1058,521.221 L282,523.3269 L282,524.7019 L284.0625,524.7019 L284.0625,523.3269 L285.4375,523.3269 L285.4375,522.6394 L285.4808,522.596 C285.5771,522.6167 285.6713,522.6394 285.7819,522.6394 C286.7307,522.6394 287.5007,521.8694 287.5007,520.9206 C287.5007,519.9719 286.7307,519.2019 285.7819,519.2019 M286.1257,519.8894 C286.5038,519.8894 286.8132,520.1987 286.8132,520.5769 C286.8132,520.955 286.5038,521.2644 286.1257,521.2644 C285.7476,521.2644 285.4382,520.955 285.4382,520.5769 C285.4382,520.1987 285.7476,519.8894 286.1257,519.8894 " fill="#000000" style="stroke: ; stroke-width: 0.0; stroke-dasharray: ;"/><text fill="#000000" font-family="sans-serif" font-size="8.25" lengthAdjust="spacingAndGlyphs" textLength="37.5" x="291.25" y="524.818">id: ID = [</text><text fill="#000000" font-family="sans-serif" font-size="8.25" font-style="italic" lengthAdjust="spacingAndGlyphs" textLength="69" x="328.75" y="524.818">to be completed</text><path d="M403.6271,519.2012 C403.5859,519.2012 403.5549,519.2314 403.5412,519.2658 L401.5213,523.9497 L401.5,524.079 L401.5,524.6379 C401.5,524.6792 401.5234,524.7025 401.5646,524.7025 L406.2486,524.7025 C406.2898,524.7025 406.3132,524.6792 406.3132,524.6379 L406.3132,524.079 L406.2919,523.9497 L404.272,519.2658 C404.2583,519.2314 404.2273,519.2012 404.1861,519.2012 L403.6271,519.2012 M403.5625,521.2637 L404.25,521.2637 L404.25,522.6387 L403.5625,522.6387 L403.5625,521.2637 M403.5625,523.3262 L404.25,523.3262 L404.25,524.0137 L403.5625,524.0137 L403.5625,523.3262 " fill="#000000" style="stroke: ; stroke-width: 0.0; stroke-dasharray: ;"/><text fill="#000000" font-family="sans-serif" font-size="8.25" lengthAdjust="spacingAndGlyphs" textLength="3" x="407.75" y="524.818">]</text><!--class ContractInstance--><rect fill="#FEFECE" filter="url(#f1gfj8ee631f7l)" height="107.6777" id="ContractInstance" style="stroke: #A80036; stroke-width: 1.125;" width="211.5" x="279.9375" y="199.5"/><ellipse cx="342" cy="213.7266" fill="#DA70D6" rx="8.25" ry="8.25" style="stroke: #A80036; stroke-width: 0.75;"/><path d="M342.9023,213.832 Q343.1719,213.8906 343.377,214.0957 Q343.582,214.3008 343.875,214.8867 L345.5508,218.2266 L343.5352,218.2266 L342.4102,215.8828 Q342.3633,215.7773 342.2813,215.6016 Q341.7891,214.5586 341.1211,214.5586 L340.5352,214.5586 L340.5352,218.2266 L338.707,218.2266 L338.707,208.9336 L341.3555,208.9336 Q343.1484,208.9336 343.9277,209.5664 Q344.707,210.1992 344.707,211.6289 Q344.707,212.5898 344.2441,213.1582 Q343.7813,213.7266 342.9023,213.832 Z M340.5352,210.4805 L340.5352,213.0117 L341.4023,213.0117 Q342.1641,213.0117 342.4863,212.7129 Q342.8086,212.4141 342.8086,211.7344 Q342.8086,211.0664 342.4863,210.7734 Q342.1641,210.4805 341.4023,210.4805 L340.5352,210.4805 Z "/><text fill="#000000" font-family="sans-serif" font-size="9" font-style="italic" lengthAdjust="spacingAndGlyphs" textLength="54" x="370.875" y="211.604">«Resource»</text><text fill="#000000" font-family="sans-serif" font-size="9" lengthAdjust="spacingAndGlyphs" textLength="81" x="357.375" y="222.0806">ContractInstance</text><line style="stroke: #A80036; stroke-width: 1.125;" x1="280.6875" x2="490.6875" y1="227.9531" y2="227.9531"/><ellipse cx="288.1875" cy="236.8799" fill="none" rx="2.25" ry="2.25" style="stroke: #038048; stroke-width: 0.75;"/><text fill="#000000" font-family="sans-serif" font-size="8.25" lengthAdjust="spacingAndGlyphs" textLength="79.5" x="294.9375" y="238.611">address : Address</text><ellipse cx="288.1875" cy="246.4834" fill="none" rx="2.25" ry="2.25" style="stroke: #038048; stroke-width: 0.75;"/><text fill="#000000" font-family="sans-serif" font-size="8.25" lengthAdjust="spacingAndGlyphs" textLength="77.25" x="294.9375" y="248.2145">network : Network</text><ellipse cx="288.1875" cy="256.0869" fill="none" rx="2.25" ry="2.25" style="stroke: #038048; stroke-width: 0.75;"/><text fill="#000000" font-family="sans-serif" font-size="8.25" lengthAdjust="spacingAndGlyphs" textLength="192" x="294.9375" y="257.818">creation : Maybe&lt;ContractInstanceCreation&gt;</text><ellipse cx="288.1875" cy="265.6904" fill="none" rx="2.25" ry="2.25" style="stroke: #038048; stroke-width: 0.75;"/><text fill="#000000" font-family="sans-serif" font-size="8.25" lengthAdjust="spacingAndGlyphs" textLength="128.25" x="294.9375" y="267.4215">callBytecode : LinkedBytecode</text><ellipse cx="288.1875" cy="275.2939" fill="#84BE84" rx="2.25" ry="2.25" style="stroke: #038048; stroke-width: 0.75;"/><text fill="#000000" font-family="sans-serif" font-size="8.25" lengthAdjust="spacingAndGlyphs" textLength="120" x="294.9375" y="277.025">contract : Maybe&lt;Contract&gt;</text><line style="stroke: #A80036; stroke-width: 0.75; stroke-dasharray: 1.0,2.0;" x1="280.6875" x2="490.6875" y1="281.9707" y2="281.9707"/><rect fill="none" height="4.5" style="stroke: #C82930; stroke-width: 0.75;" width="4.5" x="285.9375" y="288.6475"/><path d="M299.4688,287.0117 C298.52,287.0117 297.75,287.7817 297.75,288.7305 C297.75,288.8405 297.7727,288.9347 297.7933,289.0316 L295.6875,291.1374 L295.6875,292.5124 L297.75,292.5124 L297.75,291.1374 L299.125,291.1374 L299.125,290.4499 L299.1683,290.4066 C299.2646,290.4272 299.3588,290.4499 299.4694,290.4499 C300.4182,290.4499 301.1882,289.6799 301.1882,288.7312 C301.1882,287.7824 300.4182,287.0124 299.4694,287.0124 M299.8132,287.6999 C300.1913,287.6999 300.5007,288.0093 300.5007,288.3874 C300.5007,288.7655 300.1913,289.0749 299.8132,289.0749 C299.4351,289.0749 299.1257,288.7655 299.1257,288.3874 C299.1257,288.0093 299.4351,287.6999 299.8132,287.6999 " fill="#000000" style="stroke: ; stroke-width: 0.0; stroke-dasharray: ;"/><text fill="#000000" font-family="sans-serif" font-size="8.25" lengthAdjust="spacingAndGlyphs" textLength="37.5" x="304.9375" y="292.6285">id: ID = [</text><text fill="#000000" font-family="sans-serif" font-size="8.25" font-style="italic" lengthAdjust="spacingAndGlyphs" textLength="69" x="342.4375" y="292.6285">to be completed</text><path d="M417.3146,287.0117 C417.2734,287.0117 417.2424,287.042 417.2287,287.0763 L415.2088,291.7603 L415.1875,291.8895 L415.1875,292.4485 C415.1875,292.4897 415.2109,292.5131 415.2521,292.5131 L419.9361,292.5131 C419.9773,292.5131 420.0007,292.4897 420.0007,292.4485 L420.0007,291.8895 L419.9794,291.7603 L417.9595,287.0763 C417.9458,287.042 417.9148,287.0117 417.8736,287.0117 L417.3146,287.0117 M417.25,289.0742 L417.9375,289.0742 L417.9375,290.4492 L417.25,290.4492 L417.25,289.0742 M417.25,291.1367 L417.9375,291.1367 L417.9375,291.8242 L417.25,291.8242 L417.25,291.1367 " fill="#000000" style="stroke: ; stroke-width: 0.0; stroke-dasharray: ;"/><text fill="#000000" font-family="sans-serif" font-size="8.25" lengthAdjust="spacingAndGlyphs" textLength="3" x="421.4375" y="292.6285">]</text><rect fill="none" height="4.5" style="stroke: #C82930; stroke-width: 0.75;" width="4.5" x="285.9375" y="298.251"/><text fill="#000000" font-family="sans-serif" font-size="8.25" lengthAdjust="spacingAndGlyphs" textLength="56.25" x="294.9375" y="302.2321">contractId: ID</text><!--class ContractInstanceCreation--><rect fill="#FEFECE" filter="url(#f1gfj8ee631f7l)" height="78.8672" id="ContractInstanceCreation" style="stroke: #A80036; stroke-width: 1.125;" width="196.5" x="367.6875" y="16.125"/><ellipse cx="402.375" cy="30.3516" fill="#7CFC00" rx="8.25" ry="8.25" style="stroke: #A80036; stroke-width: 0.75;"/><path d="M402.457,27.0352 Q401.7539,27.0352 401.4316,27.7852 Q401.1094,28.5352 401.1094,30.2109 Q401.1094,31.8867 401.4316,32.6367 Q401.7539,33.3867 402.457,33.3867 Q403.1719,33.3867 403.4941,32.6367 Q403.8164,31.8867 403.8164,30.2109 Q403.8164,28.5352 403.4941,27.7852 Q403.1719,27.0352 402.457,27.0352 Z M399.1992,30.2109 Q399.1992,27.832 400.0254,26.6074 Q400.8516,25.3828 402.457,25.3828 Q404.0742,25.3828 404.9004,26.6074 Q405.7266,27.832 405.7266,30.2109 Q405.7266,32.5898 404.9004,33.8086 Q404.0742,35.0273 402.457,35.0273 Q400.8516,35.0273 400.0254,33.8086 Q399.1992,32.5898 399.1992,30.2109 Z "/><text fill="#000000" font-family="sans-serif" font-size="9" font-style="italic" lengthAdjust="spacingAndGlyphs" textLength="65.25" x="445.5" y="28.229">«Data Object»</text><text fill="#000000" font-family="sans-serif" font-size="9" lengthAdjust="spacingAndGlyphs" textLength="120.75" x="417.75" y="38.7056">ContractInstanceCreation</text><line style="stroke: #A80036; stroke-width: 1.125;" x1="368.4375" x2="563.4375" y1="44.5781" y2="44.5781"/><ellipse cx="375.9375" cy="53.5049" fill="none" rx="2.25" ry="2.25" style="stroke: #038048; stroke-width: 0.75;"/><text fill="#000000" font-family="sans-serif" font-size="8.25" lengthAdjust="spacingAndGlyphs" textLength="147.75" x="382.6875" y="55.236">transactionHash: TransactionHash</text><ellipse cx="375.9375" cy="63.1084" fill="none" rx="2.25" ry="2.25" style="stroke: #038048; stroke-width: 0.75;"/><text fill="#000000" font-family="sans-serif" font-size="8.25" lengthAdjust="spacingAndGlyphs" textLength="133.5" x="382.6875" y="64.8395">constructorArgs: Array&lt;Value&gt;</text><ellipse cx="375.9375" cy="72.7119" fill="#84BE84" rx="2.25" ry="2.25" style="stroke: #038048; stroke-width: 0.75;"/><text fill="#000000" font-family="sans-serif" font-size="8.25" lengthAdjust="spacingAndGlyphs" textLength="177" x="382.6875" y="74.443">contractConstructor: ContractConstructor</text><line style="stroke: #A80036; stroke-width: 0.75; stroke-dasharray: 1.0,2.0;" x1="368.4375" x2="563.4375" y1="79.3887" y2="79.3887"/><rect fill="none" height="4.5" style="stroke: #C82930; stroke-width: 0.75;" width="4.5" x="373.6875" y="86.0654"/><text fill="#000000" font-family="sans-serif" font-size="8.25" lengthAdjust="spacingAndGlyphs" textLength="106.5" x="382.6875" y="90.0465">contractConstructorId: ID</text><!--class Network--><rect fill="#FEFECE" filter="url(#f1gfj8ee631f7l)" height="98.0742" id="Network" style="stroke: #A80036; stroke-width: 1.125;" width="149" x="124.5" y="6.375"/><ellipse cx="170.3125" cy="20.6016" fill="#DA70D6" rx="8.25" ry="8.25" style="stroke: #A80036; stroke-width: 0.75;"/><path d="M171.2148,20.707 Q171.4844,20.7656 171.6895,20.9707 Q171.8945,21.1758 172.1875,21.7617 L173.8633,25.1016 L171.8477,25.1016 L170.7227,22.7578 Q170.6758,22.6523 170.5938,22.4766 Q170.1016,21.4336 169.4336,21.4336 L168.8477,21.4336 L168.8477,25.1016 L167.0195,25.1016 L167.0195,15.8086 L169.668,15.8086 Q171.4609,15.8086 172.2402,16.4414 Q173.0195,17.0742 173.0195,18.5039 Q173.0195,19.4648 172.5566,20.0332 Q172.0938,20.6016 171.2148,20.707 Z M168.8477,17.3555 L168.8477,19.8867 L169.7148,19.8867 Q170.4766,19.8867 170.7988,19.5879 Q171.1211,19.2891 171.1211,18.6094 Q171.1211,17.9414 170.7988,17.6484 Q170.4766,17.3555 169.7148,17.3555 L168.8477,17.3555 Z "/><text fill="#000000" font-family="sans-serif" font-size="9" font-style="italic" lengthAdjust="spacingAndGlyphs" textLength="54" x="184.1875" y="18.479">«Resource»</text><text fill="#000000" font-family="sans-serif" font-size="9" lengthAdjust="spacingAndGlyphs" textLength="38.25" x="192.0625" y="28.9556">Network</text><line style="stroke: #A80036; stroke-width: 1.125;" x1="125.25" x2="272.75" y1="34.8281" y2="34.8281"/><ellipse cx="132.75" cy="43.7549" fill="none" rx="2.25" ry="2.25" style="stroke: #038048; stroke-width: 0.75;"/><text fill="#000000" font-family="sans-serif" font-size="8.25" lengthAdjust="spacingAndGlyphs" textLength="58.5" x="139.5" y="45.486">name : String</text><ellipse cx="132.75" cy="53.3584" fill="none" rx="2.25" ry="2.25" style="stroke: #038048; stroke-width: 0.75;"/><text fill="#000000" font-family="sans-serif" font-size="8.25" lengthAdjust="spacingAndGlyphs" textLength="93" x="139.5" y="55.0895">networkId : NetworkID</text><ellipse cx="132.75" cy="62.9619" fill="none" rx="2.25" ry="2.25" style="stroke: #038048; stroke-width: 0.75;"/><text fill="#000000" font-family="sans-serif" font-size="8.25" lengthAdjust="spacingAndGlyphs" textLength="82.5" x="139.5" y="64.693">historicBlock: Block</text><ellipse cx="132.75" cy="72.5654" fill="#84BE84" rx="2.25" ry="2.25" style="stroke: #038048; stroke-width: 0.75;"/><text fill="#000000" font-family="sans-serif" font-size="8.25" lengthAdjust="spacingAndGlyphs" textLength="97.5" x="139.5" y="74.2965">fork: Maybe&lt;Network&gt;</text><line style="stroke: #A80036; stroke-width: 0.75; stroke-dasharray: 1.0,2.0;" x1="125.25" x2="272.75" y1="79.2422" y2="79.2422"/><rect fill="none" height="4.5" style="stroke: #C82930; stroke-width: 0.75;" width="4.5" x="130.5" y="85.9189"/><path d="M144.0313,84.2832 C143.0825,84.2832 142.3125,85.0532 142.3125,86.002 C142.3125,86.112 142.3352,86.2061 142.3558,86.3031 L140.25,88.4089 L140.25,89.7839 L142.3125,89.7839 L142.3125,88.4089 L143.6875,88.4089 L143.6875,87.7214 L143.7308,87.6781 C143.8271,87.6987 143.9213,87.7214 144.0319,87.7214 C144.9807,87.7214 145.7507,86.9514 145.7507,86.0026 C145.7507,85.0539 144.9807,84.2839 144.0319,84.2839 M144.3757,84.9714 C144.7538,84.9714 145.0632,85.2808 145.0632,85.6589 C145.0632,86.037 144.7538,86.3464 144.3757,86.3464 C143.9976,86.3464 143.6882,86.037 143.6882,85.6589 C143.6882,85.2808 143.9976,84.9714 144.3757,84.9714 " fill="#000000" style="stroke: ; stroke-width: 0.0; stroke-dasharray: ;"/><text fill="#000000" font-family="sans-serif" font-size="8.25" lengthAdjust="spacingAndGlyphs" textLength="37.5" x="149.5" y="89.9">id: ID = [</text><text fill="#000000" font-family="sans-serif" font-size="8.25" font-style="italic" lengthAdjust="spacingAndGlyphs" textLength="69" x="187" y="89.9">to be completed</text><path d="M261.8771,84.2832 C261.8359,84.2832 261.8049,84.3135 261.7912,84.3478 L259.7713,89.0318 L259.75,89.161 L259.75,89.72 C259.75,89.7612 259.7734,89.7846 259.8146,89.7846 L264.4986,89.7846 C264.5398,89.7846 264.5632,89.7612 264.5632,89.72 L264.5632,89.161 L264.5419,89.0318 L262.522,84.3478 C262.5083,84.3135 262.4773,84.2832 262.4361,84.2832 L261.8771,84.2832 M261.8125,86.3457 L262.5,86.3457 L262.5,87.7207 L261.8125,87.7207 L261.8125,86.3457 M261.8125,88.4082 L262.5,88.4082 L262.5,89.0957 L261.8125,89.0957 L261.8125,88.4082 " fill="#000000" style="stroke: ; stroke-width: 0.0; stroke-dasharray: ;"/><text fill="#000000" font-family="sans-serif" font-size="8.25" lengthAdjust="spacingAndGlyphs" textLength="3" x="266" y="89.9">]</text><rect fill="none" height="4.5" style="stroke: #C82930; stroke-width: 0.75;" width="4.5" x="130.5" y="95.5225"/><text fill="#000000" font-family="sans-serif" font-size="8.25" lengthAdjust="spacingAndGlyphs" textLength="78.75" x="139.5" y="99.5035">forkId: Maybe&lt;ID&gt;</text><!--class Block--><rect fill="#FEFECE" filter="url(#f1gfj8ee631f7l)" height="59.6602" id="Block" style="stroke: #A80036; stroke-width: 1.125;" width="93.75" x="4.5" y="25.5"/><ellipse cx="19.125" cy="39.7266" fill="#7CFC00" rx="8.25" ry="8.25" style="stroke: #A80036; stroke-width: 0.75;"/><path d="M19.207,36.4102 Q18.5039,36.4102 18.1816,37.1602 Q17.8594,37.9102 17.8594,39.5859 Q17.8594,41.2617 18.1816,42.0117 Q18.5039,42.7617 19.207,42.7617 Q19.9219,42.7617 20.2441,42.0117 Q20.5664,41.2617 20.5664,39.5859 Q20.5664,37.9102 20.2441,37.1602 Q19.9219,36.4102 19.207,36.4102 Z M15.9492,39.5859 Q15.9492,37.207 16.7754,35.9824 Q17.6016,34.7578 19.207,34.7578 Q20.8242,34.7578 21.6504,35.9824 Q22.4766,37.207 22.4766,39.5859 Q22.4766,41.9648 21.6504,43.1836 Q20.8242,44.4023 19.207,44.4023 Q17.6016,44.4023 16.7754,43.1836 Q15.9492,41.9648 15.9492,39.5859 Z "/><text fill="#000000" font-family="sans-serif" font-size="9" font-style="italic" lengthAdjust="spacingAndGlyphs" textLength="65.25" x="28.875" y="37.604">«Data Object»</text><text fill="#000000" font-family="sans-serif" font-size="9" lengthAdjust="spacingAndGlyphs" textLength="24.75" x="49.125" y="48.0806">Block</text><line style="stroke: #A80036; stroke-width: 1.125;" x1="5.25" x2="97.5" y1="53.9531" y2="53.9531"/><ellipse cx="12.75" cy="62.8799" fill="none" rx="2.25" ry="2.25" style="stroke: #038048; stroke-width: 0.75;"/><text fill="#000000" font-family="sans-serif" font-size="8.25" lengthAdjust="spacingAndGlyphs" textLength="65.25" x="19.5" y="64.611">height : Integer</text><ellipse cx="12.75" cy="72.4834" fill="none" rx="2.25" ry="2.25" style="stroke: #038048; stroke-width: 0.75;"/><text fill="#000000" font-family="sans-serif" font-size="8.25" lengthAdjust="spacingAndGlyphs" textLength="74.25" x="19.5" y="74.2145">hash : BlockHash</text><line style="stroke: #A80036; stroke-width: 1.125;" x1="5.25" x2="97.5" y1="79.1602" y2="79.1602"/><!--class LinkedBytecode--><rect fill="#FEFECE" filter="url(#f1gfj8ee631f7l)" height="59.6602" id="LinkedBytecode" style="stroke: #A80036; stroke-width: 1.125;" width="138.75" x="464.25" y="354"/><ellipse cx="494.0625" cy="368.2266" fill="#7CFC00" rx="8.25" ry="8.25" style="stroke: #A80036; stroke-width: 0.75;"/><path d="M494.1445,364.9102 Q493.4414,364.9102 493.1191,365.6602 Q492.7969,366.4102 492.7969,368.0859 Q492.7969,369.7617 493.1191,370.5117 Q493.4414,371.2617 494.1445,371.2617 Q494.8594,371.2617 495.1816,370.5117 Q495.5039,369.7617 495.5039,368.0859 Q495.5039,366.4102 495.1816,365.6602 Q494.8594,364.9102 494.1445,364.9102 Z M490.8867,368.0859 Q490.8867,365.707 491.7129,364.4824 Q492.5391,363.2578 494.1445,363.2578 Q495.7617,363.2578 496.5879,364.4824 Q497.4141,365.707 497.4141,368.0859 Q497.4141,370.4648 496.5879,371.6836 Q495.7617,372.9023 494.1445,372.9023 Q492.5391,372.9023 491.7129,371.6836 Q490.8867,370.4648 490.8867,368.0859 Z "/><text fill="#000000" font-family="sans-serif" font-size="9" font-style="italic" lengthAdjust="spacingAndGlyphs" textLength="65.25" x="512.8125" y="366.104">«Data Object»</text><text fill="#000000" font-family="sans-serif" font-size="9" lengthAdjust="spacingAndGlyphs" textLength="73.5" x="508.6875" y="376.5806">LinkedBytecode</text><line style="stroke: #A80036; stroke-width: 1.125;" x1="465" x2="602.25" y1="382.4531" y2="382.4531"/><ellipse cx="472.5" cy="391.3799" fill="none" rx="2.25" ry="2.25" style="stroke: #038048; stroke-width: 0.75;"/><text fill="#000000" font-family="sans-serif" font-size="8.25" lengthAdjust="spacingAndGlyphs" textLength="86.25" x="479.25" y="393.111">bytecode : Bytecode</text><ellipse cx="472.5" cy="400.9834" fill="none" rx="2.25" ry="2.25" style="stroke: #038048; stroke-width: 0.75;"/><text fill="#000000" font-family="sans-serif" font-size="8.25" lengthAdjust="spacingAndGlyphs" textLength="119.25" x="479.25" y="402.7145">linkValues : Set&lt;LinkValue&gt;</text><line style="stroke: #A80036; stroke-width: 1.125;" x1="465" x2="602.25" y1="407.6602" y2="407.6602"/><!--class LinkValue--><rect fill="#FEFECE" filter="url(#f1gfj8ee631f7l)" height="69.2637" id="LinkValue" style="stroke: #A80036; stroke-width: 1.125;" width="172" x="501.75" y="460.5"/><ellipse cx="553.4375" cy="474.7266" fill="#7CFC00" rx="8.25" ry="8.25" style="stroke: #A80036; stroke-width: 0.75;"/><path d="M553.5195,471.4102 Q552.8164,471.4102 552.4941,472.1602 Q552.1719,472.9102 552.1719,474.5859 Q552.1719,476.2617 552.4941,477.0117 Q552.8164,477.7617 553.5195,477.7617 Q554.2344,477.7617 554.5566,477.0117 Q554.8789,476.2617 554.8789,474.5859 Q554.8789,472.9102 554.5566,472.1602 Q554.2344,471.4102 553.5195,471.4102 Z M550.2617,474.5859 Q550.2617,472.207 551.0879,470.9824 Q551.9141,469.7578 553.5195,469.7578 Q555.1367,469.7578 555.9629,470.9824 Q556.7891,472.207 556.7891,474.5859 Q556.7891,476.9648 555.9629,478.1836 Q555.1367,479.4023 553.5195,479.4023 Q551.9141,479.4023 551.0879,478.1836 Q550.2617,476.9648 550.2617,474.5859 Z "/><text fill="#000000" font-family="sans-serif" font-size="9" font-style="italic" lengthAdjust="spacingAndGlyphs" textLength="65.25" x="567.3125" y="472.604">«Data Object»</text><text fill="#000000" font-family="sans-serif" font-size="9" lengthAdjust="spacingAndGlyphs" textLength="44.25" x="577.8125" y="483.0806">LinkValue</text><line style="stroke: #A80036; stroke-width: 1.125;" x1="502.5" x2="673" y1="488.9531" y2="488.9531"/><ellipse cx="510" cy="497.8799" fill="none" rx="2.25" ry="2.25" style="stroke: #038048; stroke-width: 0.75;"/><text fill="#000000" font-family="sans-serif" font-size="8.25" lengthAdjust="spacingAndGlyphs" textLength="52.5" x="516.75" y="499.611">value: Bytes</text><ellipse cx="510" cy="507.4834" fill="#84BE84" rx="2.25" ry="2.25" style="stroke: #038048; stroke-width: 0.75;"/><text fill="#000000" font-family="sans-serif" font-size="8.25" lengthAdjust="spacingAndGlyphs" textLength="122.25" x="516.75" y="509.2145">linkReference: LinkReference</text><line style="stroke: #A80036; stroke-width: 0.75; stroke-dasharray: 1.0,2.0;" x1="502.5" x2="673" y1="514.1602" y2="514.1602"/><rect fill="none" height="4.5" style="stroke: #C82930; stroke-width: 0.75;" width="4.5" x="507.75" y="520.8369"/><text fill="#000000" font-family="sans-serif" font-size="8.25" lengthAdjust="spacingAndGlyphs" textLength="70.5" x="516.75" y="524.818">_linkReference: [</text><text fill="#000000" font-family="sans-serif" font-size="8.25" font-style="italic" lengthAdjust="spacingAndGlyphs" textLength="69" x="587.25" y="524.818">to be completed</text><path d="M662.1271,519.2012 C662.0859,519.2012 662.0549,519.2314 662.0412,519.2658 L660.0213,523.9497 L660,524.079 L660,524.6379 C660,524.6792 660.0234,524.7025 660.0646,524.7025 L664.7486,524.7025 C664.7898,524.7025 664.8132,524.6792 664.8132,524.6379 L664.8132,524.079 L664.7919,523.9497 L662.772,519.2658 C662.7583,519.2314 662.7273,519.2012 662.6861,519.2012 L662.1271,519.2012 M662.0625,521.2637 L662.75,521.2637 L662.75,522.6387 L662.0625,522.6387 L662.0625,521.2637 M662.0625,523.3262 L662.75,523.3262 L662.75,524.0137 L662.0625,524.0137 L662.0625,523.3262 " fill="#000000" style="stroke: ; stroke-width: 0.0; stroke-dasharray: ;"/><text fill="#000000" font-family="sans-serif" font-size="8.25" lengthAdjust="spacingAndGlyphs" textLength="3" x="666.25" y="524.818">]</text><!--class LinkReference--><rect fill="#FEFECE" filter="url(#f1gfj8ee631f7l)" height="69.2637" id="LinkReference" style="stroke: #A80036; stroke-width: 1.125;" width="136.5" x="519.1875" y="672"/><ellipse cx="551.3625" cy="686.2266" fill="#7CFC00" rx="8.25" ry="8.25" style="stroke: #A80036; stroke-width: 0.75;"/><path d="M551.4445,682.9102 Q550.7414,682.9102 550.4191,683.6602 Q550.0969,684.4102 550.0969,686.0859 Q550.0969,687.7617 550.4191,688.5117 Q550.7414,689.2617 551.4445,689.2617 Q552.1594,689.2617 552.4816,688.5117 Q552.8039,687.7617 552.8039,686.0859 Q552.8039,684.4102 552.4816,683.6602 Q552.1594,682.9102 551.4445,682.9102 Z M548.1867,686.0859 Q548.1867,683.707 549.0129,682.4824 Q549.8391,681.2578 551.4445,681.2578 Q553.0617,681.2578 553.8879,682.4824 Q554.7141,683.707 554.7141,686.0859 Q554.7141,688.4648 553.8879,689.6836 Q553.0617,690.9023 551.4445,690.9023 Q549.8391,690.9023 549.0129,689.6836 Q548.1867,688.4648 548.1867,686.0859 Z "/><text fill="#000000" font-family="sans-serif" font-size="9" font-style="italic" lengthAdjust="spacingAndGlyphs" textLength="65.25" x="566.8875" y="684.104">«Data Object»</text><text fill="#000000" font-family="sans-serif" font-size="9" lengthAdjust="spacingAndGlyphs" textLength="66" x="566.5125" y="694.5806">LinkReference</text><line style="stroke: #A80036; stroke-width: 1.125;" x1="519.9375" x2="654.9375" y1="700.4531" y2="700.4531"/><ellipse cx="527.4375" cy="709.3799" fill="none" rx="2.25" ry="2.25" style="stroke: #038048; stroke-width: 0.75;"/><text fill="#000000" font-family="sans-serif" font-size="8.25" lengthAdjust="spacingAndGlyphs" textLength="117" x="534.1875" y="711.111">offsets: Array&lt;ByteOffset&gt;</text><ellipse cx="527.4375" cy="718.9834" fill="none" rx="2.25" ry="2.25" style="stroke: #038048; stroke-width: 0.75;"/><text fill="#000000" font-family="sans-serif" font-size="8.25" lengthAdjust="spacingAndGlyphs" textLength="96" x="534.1875" y="720.7145">name: Maybe&lt;String&gt;</text><ellipse cx="527.4375" cy="728.5869" fill="none" rx="2.25" ry="2.25" style="stroke: #038048; stroke-width: 0.75;"/><text fill="#000000" font-family="sans-serif" font-size="8.25" lengthAdjust="spacingAndGlyphs" textLength="62.25" x="534.1875" y="730.318">length: Integer</text><line style="stroke: #A80036; stroke-width: 1.125;" x1="519.9375" x2="654.9375" y1="735.2637" y2="735.2637"/><!--link ContractInstance to Deployment--><path d="M382.3583,307.5135 C379.6688,350.544 375.9308,410.361 373.416,450.5955 " fill="none" id="ContractInstance-Deployment" style="stroke: #A80036; stroke-width: 0.75;"/><polygon fill="#FFFFFF" points="372.804,460.3808,376.0785,456.0764,373.3647,451.3982,370.0902,455.7026,372.804,460.3808" style="stroke: #A80036; stroke-width: 0.75;"/><text fill="#000000" font-family="sans-serif" font-size="9.75" lengthAdjust="spacingAndGlyphs" textLength="18" x="362.3616" y="322.2681">1..n</text><!--link ContractInstanceCreation to ContractInstance--><path d="M450.0825,95.0723 C439.0238,122.1502 424.0252,158.8763 411.2858,190.071 " fill="none" id="ContractInstanceCreation-ContractInstance" style="stroke: #A80036; stroke-width: 0.75;"/><polygon fill="#A80036" points="407.5845,199.1325,412.063,196.1004,410.9866,190.8003,406.5082,193.8324,407.5845,199.1325" style="stroke: #A80036; stroke-width: 0.75;"/><text fill="#000000" font-family="sans-serif" font-size="9.75" lengthAdjust="spacingAndGlyphs" textLength="18" x="428.0519" y="109.9122">0..1</text><!--link Network to Network--><path d="M283.302,43.9898 C293.0798,46.1182 299.4375,49.9552 299.4375,55.5 C299.4375,62.742 288.5918,67.0703 273.4455,68.4847 " fill="none" id="Network-Network" style="stroke: #A80036; stroke-width: 0.75;"/><polygon fill="#FFFFFF" points="273.4455,42.5153,277.4519,46.1483,282.3464,43.8474,278.34,40.2144,273.4455,42.5153" style="stroke: #A80036; stroke-width: 0.75;"/><text fill="#000000" font-family="sans-serif" font-size="9.75" lengthAdjust="spacingAndGlyphs" textLength="44.25" x="303.9375" y="58.5502">«refines»</text><text fill="#000000" font-family="sans-serif" font-size="9.75" lengthAdjust="spacingAndGlyphs" textLength="18" x="279.5735" y="66.0304">0..1</text><!--link Block to Network--><path d="M97.9365,55.5 C103.4438,55.5 108.951,55.5 114.4575,55.5 " fill="none" id="Block-Network" style="stroke: #A80036; stroke-width: 0.75;"/><polygon fill="#A80036" points="124.3703,55.5,119.8703,52.5,115.3703,55.5,119.8703,58.5,124.3703,55.5" style="stroke: #A80036; stroke-width: 0.75;"/><text fill="#000000" font-family="sans-serif" font-size="9.75" lengthAdjust="spacingAndGlyphs" textLength="6" x="104.2866" y="51.7615">1</text><!--link LinkedBytecode to LinkValue--><path d="M552.3503,423.1005 C558.336,435.2385 564.906,448.5615 570.7268,460.3642 " fill="none" id="LinkedBytecode-LinkValue" style="stroke: #A80036; stroke-width: 0.75;"/><polygon fill="#A80036" points="547.9087,414.0938,547.2087,419.4566,551.8897,422.1654,552.5898,416.8026,547.9087,414.0938" style="stroke: #A80036; stroke-width: 0.75;"/><text fill="#000000" font-family="sans-serif" font-size="9.75" lengthAdjust="spacingAndGlyphs" textLength="6" x="561.3152" y="452.1494">n</text><!--link LinkValue to LinkReference--><path d="M587.4375,529.7235 C587.4375,567.5445 587.4375,628.5113 587.4375,667.8505 " fill="none" id="LinkValue-LinkReference" style="stroke: #A80036; stroke-width: 0.75; stroke-dasharray: 7.0,7.0;"/><polygon fill="#A80036" points="587.4375,671.8253,590.4375,665.0753,587.4375,668.0753,584.4375,665.0753,587.4375,671.8253" style="stroke: #A80036; stroke-width: 0.75;"/><text fill="#000000" font-family="sans-serif" font-size="9.75" lengthAdjust="spacingAndGlyphs" textLength="6" x="580.207" y="663.6054">1</text><!--link Network to ContractInstance--><path d="M245.1008,104.823 C270.0863,131.1135 301.1933,163.8442 327.7898,191.829 " fill="none" id="Network-ContractInstance" style="stroke: #A80036; stroke-width: 0.75;"/><polygon fill="#FFFFFF" points="334.8038,199.2098,333.8782,193.8812,328.6035,192.6861,329.5291,198.0147,334.8038,199.2098" style="stroke: #A80036; stroke-width: 0.75;"/><text fill="#000000" font-family="sans-serif" font-size="9.75" lengthAdjust="spacingAndGlyphs" textLength="6" x="242.7182" y="119.5539">1</text><!--link ContractInstance to LinkedBytecode--><path d="M454.3208,314.1735 C470.1217,327.969 486.2438,342.045 499.7768,353.8605 " fill="none" id="ContractInstance-LinkedBytecode" style="stroke: #A80036; stroke-width: 0.75;"/><polygon fill="#A80036" points="446.8493,307.6508,448.266,312.8702,453.6289,313.5699,452.2121,308.3505,446.8493,307.6508" style="stroke: #A80036; stroke-width: 0.75;"/><text fill="#000000" font-family="sans-serif" font-size="9.75" lengthAdjust="spacingAndGlyphs" textLength="6" x="487.7395" y="345.8067">1</text><!--
@startuml
scale 0.75


skinparam defaultMonospacedFontName Andale Mono






  class Deployment << (R,orchid) Resource >> {
    + network: Network
    + contractInstances: Array<ContractInstance>
    ..
    - {field} <&key> id: ID = [//to be completed <&warning>//]
  }

  ContractInstance "1..n" - - -o Deployment


  class ContractInstance << (R,orchid) Resource >> {
    + address : Address
    + network : Network
    + creation : Maybe<ContractInstanceCreation>
    + callBytecode : LinkedBytecode
    + {method} contract : Maybe<Contract>
    ..
    - {field} <&key> id: ID = [//to be completed <&warning>//]
    - contractId: ID
  }

  ContractInstanceCreation "0..1" - - -* ContractInstance









    class Network << (R,orchid) Resource >> {
      + name : String
      + networkId : NetworkID
      + historicBlock: Block
      + {method} fork: Maybe<Network>
      ..
      - {field} <&key> id: ID = [//to be completed <&warning>//]
      - forkId: Maybe<ID>
    }


      class Block << (O,lawngreen) Data Object >> {
        + height : Integer
        + hash : BlockHash
      }

      Network o- - "0..1" Network : <<refines>>
      Network *-left- "1" Block






    class LinkedBytecode << (O,lawngreen) Data Object >> {
      + bytecode : Bytecode
      + linkValues : Set<LinkValue>
    }


    class ContractInstanceCreation << (O,lawngreen) Data Object >> {
      + transactionHash: TransactionHash
      + constructorArgs: Array<Value>
      + {method} contractConstructor: ContractConstructor
      ..
      - contractConstructorId: ID
    }

    class LinkValue << (O,lawngreen) Data Object >> {
      + value: Bytes
      + {method} linkReference: LinkReference
      ..
      - _linkReference: [//to be completed <&warning>//]
    }

    class LinkReference << (O,lawngreen) Data Object >> {
      + offsets: Array<ByteOffset>
      + name: Maybe<String>
      + length: Integer
    }













  LinkedBytecode *- - "n" LinkValue


  LinkValue ....> "1" LinkReference



  Network "1" - - -o ContractInstance


  ContractInstance *- - "1" LinkedBytecode











@enduml

PlantUML version 1.2018.14(Fri Dec 21 16:33:16 UTC 2018)
(GPL source distribution)
Java Runtime: Java(TM) SE Runtime Environment
JVM: Java HotSpot(TM) 64-Bit Server VM
Java Version: 1.8.0_151-b12
Operating System: Linux
OS Version: 4.4.0-101-generic
Default Encoding: UTF-8
Language: en
Country: US
--></g></svg>