<?xml version="1.0" encoding="UTF-8" standalone="no"?><svg xmlns="http://www.w3.org/2000/svg" xmlns:xlink="http://www.w3.org/1999/xlink" contentScriptType="application/ecmascript" contentStyleType="text/css" height="959px" preserveAspectRatio="none" style="width:560px;height:959px;" version="1.1" viewBox="0 0 560 959" width="560px" zoomAndPan="magnify"><defs><filter height="300%" id="fyhio67ao6poh" width="300%" x="-1" y="-1"><feGaussianBlur result="blurOut" stdDeviation="2.0"/><feColorMatrix in="blurOut" result="blurOut2" type="matrix" values="0 0 0 0 0 0 0 0 0 0 0 0 0 0 0 0 0 0 .4 0"/><feOffset dx="4.0" dy="4.0" in="blurOut2" result="blurOut3"/><feBlend in="SourceGraphic" in2="blurOut3" mode="normal"/></filter></defs><g><!--class Deployment--><rect fill="#FEFECE" filter="url(#fyhio67ao6poh)" height="92.3516" id="Deployment" style="stroke: #A80036; stroke-width: 1.5;" width="279" x="6" y="580"/><ellipse cx="104.25" cy="598.9688" fill="#DA70D6" rx="11" ry="11" style="stroke: #A80036; stroke-width: 1.0;"/><path d="M105.4531,599.1094 Q105.8125,599.1875 106.0859,599.4609 Q106.3594,599.7344 106.75,600.5156 L108.9844,604.9688 L106.2969,604.9688 L104.7969,601.8438 Q104.7344,601.7031 104.625,601.4688 Q103.9688,600.0781 103.0781,600.0781 L102.2969,600.0781 L102.2969,604.9688 L99.8594,604.9688 L99.8594,592.5781 L103.3906,592.5781 Q105.7813,592.5781 106.8203,593.4219 Q107.8594,594.2656 107.8594,596.1719 Q107.8594,597.4531 107.2422,598.2109 Q106.625,598.9688 105.4531,599.1094 Z M102.2969,594.6406 L102.2969,598.0156 L103.4531,598.0156 Q104.4688,598.0156 104.8984,597.6172 Q105.3281,597.2188 105.3281,596.3125 Q105.3281,595.4219 104.8984,595.0313 Q104.4688,594.6406 103.4531,594.6406 L102.2969,594.6406 Z "/><text fill="#000000" font-family="sans-serif" font-size="12" font-style="italic" lengthAdjust="spacingAndGlyphs" textLength="72" x="125.75" y="596.1387">«Resource»</text><text fill="#000000" font-family="sans-serif" font-size="12" lengthAdjust="spacingAndGlyphs" textLength="74" x="124.75" y="610.1074">Deployment</text><line style="stroke: #A80036; stroke-width: 1.5;" x1="7" x2="284" y1="617.9375" y2="617.9375"/><ellipse cx="17" cy="629.8398" fill="none" rx="3" ry="3" style="stroke: #038048; stroke-width: 1.0;"/><text fill="#000000" font-family="sans-serif" font-size="11" lengthAdjust="spacingAndGlyphs" textLength="99" x="26" y="632.1479">network: Network</text><ellipse cx="17" cy="642.6445" fill="none" rx="3" ry="3" style="stroke: #038048; stroke-width: 1.0;"/><text fill="#000000" font-family="sans-serif" font-size="11" lengthAdjust="spacingAndGlyphs" textLength="253" x="26" y="644.9526">contractInstances: Array&lt;ContractInstance&gt;</text><line style="stroke: #A80036; stroke-width: 1.0; stroke-dasharray: 1.0,2.0;" x1="7" x2="284" y1="651.5469" y2="651.5469"/><rect fill="none" height="6" style="stroke: #C82930; stroke-width: 1.0;" width="6" x="14" y="660.4492"/><path d="M32.0417,658.2682 C30.7767,658.2682 29.75,659.2949 29.75,660.5599 C29.75,660.7066 29.7803,660.8321 29.8078,660.9614 L27,663.7691 L27,665.6025 L29.75,665.6025 L29.75,663.7691 L31.5833,663.7691 L31.5833,662.8525 L31.6411,662.7947 C31.7694,662.8222 31.895,662.8525 32.0426,662.8525 C33.3076,662.8525 34.3343,661.8258 34.3343,660.5608 C34.3343,659.2958 33.3076,658.2691 32.0426,658.2691 M32.5009,659.1858 C33.0051,659.1858 33.4176,659.5983 33.4176,660.1025 C33.4176,660.6066 33.0051,661.0191 32.5009,661.0191 C31.9968,661.0191 31.5843,660.6066 31.5843,660.1025 C31.5843,659.5983 31.9968,659.1858 32.5009,659.1858 " fill="#000000" style="stroke: ; stroke-width: 0.0; stroke-dasharray: ;"/><text fill="#000000" font-family="sans-serif" font-size="11" lengthAdjust="spacingAndGlyphs" textLength="50" x="39.3333" y="665.7573">id: ID = [</text><text fill="#000000" font-family="sans-serif" font-size="11" font-style="italic" lengthAdjust="spacingAndGlyphs" textLength="92" x="89.3333" y="665.7573">to be completed</text><path d="M189.1695,658.2682 C189.1145,658.2682 189.0732,658.3086 189.0549,658.3544 L186.3617,664.5996 L186.3333,664.772 L186.3333,665.5172 C186.3333,665.5722 186.3645,665.6034 186.4195,665.6034 L192.6647,665.6034 C192.7197,665.6034 192.7509,665.5722 192.7509,665.5172 L192.7509,664.772 L192.7225,664.5996 L190.0293,658.3544 C190.011,658.3086 189.9697,658.2682 189.9147,658.2682 L189.1695,658.2682 M189.0833,661.0182 L190,661.0182 L190,662.8516 L189.0833,662.8516 L189.0833,661.0182 M189.0833,663.7682 L190,663.7682 L190,664.6849 L189.0833,664.6849 L189.0833,663.7682 " fill="#000000" style="stroke: ; stroke-width: 0.0; stroke-dasharray: ;"/><text fill="#000000" font-family="sans-serif" font-size="11" lengthAdjust="spacingAndGlyphs" textLength="4" x="194.6667" y="665.7573">]</text><!--class ContractInstance--><rect fill="#FEFECE" filter="url(#fyhio67ao6poh)" height="143.5703" id="ContractInstance" style="stroke: #A80036; stroke-width: 1.5;" width="282" x="77.25" y="236"/><ellipse cx="160" cy="254.9688" fill="#DA70D6" rx="11" ry="11" style="stroke: #A80036; stroke-width: 1.0;"/><path d="M161.2031,255.1094 Q161.5625,255.1875 161.8359,255.4609 Q162.1094,255.7344 162.5,256.5156 L164.7344,260.9688 L162.0469,260.9688 L160.5469,257.8438 Q160.4844,257.7031 160.375,257.4688 Q159.7188,256.0781 158.8281,256.0781 L158.0469,256.0781 L158.0469,260.9688 L155.6094,260.9688 L155.6094,248.5781 L159.1406,248.5781 Q161.5313,248.5781 162.5703,249.4219 Q163.6094,250.2656 163.6094,252.1719 Q163.6094,253.4531 162.9922,254.2109 Q162.375,254.9688 161.2031,255.1094 Z M158.0469,250.6406 L158.0469,254.0156 L159.2031,254.0156 Q160.2188,254.0156 160.6484,253.6172 Q161.0781,253.2188 161.0781,252.3125 Q161.0781,251.4219 160.6484,251.0313 Q160.2188,250.6406 159.2031,250.6406 L158.0469,250.6406 Z "/><text fill="#000000" font-family="sans-serif" font-size="12" font-style="italic" lengthAdjust="spacingAndGlyphs" textLength="72" x="198.5" y="252.1387">«Resource»</text><text fill="#000000" font-family="sans-serif" font-size="12" lengthAdjust="spacingAndGlyphs" textLength="108" x="180.5" y="266.1074">ContractInstance</text><line style="stroke: #A80036; stroke-width: 1.5;" x1="78.25" x2="358.25" y1="273.9375" y2="273.9375"/><ellipse cx="88.25" cy="285.8398" fill="none" rx="3" ry="3" style="stroke: #038048; stroke-width: 1.0;"/><text fill="#000000" font-family="sans-serif" font-size="11" lengthAdjust="spacingAndGlyphs" textLength="106" x="97.25" y="288.1479">address : Address</text><ellipse cx="88.25" cy="298.6445" fill="none" rx="3" ry="3" style="stroke: #038048; stroke-width: 1.0;"/><text fill="#000000" font-family="sans-serif" font-size="11" lengthAdjust="spacingAndGlyphs" textLength="103" x="97.25" y="300.9526">network : Network</text><ellipse cx="88.25" cy="311.4492" fill="none" rx="3" ry="3" style="stroke: #038048; stroke-width: 1.0;"/><text fill="#000000" font-family="sans-serif" font-size="11" lengthAdjust="spacingAndGlyphs" textLength="256" x="97.25" y="313.7573">creation : Maybe&lt;ContractInstanceCreation&gt;</text><ellipse cx="88.25" cy="324.2539" fill="none" rx="3" ry="3" style="stroke: #038048; stroke-width: 1.0;"/><text fill="#000000" font-family="sans-serif" font-size="11" lengthAdjust="spacingAndGlyphs" textLength="171" x="97.25" y="326.562">callBytecode : LinkedBytecode</text><ellipse cx="88.25" cy="337.0586" fill="#84BE84" rx="3" ry="3" style="stroke: #038048; stroke-width: 1.0;"/><text fill="#000000" font-family="sans-serif" font-size="11" lengthAdjust="spacingAndGlyphs" textLength="160" x="97.25" y="339.3667">contract : Maybe&lt;Contract&gt;</text><line style="stroke: #A80036; stroke-width: 1.0; stroke-dasharray: 1.0,2.0;" x1="78.25" x2="358.25" y1="345.9609" y2="345.9609"/><rect fill="none" height="6" style="stroke: #C82930; stroke-width: 1.0;" width="6" x="85.25" y="354.8633"/><path d="M103.2917,352.6823 C102.0267,352.6823 101,353.709 101,354.974 C101,355.1206 101.0303,355.2462 101.0578,355.3755 L98.25,358.1832 L98.25,360.0165 L101,360.0165 L101,358.1832 L102.8333,358.1832 L102.8333,357.2665 L102.8911,357.2088 C103.0194,357.2363 103.145,357.2665 103.2926,357.2665 C104.5576,357.2665 105.5843,356.2399 105.5843,354.9749 C105.5843,353.7099 104.5576,352.6832 103.2926,352.6832 M103.7509,353.5999 C104.2551,353.5999 104.6676,354.0124 104.6676,354.5165 C104.6676,355.0207 104.2551,355.4332 103.7509,355.4332 C103.2468,355.4332 102.8343,355.0207 102.8343,354.5165 C102.8343,354.0124 103.2468,353.5999 103.7509,353.5999 " fill="#000000" style="stroke: ; stroke-width: 0.0; stroke-dasharray: ;"/><text fill="#000000" font-family="sans-serif" font-size="11" lengthAdjust="spacingAndGlyphs" textLength="50" x="110.5833" y="360.1714">id: ID = [</text><text fill="#000000" font-family="sans-serif" font-size="11" font-style="italic" lengthAdjust="spacingAndGlyphs" textLength="92" x="160.5833" y="360.1714">to be completed</text><path d="M260.4195,352.6823 C260.3645,352.6823 260.3233,352.7226 260.3049,352.7685 L257.6118,359.0137 L257.5833,359.186 L257.5833,359.9313 C257.5833,359.9863 257.6145,360.0175 257.6695,360.0175 L263.9147,360.0175 C263.9698,360.0175 264.0009,359.9863 264.0009,359.9313 L264.0009,359.186 L263.9725,359.0137 L261.2793,352.7685 C261.261,352.7226 261.2198,352.6823 261.1647,352.6823 L260.4195,352.6823 M260.3333,355.4323 L261.25,355.4323 L261.25,357.2656 L260.3333,357.2656 L260.3333,355.4323 M260.3333,358.1823 L261.25,358.1823 L261.25,359.099 L260.3333,359.099 L260.3333,358.1823 " fill="#000000" style="stroke: ; stroke-width: 0.0; stroke-dasharray: ;"/><text fill="#000000" font-family="sans-serif" font-size="11" lengthAdjust="spacingAndGlyphs" textLength="4" x="265.9167" y="360.1714">]</text><rect fill="none" height="6" style="stroke: #C82930; stroke-width: 1.0;" width="6" x="85.25" y="367.668"/><text fill="#000000" font-family="sans-serif" font-size="11" lengthAdjust="spacingAndGlyphs" textLength="75" x="97.25" y="372.9761">contractId: ID</text><!--class ContractInstanceCreation--><rect fill="#FEFECE" filter="url(#fyhio67ao6poh)" height="105.1563" id="ContractInstanceCreation" style="stroke: #A80036; stroke-width: 1.5;" width="262" x="87.25" y="8.5"/><ellipse cx="133.5" cy="27.4688" fill="#7CFC00" rx="11" ry="11" style="stroke: #A80036; stroke-width: 1.0;"/><path d="M133.6094,23.0469 Q132.6719,23.0469 132.2422,24.0469 Q131.8125,25.0469 131.8125,27.2813 Q131.8125,29.5156 132.2422,30.5156 Q132.6719,31.5156 133.6094,31.5156 Q134.5625,31.5156 134.9922,30.5156 Q135.4219,29.5156 135.4219,27.2813 Q135.4219,25.0469 134.9922,24.0469 Q134.5625,23.0469 133.6094,23.0469 Z M129.2656,27.2813 Q129.2656,24.1094 130.3672,22.4766 Q131.4688,20.8438 133.6094,20.8438 Q135.7656,20.8438 136.8672,22.4766 Q137.9688,24.1094 137.9688,27.2813 Q137.9688,30.4531 136.8672,32.0781 Q135.7656,33.7031 133.6094,33.7031 Q131.4688,33.7031 130.3672,32.0781 Q129.2656,30.4531 129.2656,27.2813 Z "/><text fill="#000000" font-family="sans-serif" font-size="12" font-style="italic" lengthAdjust="spacingAndGlyphs" textLength="87" x="191" y="24.6387">«Data Object»</text><text fill="#000000" font-family="sans-serif" font-size="12" lengthAdjust="spacingAndGlyphs" textLength="161" x="154" y="38.6074">ContractInstanceCreation</text><line style="stroke: #A80036; stroke-width: 1.5;" x1="88.25" x2="348.25" y1="46.4375" y2="46.4375"/><ellipse cx="98.25" cy="58.3398" fill="none" rx="3" ry="3" style="stroke: #038048; stroke-width: 1.0;"/><text fill="#000000" font-family="sans-serif" font-size="11" lengthAdjust="spacingAndGlyphs" textLength="197" x="107.25" y="60.6479">transactionHash: TransactionHash</text><ellipse cx="98.25" cy="71.1445" fill="none" rx="3" ry="3" style="stroke: #038048; stroke-width: 1.0;"/><text fill="#000000" font-family="sans-serif" font-size="11" lengthAdjust="spacingAndGlyphs" textLength="178" x="107.25" y="73.4526">constructorArgs: Array&lt;Value&gt;</text><ellipse cx="98.25" cy="83.9492" fill="#84BE84" rx="3" ry="3" style="stroke: #038048; stroke-width: 1.0;"/><text fill="#000000" font-family="sans-serif" font-size="11" lengthAdjust="spacingAndGlyphs" textLength="236" x="107.25" y="86.2573">contractConstructor: ContractConstructor</text><line style="stroke: #A80036; stroke-width: 1.0; stroke-dasharray: 1.0,2.0;" x1="88.25" x2="348.25" y1="92.8516" y2="92.8516"/><rect fill="none" height="6" style="stroke: #C82930; stroke-width: 1.0;" width="6" x="95.25" y="101.7539"/><text fill="#000000" font-family="sans-serif" font-size="11" lengthAdjust="spacingAndGlyphs" textLength="142" x="107.25" y="107.062">contractConstructorId: ID</text><!--class LinkedBytecode--><rect fill="#FEFECE" filter="url(#fyhio67ao6poh)" height="79.5469" id="LinkedBytecode" style="stroke: #A80036; stroke-width: 1.5;" width="185" x="270" y="440"/><ellipse cx="309.75" cy="458.9688" fill="#7CFC00" rx="11" ry="11" style="stroke: #A80036; stroke-width: 1.0;"/><path d="M309.8594,454.5469 Q308.9219,454.5469 308.4922,455.5469 Q308.0625,456.5469 308.0625,458.7813 Q308.0625,461.0156 308.4922,462.0156 Q308.9219,463.0156 309.8594,463.0156 Q310.8125,463.0156 311.2422,462.0156 Q311.6719,461.0156 311.6719,458.7813 Q311.6719,456.5469 311.2422,455.5469 Q310.8125,454.5469 309.8594,454.5469 Z M305.5156,458.7813 Q305.5156,455.6094 306.6172,453.9766 Q307.7188,452.3438 309.8594,452.3438 Q312.0156,452.3438 313.1172,453.9766 Q314.2188,455.6094 314.2188,458.7813 Q314.2188,461.9531 313.1172,463.5781 Q312.0156,465.2031 309.8594,465.2031 Q307.7188,465.2031 306.6172,463.5781 Q305.5156,461.9531 305.5156,458.7813 Z "/><text fill="#000000" font-family="sans-serif" font-size="12" font-style="italic" lengthAdjust="spacingAndGlyphs" textLength="87" x="334.75" y="456.1387">«Data Object»</text><text fill="#000000" font-family="sans-serif" font-size="12" lengthAdjust="spacingAndGlyphs" textLength="98" x="329.25" y="470.1074">LinkedBytecode</text><line style="stroke: #A80036; stroke-width: 1.5;" x1="271" x2="454" y1="477.9375" y2="477.9375"/><ellipse cx="281" cy="489.8398" fill="none" rx="3" ry="3" style="stroke: #038048; stroke-width: 1.0;"/><text fill="#000000" font-family="sans-serif" font-size="11" lengthAdjust="spacingAndGlyphs" textLength="115" x="290" y="492.1479">bytecode : Bytecode</text><ellipse cx="281" cy="502.6445" fill="none" rx="3" ry="3" style="stroke: #038048; stroke-width: 1.0;"/><text fill="#000000" font-family="sans-serif" font-size="11" lengthAdjust="spacingAndGlyphs" textLength="159" x="290" y="504.9526">linkValues : Set&lt;LinkValue&gt;</text><line style="stroke: #A80036; stroke-width: 1.5;" x1="271" x2="454" y1="511.5469" y2="511.5469"/><!--class LinkValue--><rect fill="#FEFECE" filter="url(#fyhio67ao6poh)" height="92.3516" id="LinkValue" style="stroke: #A80036; stroke-width: 1.5;" width="229.3333" x="320" y="580"/><ellipse cx="388.9167" cy="598.9688" fill="#7CFC00" rx="11" ry="11" style="stroke: #A80036; stroke-width: 1.0;"/><path d="M389.026,594.5469 Q388.0885,594.5469 387.6589,595.5469 Q387.2292,596.5469 387.2292,598.7813 Q387.2292,601.0156 387.6589,602.0156 Q388.0885,603.0156 389.026,603.0156 Q389.9792,603.0156 390.4089,602.0156 Q390.8385,601.0156 390.8385,598.7813 Q390.8385,596.5469 390.4089,595.5469 Q389.9792,594.5469 389.026,594.5469 Z M384.6823,598.7813 Q384.6823,595.6094 385.7839,593.9766 Q386.8854,592.3438 389.026,592.3438 Q391.1823,592.3438 392.2839,593.9766 Q393.3854,595.6094 393.3854,598.7813 Q393.3854,601.9531 392.2839,603.5781 Q391.1823,605.2031 389.026,605.2031 Q386.8854,605.2031 385.7839,603.5781 Q384.6823,601.9531 384.6823,598.7813 Z "/><text fill="#000000" font-family="sans-serif" font-size="12" font-style="italic" lengthAdjust="spacingAndGlyphs" textLength="87" x="407.4167" y="596.1387">«Data Object»</text><text fill="#000000" font-family="sans-serif" font-size="12" lengthAdjust="spacingAndGlyphs" textLength="59" x="421.4167" y="610.1074">LinkValue</text><line style="stroke: #A80036; stroke-width: 1.5;" x1="321" x2="548.3333" y1="617.9375" y2="617.9375"/><ellipse cx="331" cy="629.8398" fill="none" rx="3" ry="3" style="stroke: #038048; stroke-width: 1.0;"/><text fill="#000000" font-family="sans-serif" font-size="11" lengthAdjust="spacingAndGlyphs" textLength="70" x="340" y="632.1479">value: Bytes</text><ellipse cx="331" cy="642.6445" fill="#84BE84" rx="3" ry="3" style="stroke: #038048; stroke-width: 1.0;"/><text fill="#000000" font-family="sans-serif" font-size="11" lengthAdjust="spacingAndGlyphs" textLength="163" x="340" y="644.9526">linkReference: LinkReference</text><line style="stroke: #A80036; stroke-width: 1.0; stroke-dasharray: 1.0,2.0;" x1="321" x2="548.3333" y1="651.5469" y2="651.5469"/><rect fill="none" height="6" style="stroke: #C82930; stroke-width: 1.0;" width="6" x="328" y="660.4492"/><text fill="#000000" font-family="sans-serif" font-size="11" lengthAdjust="spacingAndGlyphs" textLength="94" x="340" y="665.7573">_linkReference: [</text><text fill="#000000" font-family="sans-serif" font-size="11" font-style="italic" lengthAdjust="spacingAndGlyphs" textLength="92" x="434" y="665.7573">to be completed</text><path d="M533.8362,658.2682 C533.7812,658.2682 533.7399,658.3086 533.7216,658.3544 L531.0284,664.5996 L531,664.772 L531,665.5172 C531,665.5722 531.0312,665.6034 531.0862,665.6034 L537.3314,665.6034 C537.3864,665.6034 537.4176,665.5722 537.4176,665.5172 L537.4176,664.772 L537.3892,664.5996 L534.696,658.3544 C534.6777,658.3086 534.6364,658.2682 534.5814,658.2682 L533.8362,658.2682 M533.75,661.0182 L534.6667,661.0182 L534.6667,662.8516 L533.75,662.8516 L533.75,661.0182 M533.75,663.7682 L534.6667,663.7682 L534.6667,664.6849 L533.75,664.6849 L533.75,663.7682 " fill="#000000" style="stroke: ; stroke-width: 0.0; stroke-dasharray: ;"/><text fill="#000000" font-family="sans-serif" font-size="11" lengthAdjust="spacingAndGlyphs" textLength="4" x="539.3333" y="665.7573">]</text><!--class LinkReference--><rect fill="#FEFECE" filter="url(#fyhio67ao6poh)" height="92.3516" id="LinkReference" style="stroke: #A80036; stroke-width: 1.5;" width="182" x="343.25" y="856"/><ellipse cx="386.15" cy="874.9688" fill="#7CFC00" rx="11" ry="11" style="stroke: #A80036; stroke-width: 1.0;"/><path d="M386.2594,870.5469 Q385.3219,870.5469 384.8922,871.5469 Q384.4625,872.5469 384.4625,874.7813 Q384.4625,877.0156 384.8922,878.0156 Q385.3219,879.0156 386.2594,879.0156 Q387.2125,879.0156 387.6422,878.0156 Q388.0719,877.0156 388.0719,874.7813 Q388.0719,872.5469 387.6422,871.5469 Q387.2125,870.5469 386.2594,870.5469 Z M381.9156,874.7813 Q381.9156,871.6094 383.0172,869.9766 Q384.1188,868.3438 386.2594,868.3438 Q388.4156,868.3438 389.5172,869.9766 Q390.6188,871.6094 390.6188,874.7813 Q390.6188,877.9531 389.5172,879.5781 Q388.4156,881.2031 386.2594,881.2031 Q384.1188,881.2031 383.0172,879.5781 Q381.9156,877.9531 381.9156,874.7813 Z "/><text fill="#000000" font-family="sans-serif" font-size="12" font-style="italic" lengthAdjust="spacingAndGlyphs" textLength="87" x="406.85" y="872.1387">«Data Object»</text><text fill="#000000" font-family="sans-serif" font-size="12" lengthAdjust="spacingAndGlyphs" textLength="88" x="406.35" y="886.1074">LinkReference</text><line style="stroke: #A80036; stroke-width: 1.5;" x1="344.25" x2="524.25" y1="893.9375" y2="893.9375"/><ellipse cx="354.25" cy="905.8398" fill="none" rx="3" ry="3" style="stroke: #038048; stroke-width: 1.0;"/><text fill="#000000" font-family="sans-serif" font-size="11" lengthAdjust="spacingAndGlyphs" textLength="156" x="363.25" y="908.1479">offsets: Array&lt;ByteOffset&gt;</text><ellipse cx="354.25" cy="918.6445" fill="none" rx="3" ry="3" style="stroke: #038048; stroke-width: 1.0;"/><text fill="#000000" font-family="sans-serif" font-size="11" lengthAdjust="spacingAndGlyphs" textLength="128" x="363.25" y="920.9526">name: Maybe&lt;String&gt;</text><ellipse cx="354.25" cy="931.4492" fill="none" rx="3" ry="3" style="stroke: #038048; stroke-width: 1.0;"/><text fill="#000000" font-family="sans-serif" font-size="11" lengthAdjust="spacingAndGlyphs" textLength="83" x="363.25" y="933.7573">length: Integer</text><line style="stroke: #A80036; stroke-width: 1.5;" x1="344.25" x2="524.25" y1="940.3516" y2="940.3516"/><!--class Named--><rect fill="#FEFECE" filter="url(#fyhio67ao6poh)" height="79.5469" id="Named" style="stroke: #A80036; stroke-width: 1.5;" width="146" x="384.25" y="21"/><ellipse cx="420.4" cy="39.9688" fill="#8A2BE2" rx="11" ry="11" style="stroke: #A80036; stroke-width: 1.0;"/><path d="M416.3219,35.7344 L416.3219,33.5781 L423.7125,33.5781 L423.7125,35.7344 L421.2438,35.7344 L421.2438,43.8125 L423.7125,43.8125 L423.7125,45.9688 L416.3219,45.9688 L416.3219,43.8125 L418.7906,43.8125 L418.7906,35.7344 L416.3219,35.7344 Z "/><text fill="#000000" font-family="sans-serif" font-size="12" font-style="italic" lengthAdjust="spacingAndGlyphs" textLength="71" x="437.1" y="37.1387">«Interface»</text><text fill="#000000" font-family="sans-serif" font-size="12" lengthAdjust="spacingAndGlyphs" textLength="44" x="450.6" y="51.1074">Named</text><line style="stroke: #A80036; stroke-width: 1.5;" x1="385.25" x2="529.25" y1="58.9375" y2="58.9375"/><ellipse cx="395.25" cy="70.8398" fill="none" rx="3" ry="3" style="stroke: #038048; stroke-width: 1.0;"/><text fill="#000000" font-family="sans-serif" font-size="11" lengthAdjust="spacingAndGlyphs" textLength="74" x="404.25" y="73.1479">name: String</text><ellipse cx="395.25" cy="83.6445" fill="none" rx="3" ry="3" style="stroke: #038048; stroke-width: 1.0;"/><text fill="#000000" font-family="sans-serif" font-size="11" lengthAdjust="spacingAndGlyphs" textLength="120" x="404.25" y="85.9526">role: Maybe&lt;Object&gt;</text><line style="stroke: #A80036; stroke-width: 1.5;" x1="385.25" x2="529.25" y1="92.5469" y2="92.5469"/><!--link ContractInstance to Deployment--><path d="M201.776,380.311 C188.751,436.695 170.797,514.413 158.645,567.015 " fill="none" id="ContractInstance-Deployment" style="stroke: #A80036; stroke-width: 1.0;"/><polygon fill="#FFFFFF" points="155.687,579.819,160.9347,574.8731,158.3875,568.1268,153.1399,573.0727,155.687,579.819" style="stroke: #A80036; stroke-width: 1.0;"/><text fill="#000000" font-family="sans-serif" font-size="13" lengthAdjust="spacingAndGlyphs" textLength="24" x="174.0589" y="399.7614">1..n</text><!--link ContractInstanceCreation to ContractInstance--><path d="M218.25,113.659 C218.25,145.293 218.25,186.53 218.25,222.79 " fill="none" id="ContractInstanceCreation-ContractInstance" style="stroke: #A80036; stroke-width: 1.0;"/><polygon fill="#A80036" points="218.25,235.897,222.25,229.897,218.25,223.897,214.25,229.897,218.25,235.897" style="stroke: #A80036; stroke-width: 1.0;"/><text fill="#000000" font-family="sans-serif" font-size="13" lengthAdjust="spacingAndGlyphs" textLength="24" x="191.5031" y="133.8082">0..1</text><!--link LinkedBytecode to LinkValue--><path d="M387.958,532.415 C395.704,547.909 404.145,564.79 411.672,579.845 " fill="none" id="LinkedBytecode-LinkValue" style="stroke: #A80036; stroke-width: 1.0;"/><polygon fill="#A80036" points="381.924,520.349,381.0296,527.5044,387.2906,531.0821,388.185,523.9267,381.924,520.349" style="stroke: #A80036; stroke-width: 1.0;"/><text fill="#000000" font-family="sans-serif" font-size="13" lengthAdjust="spacingAndGlyphs" textLength="8" x="399.0852" y="568.8952">n</text><!--link LinkValue to LinkReference--><path d="M434.25,672.246 C434.25,721.328 434.25,799.489 434.25,850.527 " fill="none" id="LinkValue-LinkReference" style="stroke: #A80036; stroke-width: 1.0; stroke-dasharray: 7.0,7.0;"/><polygon fill="#A80036" points="434.25,855.6873,438.25,846.6873,434.25,850.6873,430.25,846.6873,434.25,855.6873" style="stroke: #A80036; stroke-width: 1.0;"/><text fill="#000000" font-family="sans-serif" font-size="13" lengthAdjust="spacingAndGlyphs" textLength="8" x="424.6406" y="845.0602">1</text><!--link ContractInstance to LinkedBytecode--><path d="M287.038,390.208 C301.631,407.436 316.401,424.872 328.942,439.678 " fill="none" id="ContractInstance-LinkedBytecode" style="stroke: #A80036; stroke-width: 1.0;"/><polygon fill="#A80036" points="278.485,380.11,279.3109,387.2737,286.2412,389.2665,285.4153,382.1029,278.485,380.11" style="stroke: #A80036; stroke-width: 1.0;"/><text fill="#000000" font-family="sans-serif" font-size="13" lengthAdjust="spacingAndGlyphs" textLength="8" x="314.5198" y="428.9205">1</text><!--
@startuml
skinparam defaultMonospacedFontName Andale Mono






  class Deployment << (R,orchid) Resource >> {
    + network: Network
    + contractInstances: Array<ContractInstance>
    ..
    - {field} <&key> id: ID = [//to be completed <&warning>//]
  }

  ContractInstance "1..n" - - -o Deployment


  class ContractInstance << (R,orchid) Resource >> {
    + address : Address
    + network : Network
    + creation : Maybe<ContractInstanceCreation>
    + callBytecode : LinkedBytecode
    + {method} contract : Maybe<Contract>
    ..
    - {field} <&key> id: ID = [//to be completed <&warning>//]
    - contractId: ID
  }

  ContractInstanceCreation "0..1" - - -* ContractInstance















    class LinkedBytecode << (O,lawngreen) Data Object >> {
      + bytecode : Bytecode
      + linkValues : Set<LinkValue>
    }


    class ContractInstanceCreation << (O,lawngreen) Data Object >> {
      + transactionHash: TransactionHash
      + constructorArgs: Array<Value>
      + {method} contractConstructor: ContractConstructor
      ..
      - contractConstructorId: ID
    }

    class LinkValue << (O,lawngreen) Data Object >> {
      + value: Bytes
      + {method} linkReference: LinkReference
      ..
      - _linkReference: [//to be completed <&warning>//]
    }

    class LinkReference << (O,lawngreen) Data Object >> {
      + offsets: Array<ByteOffset>
      + name: Maybe<String>
      + length: Integer
    }













  LinkedBytecode *- - "n" LinkValue


  LinkValue ....> "1" LinkReference





  ContractInstance *- - "1" LinkedBytecode











class Named << (I,blueviolet) Interface >> {
  + name: String
  + role: Maybe<Object>
}

@enduml

PlantUML version 1.2018.14(Fri Dec 21 16:33:16 UTC 2018)
(GPL source distribution)
Java Runtime: Java(TM) SE Runtime Environment
JVM: Java HotSpot(TM) 64-Bit Server VM
Java Version: 1.8.0_151-b12
Operating System: Linux
OS Version: 4.4.0-101-generic
Default Encoding: UTF-8
Language: en
Country: US
--></g></svg>