<?xml version="1.0" encoding="UTF-8" standalone="no"?><svg xmlns="http://www.w3.org/2000/svg" xmlns:xlink="http://www.w3.org/1999/xlink" contentScriptType="application/ecmascript" contentStyleType="text/css" height="1173px" preserveAspectRatio="none" style="width:900px;height:1173px;" version="1.1" viewBox="0 0 900 1173" width="900px" zoomAndPan="magnify"><defs><filter height="300%" id="f1ho45jo3cz97k" width="300%" x="-1" y="-1"><feGaussianBlur result="blurOut" stdDeviation="2.0"/><feColorMatrix in="blurOut" result="blurOut2" type="matrix" values="0 0 0 0 0 0 0 0 0 0 0 0 0 0 0 0 0 0 .4 0"/><feOffset dx="4.0" dy="4.0" in="blurOut2" result="blurOut3"/><feBlend in="SourceGraphic" in2="blurOut3" mode="normal"/></filter></defs><g><!--class Deployment--><rect fill="#FEFECE" filter="url(#f1ho45jo3cz97k)" height="92.3516" id="Deployment" style="stroke: #A80036; stroke-width: 1.5;" width="279" x="346" y="788"/><ellipse cx="444.25" cy="806.9688" fill="#DA70D6" rx="11" ry="11" style="stroke: #A80036; stroke-width: 1.0;"/><path d="M445.4531,807.1094 Q445.8125,807.1875 446.0859,807.4609 Q446.3594,807.7344 446.75,808.5156 L448.9844,812.9688 L446.2969,812.9688 L444.7969,809.8438 Q444.7344,809.7031 444.625,809.4688 Q443.9688,808.0781 443.0781,808.0781 L442.2969,808.0781 L442.2969,812.9688 L439.8594,812.9688 L439.8594,800.5781 L443.3906,800.5781 Q445.7813,800.5781 446.8203,801.4219 Q447.8594,802.2656 447.8594,804.1719 Q447.8594,805.4531 447.2422,806.2109 Q446.625,806.9688 445.4531,807.1094 Z M442.2969,802.6406 L442.2969,806.0156 L443.4531,806.0156 Q444.4688,806.0156 444.8984,805.6172 Q445.3281,805.2188 445.3281,804.3125 Q445.3281,803.4219 444.8984,803.0313 Q444.4688,802.6406 443.4531,802.6406 L442.2969,802.6406 Z "/><text fill="#000000" font-family="sans-serif" font-size="12" font-style="italic" lengthAdjust="spacingAndGlyphs" textLength="72" x="465.75" y="804.1387">«Resource»</text><text fill="#000000" font-family="sans-serif" font-size="12" lengthAdjust="spacingAndGlyphs" textLength="74" x="464.75" y="818.1074">Deployment</text><line style="stroke: #A80036; stroke-width: 1.5;" x1="347" x2="624" y1="825.9375" y2="825.9375"/><ellipse cx="357" cy="837.8398" fill="none" rx="3" ry="3" style="stroke: #038048; stroke-width: 1.0;"/><text fill="#000000" font-family="sans-serif" font-size="11" lengthAdjust="spacingAndGlyphs" textLength="99" x="366" y="840.1479">network: Network</text><ellipse cx="357" cy="850.6445" fill="none" rx="3" ry="3" style="stroke: #038048; stroke-width: 1.0;"/><text fill="#000000" font-family="sans-serif" font-size="11" lengthAdjust="spacingAndGlyphs" textLength="253" x="366" y="852.9526">contractInstances: Array&lt;ContractInstance&gt;</text><line style="stroke: #A80036; stroke-width: 1.0; stroke-dasharray: 1.0,2.0;" x1="347" x2="624" y1="859.5469" y2="859.5469"/><rect fill="none" height="6" style="stroke: #C82930; stroke-width: 1.0;" width="6" x="354" y="868.4492"/><path d="M372.0417,866.2682 C370.7767,866.2682 369.75,867.2949 369.75,868.5599 C369.75,868.7066 369.7803,868.8321 369.8078,868.9614 L367,871.7691 L367,873.6025 L369.75,873.6025 L369.75,871.7691 L371.5833,871.7691 L371.5833,870.8525 L371.6411,870.7947 C371.7694,870.8222 371.895,870.8525 372.0426,870.8525 C373.3076,870.8525 374.3343,869.8258 374.3343,868.5608 C374.3343,867.2958 373.3076,866.2691 372.0426,866.2691 M372.5009,867.1858 C373.0051,867.1858 373.4176,867.5983 373.4176,868.1025 C373.4176,868.6066 373.0051,869.0191 372.5009,869.0191 C371.9968,869.0191 371.5843,868.6066 371.5843,868.1025 C371.5843,867.5983 371.9968,867.1858 372.5009,867.1858 " fill="#000000" style="stroke: ; stroke-width: 0.0; stroke-dasharray: ;"/><text fill="#000000" font-family="sans-serif" font-size="11" lengthAdjust="spacingAndGlyphs" textLength="50" x="379.3333" y="873.7573">id: ID = [</text><text fill="#000000" font-family="sans-serif" font-size="11" font-style="italic" lengthAdjust="spacingAndGlyphs" textLength="92" x="429.3333" y="873.7573">to be completed</text><path d="M529.1695,866.2682 C529.1145,866.2682 529.0732,866.3086 529.0549,866.3544 L526.3617,872.5996 L526.3333,872.772 L526.3333,873.5172 C526.3333,873.5722 526.3645,873.6034 526.4195,873.6034 L532.6647,873.6034 C532.7198,873.6034 532.7509,873.5722 532.7509,873.5172 L532.7509,872.772 L532.7225,872.5996 L530.0293,866.3544 C530.011,866.3086 529.9698,866.2682 529.9147,866.2682 L529.1695,866.2682 M529.0833,869.0182 L530,869.0182 L530,870.8516 L529.0833,870.8516 L529.0833,869.0182 M529.0833,871.7682 L530,871.7682 L530,872.6849 L529.0833,872.6849 L529.0833,871.7682 " fill="#000000" style="stroke: ; stroke-width: 0.0; stroke-dasharray: ;"/><text fill="#000000" font-family="sans-serif" font-size="11" lengthAdjust="spacingAndGlyphs" textLength="4" x="534.6667" y="873.7573">]</text><!--class ContractInstance--><rect fill="#FEFECE" filter="url(#f1ho45jo3cz97k)" height="143.5703" id="ContractInstance" style="stroke: #A80036; stroke-width: 1.5;" width="282" x="364.25" y="440"/><ellipse cx="447" cy="458.9688" fill="#DA70D6" rx="11" ry="11" style="stroke: #A80036; stroke-width: 1.0;"/><path d="M448.2031,459.1094 Q448.5625,459.1875 448.8359,459.4609 Q449.1094,459.7344 449.5,460.5156 L451.7344,464.9688 L449.0469,464.9688 L447.5469,461.8438 Q447.4844,461.7031 447.375,461.4688 Q446.7188,460.0781 445.8281,460.0781 L445.0469,460.0781 L445.0469,464.9688 L442.6094,464.9688 L442.6094,452.5781 L446.1406,452.5781 Q448.5313,452.5781 449.5703,453.4219 Q450.6094,454.2656 450.6094,456.1719 Q450.6094,457.4531 449.9922,458.2109 Q449.375,458.9688 448.2031,459.1094 Z M445.0469,454.6406 L445.0469,458.0156 L446.2031,458.0156 Q447.2188,458.0156 447.6484,457.6172 Q448.0781,457.2188 448.0781,456.3125 Q448.0781,455.4219 447.6484,455.0313 Q447.2188,454.6406 446.2031,454.6406 L445.0469,454.6406 Z "/><text fill="#000000" font-family="sans-serif" font-size="12" font-style="italic" lengthAdjust="spacingAndGlyphs" textLength="72" x="485.5" y="456.1387">«Resource»</text><text fill="#000000" font-family="sans-serif" font-size="12" lengthAdjust="spacingAndGlyphs" textLength="108" x="467.5" y="470.1074">ContractInstance</text><line style="stroke: #A80036; stroke-width: 1.5;" x1="365.25" x2="645.25" y1="477.9375" y2="477.9375"/><ellipse cx="375.25" cy="489.8398" fill="none" rx="3" ry="3" style="stroke: #038048; stroke-width: 1.0;"/><text fill="#000000" font-family="sans-serif" font-size="11" lengthAdjust="spacingAndGlyphs" textLength="106" x="384.25" y="492.1479">address : Address</text><ellipse cx="375.25" cy="502.6445" fill="none" rx="3" ry="3" style="stroke: #038048; stroke-width: 1.0;"/><text fill="#000000" font-family="sans-serif" font-size="11" lengthAdjust="spacingAndGlyphs" textLength="103" x="384.25" y="504.9526">network : Network</text><ellipse cx="375.25" cy="515.4492" fill="none" rx="3" ry="3" style="stroke: #038048; stroke-width: 1.0;"/><text fill="#000000" font-family="sans-serif" font-size="11" lengthAdjust="spacingAndGlyphs" textLength="256" x="384.25" y="517.7573">creation : Maybe&lt;ContractInstanceCreation&gt;</text><ellipse cx="375.25" cy="528.2539" fill="none" rx="3" ry="3" style="stroke: #038048; stroke-width: 1.0;"/><text fill="#000000" font-family="sans-serif" font-size="11" lengthAdjust="spacingAndGlyphs" textLength="171" x="384.25" y="530.562">callBytecode : LinkedBytecode</text><ellipse cx="375.25" cy="541.0586" fill="#84BE84" rx="3" ry="3" style="stroke: #038048; stroke-width: 1.0;"/><text fill="#000000" font-family="sans-serif" font-size="11" lengthAdjust="spacingAndGlyphs" textLength="160" x="384.25" y="543.3667">contract : Maybe&lt;Contract&gt;</text><line style="stroke: #A80036; stroke-width: 1.0; stroke-dasharray: 1.0,2.0;" x1="365.25" x2="645.25" y1="549.9609" y2="549.9609"/><rect fill="none" height="6" style="stroke: #C82930; stroke-width: 1.0;" width="6" x="372.25" y="558.8633"/><path d="M390.2917,556.6823 C389.0267,556.6823 388,557.709 388,558.974 C388,559.1206 388.0303,559.2462 388.0578,559.3755 L385.25,562.1832 L385.25,564.0165 L388,564.0165 L388,562.1832 L389.8333,562.1832 L389.8333,561.2665 L389.8911,561.2088 C390.0194,561.2363 390.145,561.2665 390.2926,561.2665 C391.5576,561.2665 392.5843,560.2399 392.5843,558.9749 C392.5843,557.7099 391.5576,556.6832 390.2926,556.6832 M390.7509,557.5999 C391.2551,557.5999 391.6676,558.0124 391.6676,558.5165 C391.6676,559.0207 391.2551,559.4332 390.7509,559.4332 C390.2468,559.4332 389.8343,559.0207 389.8343,558.5165 C389.8343,558.0124 390.2468,557.5999 390.7509,557.5999 " fill="#000000" style="stroke: ; stroke-width: 0.0; stroke-dasharray: ;"/><text fill="#000000" font-family="sans-serif" font-size="11" lengthAdjust="spacingAndGlyphs" textLength="50" x="397.5833" y="564.1714">id: ID = [</text><text fill="#000000" font-family="sans-serif" font-size="11" font-style="italic" lengthAdjust="spacingAndGlyphs" textLength="92" x="447.5833" y="564.1714">to be completed</text><path d="M547.4195,556.6823 C547.3645,556.6823 547.3232,556.7226 547.3049,556.7685 L544.6117,563.0137 L544.5833,563.186 L544.5833,563.9313 C544.5833,563.9863 544.6145,564.0175 544.6695,564.0175 L550.9147,564.0175 C550.9698,564.0175 551.0009,563.9863 551.0009,563.9313 L551.0009,563.186 L550.9725,563.0137 L548.2793,556.7685 C548.261,556.7226 548.2198,556.6823 548.1647,556.6823 L547.4195,556.6823 M547.3333,559.4323 L548.25,559.4323 L548.25,561.2656 L547.3333,561.2656 L547.3333,559.4323 M547.3333,562.1823 L548.25,562.1823 L548.25,563.099 L547.3333,563.099 L547.3333,562.1823 " fill="#000000" style="stroke: ; stroke-width: 0.0; stroke-dasharray: ;"/><text fill="#000000" font-family="sans-serif" font-size="11" lengthAdjust="spacingAndGlyphs" textLength="4" x="552.9167" y="564.1714">]</text><rect fill="none" height="6" style="stroke: #C82930; stroke-width: 1.0;" width="6" x="372.25" y="571.668"/><text fill="#000000" font-family="sans-serif" font-size="11" lengthAdjust="spacingAndGlyphs" textLength="75" x="384.25" y="576.9761">contractId: ID</text><!--class ContractInstanceCreation--><rect fill="#FEFECE" filter="url(#f1ho45jo3cz97k)" height="105.1563" id="ContractInstanceCreation" style="stroke: #A80036; stroke-width: 1.5;" width="262" x="374.25" y="63.5"/><ellipse cx="420.5" cy="82.4688" fill="#7CFC00" rx="11" ry="11" style="stroke: #A80036; stroke-width: 1.0;"/><path d="M420.6094,78.0469 Q419.6719,78.0469 419.2422,79.0469 Q418.8125,80.0469 418.8125,82.2813 Q418.8125,84.5156 419.2422,85.5156 Q419.6719,86.5156 420.6094,86.5156 Q421.5625,86.5156 421.9922,85.5156 Q422.4219,84.5156 422.4219,82.2813 Q422.4219,80.0469 421.9922,79.0469 Q421.5625,78.0469 420.6094,78.0469 Z M416.2656,82.2813 Q416.2656,79.1094 417.3672,77.4766 Q418.4688,75.8438 420.6094,75.8438 Q422.7656,75.8438 423.8672,77.4766 Q424.9688,79.1094 424.9688,82.2813 Q424.9688,85.4531 423.8672,87.0781 Q422.7656,88.7031 420.6094,88.7031 Q418.4688,88.7031 417.3672,87.0781 Q416.2656,85.4531 416.2656,82.2813 Z "/><text fill="#000000" font-family="sans-serif" font-size="12" font-style="italic" lengthAdjust="spacingAndGlyphs" textLength="87" x="478" y="79.6387">«Data Object»</text><text fill="#000000" font-family="sans-serif" font-size="12" lengthAdjust="spacingAndGlyphs" textLength="161" x="441" y="93.6074">ContractInstanceCreation</text><line style="stroke: #A80036; stroke-width: 1.5;" x1="375.25" x2="635.25" y1="101.4375" y2="101.4375"/><ellipse cx="385.25" cy="113.3398" fill="none" rx="3" ry="3" style="stroke: #038048; stroke-width: 1.0;"/><text fill="#000000" font-family="sans-serif" font-size="11" lengthAdjust="spacingAndGlyphs" textLength="197" x="394.25" y="115.6479">transactionHash: TransactionHash</text><ellipse cx="385.25" cy="126.1445" fill="none" rx="3" ry="3" style="stroke: #038048; stroke-width: 1.0;"/><text fill="#000000" font-family="sans-serif" font-size="11" lengthAdjust="spacingAndGlyphs" textLength="178" x="394.25" y="128.4526">constructorArgs: Array&lt;Value&gt;</text><ellipse cx="385.25" cy="138.9492" fill="#84BE84" rx="3" ry="3" style="stroke: #038048; stroke-width: 1.0;"/><text fill="#000000" font-family="sans-serif" font-size="11" lengthAdjust="spacingAndGlyphs" textLength="236" x="394.25" y="141.2573">contractConstructor: ContractConstructor</text><line style="stroke: #A80036; stroke-width: 1.0; stroke-dasharray: 1.0,2.0;" x1="375.25" x2="635.25" y1="147.8516" y2="147.8516"/><rect fill="none" height="6" style="stroke: #C82930; stroke-width: 1.0;" width="6" x="382.25" y="156.7539"/><text fill="#000000" font-family="sans-serif" font-size="11" lengthAdjust="spacingAndGlyphs" textLength="142" x="394.25" y="162.062">contractConstructorId: ID</text><!--class LinkedBytecode--><rect fill="#FEFECE" filter="url(#f1ho45jo3cz97k)" height="79.5469" id="LinkedBytecode" style="stroke: #A80036; stroke-width: 1.5;" width="185" x="610" y="646"/><ellipse cx="649.75" cy="664.9688" fill="#7CFC00" rx="11" ry="11" style="stroke: #A80036; stroke-width: 1.0;"/><path d="M649.8594,660.5469 Q648.9219,660.5469 648.4922,661.5469 Q648.0625,662.5469 648.0625,664.7813 Q648.0625,667.0156 648.4922,668.0156 Q648.9219,669.0156 649.8594,669.0156 Q650.8125,669.0156 651.2422,668.0156 Q651.6719,667.0156 651.6719,664.7813 Q651.6719,662.5469 651.2422,661.5469 Q650.8125,660.5469 649.8594,660.5469 Z M645.5156,664.7813 Q645.5156,661.6094 646.6172,659.9766 Q647.7188,658.3438 649.8594,658.3438 Q652.0156,658.3438 653.1172,659.9766 Q654.2188,661.6094 654.2188,664.7813 Q654.2188,667.9531 653.1172,669.5781 Q652.0156,671.2031 649.8594,671.2031 Q647.7188,671.2031 646.6172,669.5781 Q645.5156,667.9531 645.5156,664.7813 Z "/><text fill="#000000" font-family="sans-serif" font-size="12" font-style="italic" lengthAdjust="spacingAndGlyphs" textLength="87" x="674.75" y="662.1387">«Data Object»</text><text fill="#000000" font-family="sans-serif" font-size="12" lengthAdjust="spacingAndGlyphs" textLength="98" x="669.25" y="676.1074">LinkedBytecode</text><line style="stroke: #A80036; stroke-width: 1.5;" x1="611" x2="794" y1="683.9375" y2="683.9375"/><ellipse cx="621" cy="695.8398" fill="none" rx="3" ry="3" style="stroke: #038048; stroke-width: 1.0;"/><text fill="#000000" font-family="sans-serif" font-size="11" lengthAdjust="spacingAndGlyphs" textLength="115" x="630" y="698.1479">bytecode : Bytecode</text><ellipse cx="621" cy="708.6445" fill="none" rx="3" ry="3" style="stroke: #038048; stroke-width: 1.0;"/><text fill="#000000" font-family="sans-serif" font-size="11" lengthAdjust="spacingAndGlyphs" textLength="159" x="630" y="710.9526">linkValues : Set&lt;LinkValue&gt;</text><line style="stroke: #A80036; stroke-width: 1.5;" x1="611" x2="794" y1="717.5469" y2="717.5469"/><!--class LinkValue--><rect fill="#FEFECE" filter="url(#f1ho45jo3cz97k)" height="92.3516" id="LinkValue" style="stroke: #A80036; stroke-width: 1.5;" width="229.3333" x="660" y="788"/><ellipse cx="728.9167" cy="806.9688" fill="#7CFC00" rx="11" ry="11" style="stroke: #A80036; stroke-width: 1.0;"/><path d="M729.026,802.5469 Q728.0885,802.5469 727.6589,803.5469 Q727.2292,804.5469 727.2292,806.7813 Q727.2292,809.0156 727.6589,810.0156 Q728.0885,811.0156 729.026,811.0156 Q729.9792,811.0156 730.4089,810.0156 Q730.8385,809.0156 730.8385,806.7813 Q730.8385,804.5469 730.4089,803.5469 Q729.9792,802.5469 729.026,802.5469 Z M724.6823,806.7813 Q724.6823,803.6094 725.7839,801.9766 Q726.8854,800.3438 729.026,800.3438 Q731.1823,800.3438 732.2839,801.9766 Q733.3854,803.6094 733.3854,806.7813 Q733.3854,809.9531 732.2839,811.5781 Q731.1823,813.2031 729.026,813.2031 Q726.8854,813.2031 725.7839,811.5781 Q724.6823,809.9531 724.6823,806.7813 Z "/><text fill="#000000" font-family="sans-serif" font-size="12" font-style="italic" lengthAdjust="spacingAndGlyphs" textLength="87" x="747.4167" y="804.1387">«Data Object»</text><text fill="#000000" font-family="sans-serif" font-size="12" lengthAdjust="spacingAndGlyphs" textLength="59" x="761.4167" y="818.1074">LinkValue</text><line style="stroke: #A80036; stroke-width: 1.5;" x1="661" x2="888.3333" y1="825.9375" y2="825.9375"/><ellipse cx="671" cy="837.8398" fill="none" rx="3" ry="3" style="stroke: #038048; stroke-width: 1.0;"/><text fill="#000000" font-family="sans-serif" font-size="11" lengthAdjust="spacingAndGlyphs" textLength="70" x="680" y="840.1479">value: Bytes</text><ellipse cx="671" cy="850.6445" fill="#84BE84" rx="3" ry="3" style="stroke: #038048; stroke-width: 1.0;"/><text fill="#000000" font-family="sans-serif" font-size="11" lengthAdjust="spacingAndGlyphs" textLength="163" x="680" y="852.9526">linkReference: LinkReference</text><line style="stroke: #A80036; stroke-width: 1.0; stroke-dasharray: 1.0,2.0;" x1="661" x2="888.3333" y1="859.5469" y2="859.5469"/><rect fill="none" height="6" style="stroke: #C82930; stroke-width: 1.0;" width="6" x="668" y="868.4492"/><text fill="#000000" font-family="sans-serif" font-size="11" lengthAdjust="spacingAndGlyphs" textLength="94" x="680" y="873.7573">_linkReference: [</text><text fill="#000000" font-family="sans-serif" font-size="11" font-style="italic" lengthAdjust="spacingAndGlyphs" textLength="92" x="774" y="873.7573">to be completed</text><path d="M873.8362,866.2682 C873.7812,866.2682 873.7399,866.3086 873.7216,866.3544 L871.0284,872.5996 L871,872.772 L871,873.5172 C871,873.5722 871.0312,873.6034 871.0862,873.6034 L877.3314,873.6034 C877.3864,873.6034 877.4176,873.5722 877.4176,873.5172 L877.4176,872.772 L877.3892,872.5996 L874.696,866.3544 C874.6777,866.3086 874.6364,866.2682 874.5814,866.2682 L873.8362,866.2682 M873.75,869.0182 L874.6667,869.0182 L874.6667,870.8516 L873.75,870.8516 L873.75,869.0182 M873.75,871.7682 L874.6667,871.7682 L874.6667,872.6849 L873.75,872.6849 L873.75,871.7682 " fill="#000000" style="stroke: ; stroke-width: 0.0; stroke-dasharray: ;"/><text fill="#000000" font-family="sans-serif" font-size="11" lengthAdjust="spacingAndGlyphs" textLength="4" x="879.3333" y="873.7573">]</text><!--class LinkReference--><rect fill="#FEFECE" filter="url(#f1ho45jo3cz97k)" height="92.3516" id="LinkReference" style="stroke: #A80036; stroke-width: 1.5;" width="182" x="683.25" y="1070"/><ellipse cx="726.15" cy="1088.9688" fill="#7CFC00" rx="11" ry="11" style="stroke: #A80036; stroke-width: 1.0;"/><path d="M726.2594,1084.5469 Q725.3219,1084.5469 724.8922,1085.5469 Q724.4625,1086.5469 724.4625,1088.7813 Q724.4625,1091.0156 724.8922,1092.0156 Q725.3219,1093.0156 726.2594,1093.0156 Q727.2125,1093.0156 727.6422,1092.0156 Q728.0719,1091.0156 728.0719,1088.7813 Q728.0719,1086.5469 727.6422,1085.5469 Q727.2125,1084.5469 726.2594,1084.5469 Z M721.9156,1088.7813 Q721.9156,1085.6094 723.0172,1083.9766 Q724.1188,1082.3438 726.2594,1082.3438 Q728.4156,1082.3438 729.5172,1083.9766 Q730.6188,1085.6094 730.6188,1088.7813 Q730.6188,1091.9531 729.5172,1093.5781 Q728.4156,1095.2031 726.2594,1095.2031 Q724.1188,1095.2031 723.0172,1093.5781 Q721.9156,1091.9531 721.9156,1088.7813 Z "/><text fill="#000000" font-family="sans-serif" font-size="12" font-style="italic" lengthAdjust="spacingAndGlyphs" textLength="87" x="746.85" y="1086.1387">«Data Object»</text><text fill="#000000" font-family="sans-serif" font-size="12" lengthAdjust="spacingAndGlyphs" textLength="88" x="746.35" y="1100.1074">LinkReference</text><line style="stroke: #A80036; stroke-width: 1.5;" x1="684.25" x2="864.25" y1="1107.9375" y2="1107.9375"/><ellipse cx="694.25" cy="1119.8398" fill="none" rx="3" ry="3" style="stroke: #038048; stroke-width: 1.0;"/><text fill="#000000" font-family="sans-serif" font-size="11" lengthAdjust="spacingAndGlyphs" textLength="156" x="703.25" y="1122.1479">offsets: Array&lt;ByteOffset&gt;</text><ellipse cx="694.25" cy="1132.6445" fill="none" rx="3" ry="3" style="stroke: #038048; stroke-width: 1.0;"/><text fill="#000000" font-family="sans-serif" font-size="11" lengthAdjust="spacingAndGlyphs" textLength="128" x="703.25" y="1134.9526">name: Maybe&lt;String&gt;</text><ellipse cx="694.25" cy="1145.4492" fill="none" rx="3" ry="3" style="stroke: #038048; stroke-width: 1.0;"/><text fill="#000000" font-family="sans-serif" font-size="11" lengthAdjust="spacingAndGlyphs" textLength="83" x="703.25" y="1147.7573">length: Integer</text><line style="stroke: #A80036; stroke-width: 1.5;" x1="684.25" x2="864.25" y1="1154.3516" y2="1154.3516"/><!--class Name--><rect fill="#FEFECE" filter="url(#f1ho45jo3cz97k)" height="215.5938" id="Name" style="stroke: #A80036; stroke-width: 1.5;" width="195" x="6" y="8"/><ellipse cx="25.5" cy="26.9688" fill="#DA70D6" rx="11" ry="11" style="stroke: #A80036; stroke-width: 1.0;"/><path d="M26.7031,27.1094 Q27.0625,27.1875 27.3359,27.4609 Q27.6094,27.7344 28,28.5156 L30.2344,32.9688 L27.5469,32.9688 L26.0469,29.8438 Q25.9844,29.7031 25.875,29.4688 Q25.2188,28.0781 24.3281,28.0781 L23.5469,28.0781 L23.5469,32.9688 L21.1094,32.9688 L21.1094,20.5781 L24.6406,20.5781 Q27.0313,20.5781 28.0703,21.4219 Q29.1094,22.2656 29.1094,24.1719 Q29.1094,25.4531 28.4922,26.2109 Q27.875,26.9688 26.7031,27.1094 Z M23.5469,22.6406 L23.5469,26.0156 L24.7031,26.0156 Q25.7188,26.0156 26.1484,25.6172 Q26.5781,25.2188 26.5781,24.3125 Q26.5781,23.4219 26.1484,23.0313 Q25.7188,22.6406 24.7031,22.6406 L23.5469,22.6406 Z "/><text fill="#000000" font-family="sans-serif" font-size="12" font-style="italic" lengthAdjust="spacingAndGlyphs" textLength="72" x="38.5" y="24.1387">«Resource»</text><text fill="#000000" font-family="sans-serif" font-size="12" lengthAdjust="spacingAndGlyphs" textLength="36" x="56.5" y="38.1074">Name</text><rect fill="#FFFFFF" height="15.9688" style="stroke: #000000; stroke-width: 1.0; stroke-dasharray: 2.0,2.0;" width="83" x="121" y="5"/><text fill="#000000" font-family="sans-serif" font-size="12" font-style="italic" lengthAdjust="spacingAndGlyphs" textLength="73" x="126" y="17.1387">T: Resource</text><line style="stroke: #A80036; stroke-width: 1.5;" x1="7" x2="200" y1="45.9375" y2="45.9375"/><ellipse cx="17" cy="89.8516" fill="#84BE84" rx="3" ry="3" style="stroke: #038048; stroke-width: 1.0;"/><text fill="#000000" font-family="sans-serif" font-size="11" lengthAdjust="spacingAndGlyphs" text-decoration="underline" textLength="41" x="26" y="60.1479">current</text><line style="stroke: #000000; stroke-width: 1.0;" x1="26" x2="67" y1="62.1479" y2="62.1479"/><text fill="#000000" font-family="sans-serif" font-size="11" lengthAdjust="spacingAndGlyphs" textLength="4" x="71" y="60.1479">(</text><text fill="#000000" font-family="sans-serif" font-size="11" lengthAdjust="spacingAndGlyphs" textLength="70" x="58" y="72.9526">type: String,</text><text fill="#000000" font-family="sans-serif" font-size="11" lengthAdjust="spacingAndGlyphs" textLength="78" x="58" y="85.7573">name: String,</text><text fill="#000000" font-family="sans-serif" font-size="11" lengthAdjust="spacingAndGlyphs" textLength="120" x="58" y="98.562">role: Maybe&lt;Object&gt;</text><text fill="#000000" font-family="sans-serif" font-size="11" lengthAdjust="spacingAndGlyphs" textLength="8" x="26" y="111.3667">):</text><text fill="#000000" font-family="sans-serif" font-size="11" lengthAdjust="spacingAndGlyphs" textLength="112" x="58" y="124.1714">Maybe&lt;Name&lt;T&gt;&gt;</text><line style="stroke: #A80036; stroke-width: 1.0;" x1="7" x2="200" y1="130.7656" y2="130.7656"/><ellipse cx="17" cy="142.668" fill="none" rx="3" ry="3" style="stroke: #038048; stroke-width: 1.0;"/><text fill="#000000" font-family="sans-serif" font-size="11" lengthAdjust="spacingAndGlyphs" textLength="66" x="26" y="144.9761">type: String</text><ellipse cx="17" cy="155.4727" fill="none" rx="3" ry="3" style="stroke: #038048; stroke-width: 1.0;"/><text fill="#000000" font-family="sans-serif" font-size="11" lengthAdjust="spacingAndGlyphs" textLength="74" x="26" y="157.7808">name: String</text><ellipse cx="17" cy="168.2773" fill="none" rx="3" ry="3" style="stroke: #038048; stroke-width: 1.0;"/><text fill="#000000" font-family="sans-serif" font-size="11" lengthAdjust="spacingAndGlyphs" textLength="120" x="26" y="170.5854">role: Maybe&lt;Object&gt;</text><ellipse cx="17" cy="181.082" fill="#84BE84" rx="3" ry="3" style="stroke: #038048; stroke-width: 1.0;"/><text fill="#000000" font-family="sans-serif" font-size="11" lengthAdjust="spacingAndGlyphs" textLength="31" x="26" y="183.3901">ref: T</text><ellipse cx="17" cy="193.8867" fill="none" rx="3" ry="3" style="stroke: #038048; stroke-width: 1.0;"/><text fill="#000000" font-family="sans-serif" font-size="11" lengthAdjust="spacingAndGlyphs" textLength="169" x="26" y="196.1948">previous: Maybe&lt;Name&lt;T&gt;&gt;</text><line style="stroke: #A80036; stroke-width: 1.0; stroke-dasharray: 1.0,2.0;" x1="7" x2="200" y1="202.7891" y2="202.7891"/><rect fill="none" height="6" style="stroke: #C82930; stroke-width: 1.0;" width="6" x="14" y="211.6914"/><text fill="#000000" font-family="sans-serif" font-size="11" lengthAdjust="spacingAndGlyphs" textLength="45" x="26" y="216.9995">refId: ID</text><!--class Named--><rect fill="#FEFECE" filter="url(#f1ho45jo3cz97k)" height="79.5469" id="Named" style="stroke: #A80036; stroke-width: 1.5;" width="146" x="306.25" y="292"/><ellipse cx="342.4" cy="310.9688" fill="#8A2BE2" rx="11" ry="11" style="stroke: #A80036; stroke-width: 1.0;"/><path d="M338.3219,306.7344 L338.3219,304.5781 L345.7125,304.5781 L345.7125,306.7344 L343.2438,306.7344 L343.2438,314.8125 L345.7125,314.8125 L345.7125,316.9688 L338.3219,316.9688 L338.3219,314.8125 L340.7906,314.8125 L340.7906,306.7344 L338.3219,306.7344 Z "/><text fill="#000000" font-family="sans-serif" font-size="12" font-style="italic" lengthAdjust="spacingAndGlyphs" textLength="71" x="359.1" y="308.1387">«Interface»</text><text fill="#000000" font-family="sans-serif" font-size="12" lengthAdjust="spacingAndGlyphs" textLength="44" x="372.6" y="322.1074">Named</text><line style="stroke: #A80036; stroke-width: 1.5;" x1="307.25" x2="451.25" y1="329.9375" y2="329.9375"/><ellipse cx="317.25" cy="341.8398" fill="none" rx="3" ry="3" style="stroke: #038048; stroke-width: 1.0;"/><text fill="#000000" font-family="sans-serif" font-size="11" lengthAdjust="spacingAndGlyphs" textLength="74" x="326.25" y="344.1479">name: String</text><ellipse cx="317.25" cy="354.6445" fill="none" rx="3" ry="3" style="stroke: #038048; stroke-width: 1.0;"/><text fill="#000000" font-family="sans-serif" font-size="11" lengthAdjust="spacingAndGlyphs" textLength="120" x="326.25" y="356.9526">role: Maybe&lt;Object&gt;</text><line style="stroke: #A80036; stroke-width: 1.5;" x1="307.25" x2="451.25" y1="363.5469" y2="363.5469"/><!--class T--><rect fill="#FEFECE" filter="url(#f1ho45jo3cz97k)" height="92.3516" id="T" style="stroke: #A80036; stroke-width: 1.5;" width="146" x="30.25" y="286"/><ellipse cx="65.95" cy="304.9688" fill="#B19CD9" rx="11" ry="11" style="stroke: #A80036; stroke-width: 1.0;"/><path d="M67.1531,305.1094 Q67.5125,305.1875 67.7859,305.4609 Q68.0594,305.7344 68.45,306.5156 L70.6844,310.9688 L67.9969,310.9688 L66.4969,307.8438 Q66.4344,307.7031 66.325,307.4688 Q65.6688,306.0781 64.7781,306.0781 L63.9969,306.0781 L63.9969,310.9688 L61.5594,310.9688 L61.5594,298.5781 L65.0906,298.5781 Q67.4813,298.5781 68.5203,299.4219 Q69.5594,300.2656 69.5594,302.1719 Q69.5594,303.4531 68.9422,304.2109 Q68.325,304.9688 67.1531,305.1094 Z M63.9969,300.6406 L63.9969,304.0156 L65.1531,304.0156 Q66.1688,304.0156 66.5984,303.6172 Q67.0281,303.2188 67.0281,302.3125 Q67.0281,301.4219 66.5984,301.0313 Q66.1688,300.6406 65.1531,300.6406 L63.9969,300.6406 Z "/><text fill="#000000" font-family="sans-serif" font-size="12" font-style="italic" lengthAdjust="spacingAndGlyphs" textLength="72" x="82.55" y="302.1387">«Resource»</text><text fill="#000000" font-family="sans-serif" font-size="12" lengthAdjust="spacingAndGlyphs" textLength="7" x="115.05" y="316.1074">T</text><line style="stroke: #A80036; stroke-width: 1.5;" x1="31.25" x2="175.25" y1="323.9375" y2="323.9375"/><ellipse cx="41.25" cy="335.8398" fill="none" rx="3" ry="3" style="stroke: #038048; stroke-width: 1.0;"/><text fill="#000000" font-family="sans-serif" font-size="11" lengthAdjust="spacingAndGlyphs" textLength="74" x="50.25" y="338.1479">name: String</text><ellipse cx="41.25" cy="348.6445" fill="none" rx="3" ry="3" style="stroke: #038048; stroke-width: 1.0;"/><text fill="#000000" font-family="sans-serif" font-size="11" lengthAdjust="spacingAndGlyphs" textLength="120" x="50.25" y="350.9526">role: Maybe&lt;Object&gt;</text><line style="stroke: #A80036; stroke-width: 1.0; stroke-dasharray: 1.0,2.0;" x1="31.25" x2="175.25" y1="357.5469" y2="357.5469"/><rect fill="none" height="6" style="stroke: #C82930; stroke-width: 1.0;" width="6" x="38.25" y="366.4492"/><path d="M56.2917,364.2682 C55.0267,364.2682 54,365.2949 54,366.5599 C54,366.7066 54.0303,366.8321 54.0578,366.9614 L51.25,369.7691 L51.25,371.6025 L54,371.6025 L54,369.7691 L55.8333,369.7691 L55.8333,368.8525 L55.8911,368.7947 C56.0194,368.8222 56.145,368.8525 56.2926,368.8525 C57.5576,368.8525 58.5843,367.8258 58.5843,366.5608 C58.5843,365.2958 57.5576,364.2691 56.2926,364.2691 M56.7509,365.1858 C57.2551,365.1858 57.6676,365.5983 57.6676,366.1025 C57.6676,366.6066 57.2551,367.0191 56.7509,367.0191 C56.2468,367.0191 55.8343,366.6066 55.8343,366.1025 C55.8343,365.5983 56.2468,365.1858 56.7509,365.1858 " fill="#000000" style="stroke: ; stroke-width: 0.0; stroke-dasharray: ;"/><text fill="#000000" font-family="sans-serif" font-size="11" lengthAdjust="spacingAndGlyphs" textLength="29" x="63.5833" y="371.7573">id: ID</text><!--link ContractInstance to Deployment--><path d="M500.811,584.018 C497.225,641.392 492.241,721.148 488.888,774.794 " fill="none" id="ContractInstance-Deployment" style="stroke: #A80036; stroke-width: 1.0;"/><polygon fill="#FFFFFF" points="488.072,787.841,492.438,782.1019,488.8196,775.8643,484.4536,781.6034,488.072,787.841" style="stroke: #A80036; stroke-width: 1.0;"/><text fill="#000000" font-family="sans-serif" font-size="13" lengthAdjust="spacingAndGlyphs" textLength="24" x="474.1488" y="603.6908">1..n</text><!--link ContractInstanceCreation to ContractInstance--><path d="M505.25,168.509 C505.25,234.072 505.25,348.212 505.25,426.578 " fill="none" id="ContractInstanceCreation-ContractInstance" style="stroke: #A80036; stroke-width: 1.0;"/><polygon fill="#A80036" points="505.25,439.803,509.25,433.803,505.25,427.803,501.25,433.803,505.25,439.803" style="stroke: #A80036; stroke-width: 1.0;"/><text fill="#000000" font-family="sans-serif" font-size="13" lengthAdjust="spacingAndGlyphs" textLength="24" x="478.5031" y="188.638">0..1</text><!--link LinkedBytecode to LinkValue--><path d="M727.467,738.134 C735.448,754.318 744.208,772.082 751.969,787.819 " fill="none" id="LinkedBytecode-LinkValue" style="stroke: #A80036; stroke-width: 1.0;"/><polygon fill="#A80036" points="721.545,726.125,720.6116,733.2754,726.8529,736.8872,727.7864,729.7368,721.545,726.125" style="stroke: #A80036; stroke-width: 1.0;"/><text fill="#000000" font-family="sans-serif" font-size="13" lengthAdjust="spacingAndGlyphs" textLength="8" x="739.4202" y="776.8659">n</text><!--link LinkValue to LinkReference--><path d="M774.25,880.298 C774.25,930.726 774.25,1012.015 774.25,1064.4673 " fill="none" id="LinkValue-LinkReference" style="stroke: #A80036; stroke-width: 1.0; stroke-dasharray: 7.0,7.0;"/><polygon fill="#A80036" points="774.25,1069.7671,778.25,1060.7671,774.25,1064.7671,770.25,1060.7671,774.25,1069.7671" style="stroke: #A80036; stroke-width: 1.0;"/><text fill="#000000" font-family="sans-serif" font-size="13" lengthAdjust="spacingAndGlyphs" textLength="8" x="764.6094" y="1058.8072">1</text><!--link ContractInstance to LinkedBytecode--><path d="M596.761,592.898 C617.829,611.292 639.325,630.06 657.369,645.814 " fill="none" id="ContractInstance-LinkedBytecode" style="stroke: #A80036; stroke-width: 1.0;"/><polygon fill="#A80036" points="586.799,584.201,588.688,591.1603,595.8385,592.0932,593.9495,585.134,586.799,584.201" style="stroke: #A80036; stroke-width: 1.0;"/><text fill="#000000" font-family="sans-serif" font-size="13" lengthAdjust="spacingAndGlyphs" textLength="8" x="641.3193" y="635.0756">1</text><!--link Name to T--><path d="M103.25,237.5 C103.25,254.663 103.25,271.355 103.25,285.771 " fill="none" id="Name-T" style="stroke: #A80036; stroke-width: 1.0;"/><polygon fill="#FFFFFF" points="103.25,224.313,99.25,230.313,103.25,236.313,107.25,230.313,103.25,224.313" style="stroke: #A80036; stroke-width: 1.0;"/><text fill="#000000" font-family="sans-serif" font-size="13" lengthAdjust="spacingAndGlyphs" textLength="8" x="93.6094" y="274.8117">1</text><!--link Name to Name--><path d="M213.281,93.7 C226.562,97.73 235.25,105.16 235.25,116 C235.25,130.02 220.727,138.34 200.53,140.97 " fill="none" id="Name-Name" style="stroke: #A80036; stroke-width: 1.0;"/><polygon fill="#FFFFFF" points="200.53,91.03,205.5854,96.1722,212.2765,93.4835,207.2211,88.3412,200.53,91.03" style="stroke: #A80036; stroke-width: 1.0;"/><text fill="#000000" font-family="sans-serif" font-size="13" lengthAdjust="spacingAndGlyphs" textLength="24" x="208.8776" y="138.3185">0..1</text><!--link T to Named--><path d="M176.488,332 C209.997,332 250.093,332 285.75,332 " fill="none" id="T-Named" style="stroke: #A80036; stroke-width: 1.0; stroke-dasharray: 7.0,7.0;"/><polygon fill="none" points="286.149,325,306.149,332,286.149,339,286.149,325" style="stroke: #A80036; stroke-width: 1.0;"/><text fill="#000000" font-family="sans-serif" font-size="13" lengthAdjust="spacingAndGlyphs" textLength="92" x="194.75" y="324.0669">«implements»</text><!--
@startuml
skinparam defaultMonospacedFontName Andale Mono






  class Deployment << (R,orchid) Resource >> {
    + network: Network
    + contractInstances: Array<ContractInstance>
    ..
    - {field} <&key> id: ID = [//to be completed <&warning>//]
  }

  ContractInstance "1..n" - - -o Deployment


  class ContractInstance << (R,orchid) Resource >> {
    + address : Address
    + network : Network
    + creation : Maybe<ContractInstanceCreation>
    + callBytecode : LinkedBytecode
    + {method} contract : Maybe<Contract>
    ..
    - {field} <&key> id: ID = [//to be completed <&warning>//]
    - contractId: ID
  }

  ContractInstanceCreation "0..1" - - -* ContractInstance















    class LinkedBytecode << (O,lawngreen) Data Object >> {
      + bytecode : Bytecode
      + linkValues : Set<LinkValue>
    }


    class ContractInstanceCreation << (O,lawngreen) Data Object >> {
      + transactionHash: TransactionHash
      + constructorArgs: Array<Value>
      + {method} contractConstructor: ContractConstructor
      ..
      - contractConstructorId: ID
    }

    class LinkValue << (O,lawngreen) Data Object >> {
      + value: Bytes
      + {method} linkReference: LinkReference
      ..
      - _linkReference: [//to be completed <&warning>//]
    }

    class LinkReference << (O,lawngreen) Data Object >> {
      + offsets: Array<ByteOffset>
      + name: Maybe<String>
      + length: Integer
    }













  LinkedBytecode *- - "n" LinkValue


  LinkValue ....> "1" LinkReference





  ContractInstance *- - "1" LinkedBytecode











class Name< T: Resource > << (R,orchid) Resource >> {
  + <u>current</u> (\n\ttype: String,\n\tname: String,\n\trole: Maybe<Object>\n):\n\tMaybe<Name<T>>
  - -
  + type: String
  + name: String
  + role: Maybe<Object>
  + {method} ref: T
  + previous: Maybe<Name<T>>
  ..
  - refId: ID
}

class Named << (I,blueviolet) Interface >> {
  + name: String
  + role: Maybe<Object>
}

class T << (R,motivation) Resource >> {
  + name: String
  + role: Maybe<Object>
  ..
  - <&key> id: ID
}

Name o- - "1" T
Name o- - "0..1" Name

T .right.|> Named : << implements >>

@enduml

PlantUML version 1.2018.14(Fri Dec 21 16:33:16 UTC 2018)
(GPL source distribution)
Java Runtime: Java(TM) SE Runtime Environment
JVM: Java HotSpot(TM) 64-Bit Server VM
Java Version: 1.8.0_151-b12
Operating System: Linux
OS Version: 4.4.0-101-generic
Default Encoding: UTF-8
Language: en
Country: US
--></g></svg>