<?xml version="1.0" encoding="UTF-8" standalone="no"?><svg xmlns="http://www.w3.org/2000/svg" xmlns:xlink="http://www.w3.org/1999/xlink" contentScriptType="application/ecmascript" contentStyleType="text/css" height="810px" preserveAspectRatio="none" style="width:589px;height:810px;" version="1.1" viewBox="0 0 589 810" width="589.5px" zoomAndPan="magnify"><defs><filter height="300%" id="fnffzeixbz4ul" width="300%" x="-1" y="-1"><feGaussianBlur result="blurOut" stdDeviation="1.5"/><feColorMatrix in="blurOut" result="blurOut2" type="matrix" values="0 0 0 0 0 0 0 0 0 0 0 0 0 0 0 0 0 0 .4 0"/><feOffset dx="3.0" dy="3.0" in="blurOut2" result="blurOut3"/><feBlend in="SourceGraphic" in2="blurOut3" mode="normal"/></filter></defs><g><!--class Contract--><rect fill="#FEFECE" filter="url(#fnffzeixbz4ul)" height="98.0742" id="Contract" style="stroke: #A80036; stroke-width: 1.125;" width="197.25" x="156.5625" y="6.375"/><ellipse cx="205.5" cy="20.6016" fill="#FF8C00" rx="8.25" ry="8.25" style="stroke: #A80036; stroke-width: 0.75;"/><path d="M206.4023,20.707 Q206.6719,20.7656 206.877,20.9707 Q207.082,21.1758 207.375,21.7617 L209.0508,25.1016 L207.0352,25.1016 L205.9102,22.7578 Q205.8633,22.6523 205.7813,22.4766 Q205.2891,21.4336 204.6211,21.4336 L204.0352,21.4336 L204.0352,25.1016 L202.207,25.1016 L202.207,15.8086 L204.8555,15.8086 Q206.6484,15.8086 207.4277,16.4414 Q208.207,17.0742 208.207,18.5039 Q208.207,19.4648 207.7441,20.0332 Q207.2813,20.6016 206.4023,20.707 Z M204.0352,17.3555 L204.0352,19.8867 L204.9023,19.8867 Q205.6641,19.8867 205.9863,19.5879 Q206.3086,19.2891 206.3086,18.6094 Q206.3086,17.9414 205.9863,17.6484 Q205.6641,17.3555 204.9023,17.3555 L204.0352,17.3555 Z "/><text fill="#000000" font-family="sans-serif" font-size="9" font-style="italic" lengthAdjust="spacingAndGlyphs" textLength="96" x="219.375" y="18.479">«External Resource»</text><text fill="#000000" font-family="sans-serif" font-size="9" lengthAdjust="spacingAndGlyphs" textLength="40.5" x="247.125" y="28.9556">Contract</text><line style="stroke: #A80036; stroke-width: 1.125;" x1="157.3125" x2="353.0625" y1="34.8281" y2="34.8281"/><ellipse cx="164.8125" cy="43.7549" fill="none" rx="2.25" ry="2.25" style="stroke: #038048; stroke-width: 0.75;"/><text fill="#000000" font-family="sans-serif" font-size="8.25" lengthAdjust="spacingAndGlyphs" textLength="55.5" x="171.5625" y="45.486">name: String</text><ellipse cx="164.8125" cy="53.3584" fill="none" rx="2.25" ry="2.25" style="stroke: #038048; stroke-width: 0.75;"/><text fill="#000000" font-family="sans-serif" font-size="8.25" lengthAdjust="spacingAndGlyphs" textLength="32.25" x="171.5625" y="55.0895">abi: ABI</text><ellipse cx="164.8125" cy="62.9619" fill="none" rx="2.25" ry="2.25" style="stroke: #038048; stroke-width: 0.75;"/><text fill="#000000" font-family="sans-serif" font-size="8.25" lengthAdjust="spacingAndGlyphs" textLength="105" x="171.5625" y="64.693">constructor: Constructor</text><line style="stroke: #A80036; stroke-width: 1.125;" x1="157.3125" x2="353.0625" y1="69.6387" y2="69.6387"/><ellipse cx="164.8125" cy="78.5654" fill="#84BE84" rx="2.25" ry="2.25" style="stroke: #038048; stroke-width: 0.75;"/><text fill="#000000" font-family="sans-serif" font-size="8.25" lengthAdjust="spacingAndGlyphs" textLength="145.5" x="171.5625" y="80.2965">compilation: Maybe&lt;Compilation&gt;</text><ellipse cx="164.8125" cy="88.1689" fill="#84BE84" rx="2.25" ry="2.25" style="stroke: #038048; stroke-width: 0.75;"/><text fill="#000000" font-family="sans-serif" font-size="8.25" lengthAdjust="spacingAndGlyphs" textLength="177.75" x="171.5625" y="89.9">sourceContract: Maybe&lt;SourceContract&gt;</text><ellipse cx="164.8125" cy="97.7725" fill="#84BE84" rx="2.25" ry="2.25" style="stroke: #038048; stroke-width: 0.75;"/><text fill="#000000" font-family="sans-serif" font-size="8.25" lengthAdjust="spacingAndGlyphs" textLength="117" x="171.5625" y="99.5035">interface: ContractInterface</text><!--class Bytecode--><rect fill="#FEFECE" filter="url(#fnffzeixbz4ul)" height="78.8672" id="Bytecode" style="stroke: #A80036; stroke-width: 1.125;" width="177.75" x="224.0625" y="723.375"/><ellipse cx="284.25" cy="737.6016" fill="#DA70D6" rx="8.25" ry="8.25" style="stroke: #A80036; stroke-width: 0.75;"/><path d="M285.1523,737.707 Q285.4219,737.7656 285.627,737.9707 Q285.832,738.1758 286.125,738.7617 L287.8008,742.1016 L285.7852,742.1016 L284.6602,739.7578 Q284.6133,739.6523 284.5313,739.4766 Q284.0391,738.4336 283.3711,738.4336 L282.7852,738.4336 L282.7852,742.1016 L280.957,742.1016 L280.957,732.8086 L283.6055,732.8086 Q285.3984,732.8086 286.1777,733.4414 Q286.957,734.0742 286.957,735.5039 Q286.957,736.4648 286.4941,737.0332 Q286.0313,737.6016 285.1523,737.707 Z M282.7852,734.3555 L282.7852,736.8867 L283.6523,736.8867 Q284.4141,736.8867 284.7363,736.5879 Q285.0586,736.2891 285.0586,735.6094 Q285.0586,734.9414 284.7363,734.6484 Q284.4141,734.3555 283.6523,734.3555 L282.7852,734.3555 Z "/><text fill="#000000" font-family="sans-serif" font-size="9" font-style="italic" lengthAdjust="spacingAndGlyphs" textLength="54" x="298.125" y="735.479">«Resource»</text><text fill="#000000" font-family="sans-serif" font-size="9" lengthAdjust="spacingAndGlyphs" textLength="43.5" x="303.375" y="745.9556">Bytecode</text><line style="stroke: #A80036; stroke-width: 1.125;" x1="224.8125" x2="401.0625" y1="751.8281" y2="751.8281"/><ellipse cx="232.3125" cy="760.7549" fill="none" rx="2.25" ry="2.25" style="stroke: #038048; stroke-width: 0.75;"/><text fill="#000000" font-family="sans-serif" font-size="8.25" lengthAdjust="spacingAndGlyphs" textLength="84" x="239.0625" y="762.486">bytes: Array&lt;Byte&gt;</text><ellipse cx="232.3125" cy="770.3584" fill="none" rx="2.25" ry="2.25" style="stroke: #038048; stroke-width: 0.75;"/><text fill="#000000" font-family="sans-serif" font-size="8.25" lengthAdjust="spacingAndGlyphs" textLength="158.25" x="239.0625" y="772.0895">linkReferences : Set&lt;LinkReference&gt;</text><ellipse cx="232.3125" cy="779.9619" fill="#84BE84" rx="2.25" ry="2.25" style="stroke: #038048; stroke-width: 0.75;"/><text fill="#000000" font-family="sans-serif" font-size="8.25" lengthAdjust="spacingAndGlyphs" textLength="137.25" x="239.0625" y="781.693">instructions: Array&lt;Instruction&gt;</text><line style="stroke: #A80036; stroke-width: 0.75; stroke-dasharray: 1.0,2.0;" x1="224.8125" x2="401.0625" y1="786.6387" y2="786.6387"/><rect fill="none" height="4.5" style="stroke: #C82930; stroke-width: 0.75;" width="4.5" x="230.0625" y="793.3154"/><path d="M243.5938,791.6797 C242.645,791.6797 241.875,792.4497 241.875,793.3984 C241.875,793.5084 241.8977,793.6026 241.9183,793.6996 L239.8125,795.8054 L239.8125,797.1804 L241.875,797.1804 L241.875,795.8054 L243.25,795.8054 L243.25,795.1179 L243.2933,795.0746 C243.3896,795.0952 243.4838,795.1179 243.5944,795.1179 C244.5432,795.1179 245.3132,794.3479 245.3132,793.3991 C245.3132,792.4504 244.5432,791.6804 243.5944,791.6804 M243.9382,792.3679 C244.3163,792.3679 244.6257,792.6773 244.6257,793.0554 C244.6257,793.4335 244.3163,793.7429 243.9382,793.7429 C243.5601,793.7429 243.2507,793.4335 243.2507,793.0554 C243.2507,792.6773 243.5601,792.3679 243.9382,792.3679 " fill="#000000" style="stroke: ; stroke-width: 0.0; stroke-dasharray: ;"/><text fill="#000000" font-family="sans-serif" font-size="8.25" lengthAdjust="spacingAndGlyphs" textLength="21.75" x="249.0625" y="797.2965">id: ID</text><text fill="#000000" font-family="sans-serif" font-size="8.25" font-style="italic" lengthAdjust="spacingAndGlyphs" textLength="33" x="273.8125" y="797.2965">= hash(</text><text fill="#000000" font-family="sans-serif" font-size="8.25" lengthAdjust="spacingAndGlyphs" textLength="0" x="309.8125" y="797.2965"/><text fill="#000000" font-family="Andale Mono" font-size="8.25" lengthAdjust="spacingAndGlyphs" textLength="23.25" x="309.8125" y="797.2965">bytes</text><text fill="#000000" font-family="sans-serif" font-size="8.25" lengthAdjust="spacingAndGlyphs" textLength="0" x="336.0625" y="797.2965"/><text fill="#000000" font-family="sans-serif" font-size="8.25" font-style="italic" lengthAdjust="spacingAndGlyphs" textLength="3" x="336.0625" y="797.2965">)</text><!--class Instruction--><rect fill="#FEFECE" filter="url(#fnffzeixbz4ul)" height="78.8672" id="Instruction" style="stroke: #A80036; stroke-width: 1.125;" width="121.5" x="336" y="552.375"/><ellipse cx="363.1125" cy="566.6016" fill="#7CFC00" rx="8.25" ry="8.25" style="stroke: #A80036; stroke-width: 0.75;"/><path d="M363.1945,563.2852 Q362.4914,563.2852 362.1691,564.0352 Q361.8469,564.7852 361.8469,566.4609 Q361.8469,568.1367 362.1691,568.8867 Q362.4914,569.6367 363.1945,569.6367 Q363.9094,569.6367 364.2316,568.8867 Q364.5539,568.1367 364.5539,566.4609 Q364.5539,564.7852 364.2316,564.0352 Q363.9094,563.2852 363.1945,563.2852 Z M359.9367,566.4609 Q359.9367,564.082 360.7629,562.8574 Q361.5891,561.6328 363.1945,561.6328 Q364.8117,561.6328 365.6379,562.8574 Q366.4641,564.082 366.4641,566.4609 Q366.4641,568.8398 365.6379,570.0586 Q364.8117,571.2773 363.1945,571.2773 Q361.5891,571.2773 360.7629,570.0586 Q359.9367,568.8398 359.9367,566.4609 Z "/><text fill="#000000" font-family="sans-serif" font-size="9" font-style="italic" lengthAdjust="spacingAndGlyphs" textLength="65.25" x="375.6375" y="564.479">«Data Object»</text><text fill="#000000" font-family="sans-serif" font-size="9" lengthAdjust="spacingAndGlyphs" textLength="50.25" x="383.1375" y="574.9556">Instruction</text><line style="stroke: #A80036; stroke-width: 1.125;" x1="336.75" x2="456.75" y1="580.8281" y2="580.8281"/><ellipse cx="344.25" cy="589.7549" fill="none" rx="2.25" ry="2.25" style="stroke: #038048; stroke-width: 0.75;"/><text fill="#000000" font-family="sans-serif" font-size="8.25" lengthAdjust="spacingAndGlyphs" textLength="102" x="351" y="591.486">programCounter: String</text><ellipse cx="344.25" cy="599.3584" fill="none" rx="2.25" ry="2.25" style="stroke: #038048; stroke-width: 0.75;"/><text fill="#000000" font-family="sans-serif" font-size="8.25" lengthAdjust="spacingAndGlyphs" textLength="66.75" x="351" y="601.0895">opcode: Integer</text><ellipse cx="344.25" cy="608.9619" fill="none" rx="2.25" ry="2.25" style="stroke: #038048; stroke-width: 0.75;"/><text fill="#000000" font-family="sans-serif" font-size="8.25" lengthAdjust="spacingAndGlyphs" textLength="72" x="351" y="610.693">pushData: String</text><ellipse cx="344.25" cy="618.5654" fill="none" rx="2.25" ry="2.25" style="stroke: #038048; stroke-width: 0.75;"/><text fill="#000000" font-family="sans-serif" font-size="8.25" lengthAdjust="spacingAndGlyphs" textLength="93" x="351" y="620.2965">meta: InstructionMeta</text><line style="stroke: #A80036; stroke-width: 1.125;" x1="336.75" x2="456.75" y1="625.2422" y2="625.2422"/><!--class InstructionMeta--><rect fill="#FEFECE" filter="url(#fnffzeixbz4ul)" height="78.8672" id="InstructionMeta" style="stroke: #A80036; stroke-width: 1.125;" width="97.5" x="483.75" y="552.375"/><ellipse cx="495" cy="566.6016" fill="#7CFC00" rx="8.25" ry="8.25" style="stroke: #A80036; stroke-width: 0.75;"/><path d="M495.082,563.2852 Q494.3789,563.2852 494.0566,564.0352 Q493.7344,564.7852 493.7344,566.4609 Q493.7344,568.1367 494.0566,568.8867 Q494.3789,569.6367 495.082,569.6367 Q495.7969,569.6367 496.1191,568.8867 Q496.4414,568.1367 496.4414,566.4609 Q496.4414,564.7852 496.1191,564.0352 Q495.7969,563.2852 495.082,563.2852 Z M491.8242,566.4609 Q491.8242,564.082 492.6504,562.8574 Q493.4766,561.6328 495.082,561.6328 Q496.6992,561.6328 497.5254,562.8574 Q498.3516,564.082 498.3516,566.4609 Q498.3516,568.8398 497.5254,570.0586 Q496.6992,571.2773 495.082,571.2773 Q493.4766,571.2773 492.6504,570.0586 Q491.8242,568.8398 491.8242,566.4609 Z "/><text fill="#000000" font-family="sans-serif" font-size="9" font-style="italic" lengthAdjust="spacingAndGlyphs" textLength="65.25" x="509.625" y="564.479">«Data Object»</text><text fill="#000000" font-family="sans-serif" font-size="9" lengthAdjust="spacingAndGlyphs" textLength="73.5" x="505.5" y="574.9556">InstructionMeta</text><line style="stroke: #A80036; stroke-width: 1.125;" x1="484.5" x2="580.5" y1="580.8281" y2="580.8281"/><ellipse cx="492" cy="589.7549" fill="none" rx="2.25" ry="2.25" style="stroke: #038048; stroke-width: 0.75;"/><text fill="#000000" font-family="sans-serif" font-size="8.25" lengthAdjust="spacingAndGlyphs" textLength="54" x="498.75" y="591.486">cost: Integer</text><ellipse cx="492" cy="599.3584" fill="none" rx="2.25" ry="2.25" style="stroke: #038048; stroke-width: 0.75;"/><text fill="#000000" font-family="sans-serif" font-size="8.25" lengthAdjust="spacingAndGlyphs" textLength="57" x="498.75" y="601.0895">pops: Integer</text><ellipse cx="492" cy="608.9619" fill="none" rx="2.25" ry="2.25" style="stroke: #038048; stroke-width: 0.75;"/><text fill="#000000" font-family="sans-serif" font-size="8.25" lengthAdjust="spacingAndGlyphs" textLength="67.5" x="498.75" y="610.693">pushes: Integer</text><ellipse cx="492" cy="618.5654" fill="none" rx="2.25" ry="2.25" style="stroke: #038048; stroke-width: 0.75;"/><text fill="#000000" font-family="sans-serif" font-size="8.25" lengthAdjust="spacingAndGlyphs" textLength="71.25" x="498.75" y="620.2965">dynamic: Integer</text><line style="stroke: #A80036; stroke-width: 1.125;" x1="484.5" x2="580.5" y1="625.2422" y2="625.2422"/><!--class Source--><rect fill="#FEFECE" filter="url(#fnffzeixbz4ul)" height="69.2637" id="Source" style="stroke: #A80036; stroke-width: 1.125;" width="187" x="331.3125" y="289.5"/><ellipse cx="396.125" cy="303.7266" fill="#DA70D6" rx="8.25" ry="8.25" style="stroke: #A80036; stroke-width: 0.75;"/><path d="M397.0273,303.832 Q397.2969,303.8906 397.502,304.0957 Q397.707,304.3008 398,304.8867 L399.6758,308.2266 L397.6602,308.2266 L396.5352,305.8828 Q396.4883,305.7773 396.4063,305.6016 Q395.9141,304.5586 395.2461,304.5586 L394.6602,304.5586 L394.6602,308.2266 L392.832,308.2266 L392.832,298.9336 L395.4805,298.9336 Q397.2734,298.9336 398.0527,299.5664 Q398.832,300.1992 398.832,301.6289 Q398.832,302.5898 398.3691,303.1582 Q397.9063,303.7266 397.0273,303.832 Z M394.6602,300.4805 L394.6602,303.0117 L395.5273,303.0117 Q396.2891,303.0117 396.6113,302.7129 Q396.9336,302.4141 396.9336,301.7344 Q396.9336,301.0664 396.6113,300.7734 Q396.2891,300.4805 395.5273,300.4805 L394.6602,300.4805 Z "/><text fill="#000000" font-family="sans-serif" font-size="9" font-style="italic" lengthAdjust="spacingAndGlyphs" textLength="54" x="410" y="301.604">«Resource»</text><text fill="#000000" font-family="sans-serif" font-size="9" lengthAdjust="spacingAndGlyphs" textLength="33" x="420.5" y="312.0806">Source</text><line style="stroke: #A80036; stroke-width: 1.125;" x1="332.0625" x2="517.5625" y1="317.9531" y2="317.9531"/><ellipse cx="339.5625" cy="326.8799" fill="none" rx="2.25" ry="2.25" style="stroke: #038048; stroke-width: 0.75;"/><text fill="#000000" font-family="sans-serif" font-size="8.25" lengthAdjust="spacingAndGlyphs" textLength="68.25" x="346.3125" y="328.611">contents: String</text><ellipse cx="339.5625" cy="336.4834" fill="none" rx="2.25" ry="2.25" style="stroke: #038048; stroke-width: 0.75;"/><text fill="#000000" font-family="sans-serif" font-size="8.25" lengthAdjust="spacingAndGlyphs" textLength="120" x="346.3125" y="338.2145">sourcePath: Maybe&lt;String&gt;</text><line style="stroke: #A80036; stroke-width: 0.75; stroke-dasharray: 1.0,2.0;" x1="332.0625" x2="517.5625" y1="343.1602" y2="343.1602"/><rect fill="none" height="4.5" style="stroke: #C82930; stroke-width: 0.75;" width="4.5" x="337.3125" y="349.8369"/><path d="M350.8438,348.2012 C349.895,348.2012 349.125,348.9712 349.125,349.9199 C349.125,350.0299 349.1477,350.1241 349.1683,350.221 L347.0625,352.3269 L347.0625,353.7019 L349.125,353.7019 L349.125,352.3269 L350.5,352.3269 L350.5,351.6394 L350.5433,351.596 C350.6396,351.6167 350.7338,351.6394 350.8444,351.6394 C351.7932,351.6394 352.5632,350.8694 352.5632,349.9206 C352.5632,348.9719 351.7932,348.2019 350.8444,348.2019 M351.1882,348.8894 C351.5663,348.8894 351.8757,349.1987 351.8757,349.5769 C351.8757,349.955 351.5663,350.2644 351.1882,350.2644 C350.8101,350.2644 350.5007,349.955 350.5007,349.5769 C350.5007,349.1987 350.8101,348.8894 351.1882,348.8894 " fill="#000000" style="stroke: ; stroke-width: 0.0; stroke-dasharray: ;"/><text fill="#000000" font-family="sans-serif" font-size="8.25" lengthAdjust="spacingAndGlyphs" textLength="21.75" x="356.3125" y="353.818">id: ID</text><text fill="#000000" font-family="sans-serif" font-size="8.25" font-style="italic" lengthAdjust="spacingAndGlyphs" textLength="33" x="381.0625" y="353.818">= hash(</text><text fill="#000000" font-family="sans-serif" font-size="8.25" lengthAdjust="spacingAndGlyphs" textLength="0" x="417.0625" y="353.818"/><text fill="#000000" font-family="Andale Mono" font-size="8.25" lengthAdjust="spacingAndGlyphs" textLength="36.75" x="417.0625" y="353.818">contents</text><text fill="#000000" font-family="sans-serif" font-size="8.25" font-style="italic" lengthAdjust="spacingAndGlyphs" textLength="3" x="453.8125" y="353.818">,</text><text fill="#000000" font-family="sans-serif" font-size="8.25" lengthAdjust="spacingAndGlyphs" textLength="0" x="459.8125" y="353.818"/><text fill="#000000" font-family="Andale Mono" font-size="8.25" lengthAdjust="spacingAndGlyphs" textLength="48" x="459.8125" y="353.818">sourcePath</text><text fill="#000000" font-family="sans-serif" font-size="8.25" lengthAdjust="spacingAndGlyphs" textLength="0" x="510.8125" y="353.818"/><text fill="#000000" font-family="sans-serif" font-size="8.25" font-style="italic" lengthAdjust="spacingAndGlyphs" textLength="3" x="510.8125" y="353.818">)</text><!--class Compilation--><rect fill="#FEFECE" filter="url(#fnffzeixbz4ul)" height="98.0742" id="Compilation" style="stroke: #A80036; stroke-width: 1.125;" width="181" x="120.5625" y="274.875"/><ellipse cx="180.5" cy="289.1016" fill="#DA70D6" rx="8.25" ry="8.25" style="stroke: #A80036; stroke-width: 0.75;"/><path d="M181.4023,289.207 Q181.6719,289.2656 181.877,289.4707 Q182.082,289.6758 182.375,290.2617 L184.0508,293.6016 L182.0352,293.6016 L180.9102,291.2578 Q180.8633,291.1523 180.7813,290.9766 Q180.2891,289.9336 179.6211,289.9336 L179.0352,289.9336 L179.0352,293.6016 L177.207,293.6016 L177.207,284.3086 L179.8555,284.3086 Q181.6484,284.3086 182.4277,284.9414 Q183.207,285.5742 183.207,287.0039 Q183.207,287.9648 182.7441,288.5332 Q182.2813,289.1016 181.4023,289.207 Z M179.0352,285.8555 L179.0352,288.3867 L179.9023,288.3867 Q180.6641,288.3867 180.9863,288.0879 Q181.3086,287.7891 181.3086,287.1094 Q181.3086,286.4414 180.9863,286.1484 Q180.6641,285.8555 179.9023,285.8555 L179.0352,285.8555 Z "/><text fill="#000000" font-family="sans-serif" font-size="9" font-style="italic" lengthAdjust="spacingAndGlyphs" textLength="54" x="196.25" y="286.979">«Resource»</text><text fill="#000000" font-family="sans-serif" font-size="9" lengthAdjust="spacingAndGlyphs" textLength="54.75" x="195.875" y="297.4556">Compilation</text><line style="stroke: #A80036; stroke-width: 1.125;" x1="121.3125" x2="300.8125" y1="303.3281" y2="303.3281"/><ellipse cx="128.8125" cy="312.2549" fill="none" rx="2.25" ry="2.25" style="stroke: #038048; stroke-width: 0.75;"/><text fill="#000000" font-family="sans-serif" font-size="8.25" lengthAdjust="spacingAndGlyphs" textLength="84" x="135.5625" y="313.986">compiler : Compiler</text><ellipse cx="128.8125" cy="321.8584" fill="#84BE84" rx="2.25" ry="2.25" style="stroke: #038048; stroke-width: 0.75;"/><text fill="#000000" font-family="sans-serif" font-size="8.25" lengthAdjust="spacingAndGlyphs" textLength="150" x="135.5625" y="323.5895">sources : Array&lt;Maybe&lt;Source&gt;&gt;</text><ellipse cx="128.8125" cy="331.4619" fill="#84BE84" rx="2.25" ry="2.25" style="stroke: #038048; stroke-width: 0.75;"/><text fill="#000000" font-family="sans-serif" font-size="8.25" lengthAdjust="spacingAndGlyphs" textLength="150.75" x="135.5625" y="333.193">contracts : Array&lt;SourceContract&gt;</text><line style="stroke: #A80036; stroke-width: 0.75; stroke-dasharray: 1.0,2.0;" x1="121.3125" x2="300.8125" y1="338.1387" y2="338.1387"/><rect fill="none" height="4.5" style="stroke: #C82930; stroke-width: 0.75;" width="4.5" x="126.5625" y="344.8154"/><path d="M140.0938,343.1797 C139.145,343.1797 138.375,343.9497 138.375,344.8984 C138.375,345.0084 138.3977,345.1026 138.4183,345.1996 L136.3125,347.3054 L136.3125,348.6804 L138.375,348.6804 L138.375,347.3054 L139.75,347.3054 L139.75,346.6179 L139.7933,346.5746 C139.8896,346.5952 139.9838,346.6179 140.0944,346.6179 C141.0432,346.6179 141.8132,345.8479 141.8132,344.8991 C141.8132,343.9504 141.0432,343.1804 140.0944,343.1804 M140.4382,343.8679 C140.8163,343.8679 141.1257,344.1773 141.1257,344.5554 C141.1257,344.9335 140.8163,345.2429 140.4382,345.2429 C140.0601,345.2429 139.7507,344.9335 139.7507,344.5554 C139.7507,344.1773 140.0601,343.8679 140.4382,343.8679 " fill="#000000" style="stroke: ; stroke-width: 0.0; stroke-dasharray: ;"/><text fill="#000000" font-family="sans-serif" font-size="8.25" lengthAdjust="spacingAndGlyphs" textLength="21.75" x="145.5625" y="348.7965">id: ID</text><text fill="#000000" font-family="sans-serif" font-size="8.25" font-style="italic" lengthAdjust="spacingAndGlyphs" textLength="33" x="170.3125" y="348.7965">= hash(</text><text fill="#000000" font-family="sans-serif" font-size="8.25" lengthAdjust="spacingAndGlyphs" textLength="0" x="206.3125" y="348.7965"/><text fill="#000000" font-family="Andale Mono" font-size="8.25" lengthAdjust="spacingAndGlyphs" textLength="36.75" x="206.3125" y="348.7965">compiler</text><text fill="#000000" font-family="sans-serif" font-size="8.25" font-style="italic" lengthAdjust="spacingAndGlyphs" textLength="3" x="243.0625" y="348.7965">,</text><text fill="#000000" font-family="sans-serif" font-size="8.25" lengthAdjust="spacingAndGlyphs" textLength="0" x="249.0625" y="348.7965"/><text fill="#000000" font-family="Andale Mono" font-size="8.25" lengthAdjust="spacingAndGlyphs" textLength="42" x="249.0625" y="348.7965">sourceIds</text><text fill="#000000" font-family="sans-serif" font-size="8.25" lengthAdjust="spacingAndGlyphs" textLength="0" x="294.0625" y="348.7965"/><text fill="#000000" font-family="sans-serif" font-size="8.25" font-style="italic" lengthAdjust="spacingAndGlyphs" textLength="3" x="294.0625" y="348.7965">)</text><rect fill="none" height="4.5" style="stroke: #C82930; stroke-width: 0.75;" width="4.5" x="126.5625" y="354.4189"/><text fill="#000000" font-family="sans-serif" font-size="8.25" lengthAdjust="spacingAndGlyphs" textLength="132.75" x="135.5625" y="358.4">sourceIds: Array&lt;Maybe&lt;ID&gt;&gt;</text><rect fill="none" height="4.5" style="stroke: #C82930; stroke-width: 0.75;" width="4.5" x="126.5625" y="364.0225"/><text fill="#000000" font-family="sans-serif" font-size="8.25" lengthAdjust="spacingAndGlyphs" textLength="141" x="135.5625" y="368.0035">contractIds : Array&lt;Maybe&lt;ID&gt;&gt;</text><!--class SourceContract--><rect fill="#FEFECE" filter="url(#fnffzeixbz4ul)" height="78.8672" id="SourceContract" style="stroke: #A80036; stroke-width: 1.125;" width="97.5" x="250.5" y="150.375"/><ellipse cx="261.75" cy="164.6016" fill="#7CFC00" rx="8.25" ry="8.25" style="stroke: #A80036; stroke-width: 0.75;"/><path d="M261.832,161.2852 Q261.1289,161.2852 260.8066,162.0352 Q260.4844,162.7852 260.4844,164.4609 Q260.4844,166.1367 260.8066,166.8867 Q261.1289,167.6367 261.832,167.6367 Q262.5469,167.6367 262.8691,166.8867 Q263.1914,166.1367 263.1914,164.4609 Q263.1914,162.7852 262.8691,162.0352 Q262.5469,161.2852 261.832,161.2852 Z M258.5742,164.4609 Q258.5742,162.082 259.4004,160.8574 Q260.2266,159.6328 261.832,159.6328 Q263.4492,159.6328 264.2754,160.8574 Q265.1016,162.082 265.1016,164.4609 Q265.1016,166.8398 264.2754,168.0586 Q263.4492,169.2773 261.832,169.2773 Q260.2266,169.2773 259.4004,168.0586 Q258.5742,166.8398 258.5742,164.4609 Z "/><text fill="#000000" font-family="sans-serif" font-size="9" font-style="italic" lengthAdjust="spacingAndGlyphs" textLength="65.25" x="276.375" y="162.479">«Data Object»</text><text fill="#000000" font-family="sans-serif" font-size="9" lengthAdjust="spacingAndGlyphs" textLength="73.5" x="272.25" y="172.9556">SourceContract</text><line style="stroke: #A80036; stroke-width: 1.125;" x1="251.25" x2="347.25" y1="178.8281" y2="178.8281"/><ellipse cx="258.75" cy="187.7549" fill="none" rx="2.25" ry="2.25" style="stroke: #038048; stroke-width: 0.75;"/><text fill="#000000" font-family="sans-serif" font-size="8.25" lengthAdjust="spacingAndGlyphs" textLength="55.5" x="265.5" y="189.486">name: String</text><ellipse cx="258.75" cy="197.3584" fill="none" rx="2.25" ry="2.25" style="stroke: #038048; stroke-width: 0.75;"/><text fill="#000000" font-family="sans-serif" font-size="8.25" lengthAdjust="spacingAndGlyphs" textLength="36" x="265.5" y="199.0895">ast: AST</text><ellipse cx="258.75" cy="206.9619" fill="#84BE84" rx="2.25" ry="2.25" style="stroke: #038048; stroke-width: 0.75;"/><text fill="#000000" font-family="sans-serif" font-size="8.25" lengthAdjust="spacingAndGlyphs" textLength="65.25" x="265.5" y="208.693">source: Source</text><line style="stroke: #A80036; stroke-width: 0.75; stroke-dasharray: 1.0,2.0;" x1="251.25" x2="347.25" y1="213.6387" y2="213.6387"/><rect fill="none" height="4.5" style="stroke: #C82930; stroke-width: 0.75;" width="4.5" x="256.5" y="220.3154"/><text fill="#000000" font-family="sans-serif" font-size="8.25" lengthAdjust="spacingAndGlyphs" textLength="51" x="265.5" y="224.2965">sourceId: ID</text><!--class Compiler--><rect fill="#FEFECE" filter="url(#fnffzeixbz4ul)" height="69.2637" id="Compiler" style="stroke: #A80036; stroke-width: 1.125;" width="90" x="4.875" y="289.5"/><ellipse cx="17.8125" cy="303.7266" fill="#7CFC00" rx="8.25" ry="8.25" style="stroke: #A80036; stroke-width: 0.75;"/><path d="M17.8945,300.4102 Q17.1914,300.4102 16.8691,301.1602 Q16.5469,301.9102 16.5469,303.5859 Q16.5469,305.2617 16.8691,306.0117 Q17.1914,306.7617 17.8945,306.7617 Q18.6094,306.7617 18.9316,306.0117 Q19.2539,305.2617 19.2539,303.5859 Q19.2539,301.9102 18.9316,301.1602 Q18.6094,300.4102 17.8945,300.4102 Z M14.6367,303.5859 Q14.6367,301.207 15.4629,299.9824 Q16.2891,298.7578 17.8945,298.7578 Q19.5117,298.7578 20.3379,299.9824 Q21.1641,301.207 21.1641,303.5859 Q21.1641,305.9648 20.3379,307.1836 Q19.5117,308.4023 17.8945,308.4023 Q16.2891,308.4023 15.4629,307.1836 Q14.6367,305.9648 14.6367,303.5859 Z "/><text fill="#000000" font-family="sans-serif" font-size="9" font-style="italic" lengthAdjust="spacingAndGlyphs" textLength="65.25" x="27.1875" y="301.604">«Data Object»</text><text fill="#000000" font-family="sans-serif" font-size="9" lengthAdjust="spacingAndGlyphs" textLength="40.5" x="39.5625" y="312.0806">Compiler</text><line style="stroke: #A80036; stroke-width: 1.125;" x1="5.625" x2="94.125" y1="317.9531" y2="317.9531"/><ellipse cx="13.125" cy="326.8799" fill="none" rx="2.25" ry="2.25" style="stroke: #038048; stroke-width: 0.75;"/><text fill="#000000" font-family="sans-serif" font-size="8.25" lengthAdjust="spacingAndGlyphs" textLength="58.5" x="19.875" y="328.611">name : String</text><ellipse cx="13.125" cy="336.4834" fill="none" rx="2.25" ry="2.25" style="stroke: #038048; stroke-width: 0.75;"/><text fill="#000000" font-family="sans-serif" font-size="8.25" lengthAdjust="spacingAndGlyphs" textLength="66" x="19.875" y="338.2145">version : String</text><ellipse cx="13.125" cy="346.0869" fill="none" rx="2.25" ry="2.25" style="stroke: #038048; stroke-width: 0.75;"/><text fill="#000000" font-family="sans-serif" font-size="8.25" lengthAdjust="spacingAndGlyphs" textLength="70.5" x="19.875" y="347.818">settings : Object</text><line style="stroke: #A80036; stroke-width: 1.125;" x1="5.625" x2="94.125" y1="352.7637" y2="352.7637"/><!--class LinkReference--><rect fill="#FEFECE" filter="url(#fnffzeixbz4ul)" height="69.2637" id="LinkReference" style="stroke: #A80036; stroke-width: 1.125;" width="136.5" x="60.75" y="728.25"/><ellipse cx="92.925" cy="742.4766" fill="#7CFC00" rx="8.25" ry="8.25" style="stroke: #A80036; stroke-width: 0.75;"/><path d="M93.007,739.1602 Q92.3039,739.1602 91.9816,739.9102 Q91.6594,740.6602 91.6594,742.3359 Q91.6594,744.0117 91.9816,744.7617 Q92.3039,745.5117 93.007,745.5117 Q93.7219,745.5117 94.0441,744.7617 Q94.3664,744.0117 94.3664,742.3359 Q94.3664,740.6602 94.0441,739.9102 Q93.7219,739.1602 93.007,739.1602 Z M89.7492,742.3359 Q89.7492,739.957 90.5754,738.7324 Q91.4016,737.5078 93.007,737.5078 Q94.6242,737.5078 95.4504,738.7324 Q96.2766,739.957 96.2766,742.3359 Q96.2766,744.7148 95.4504,745.9336 Q94.6242,747.1523 93.007,747.1523 Q91.4016,747.1523 90.5754,745.9336 Q89.7492,744.7148 89.7492,742.3359 Z "/><text fill="#000000" font-family="sans-serif" font-size="9" font-style="italic" lengthAdjust="spacingAndGlyphs" textLength="65.25" x="108.45" y="740.354">«Data Object»</text><text fill="#000000" font-family="sans-serif" font-size="9" lengthAdjust="spacingAndGlyphs" textLength="66" x="108.075" y="750.8306">LinkReference</text><line style="stroke: #A80036; stroke-width: 1.125;" x1="61.5" x2="196.5" y1="756.7031" y2="756.7031"/><ellipse cx="69" cy="765.6299" fill="none" rx="2.25" ry="2.25" style="stroke: #038048; stroke-width: 0.75;"/><text fill="#000000" font-family="sans-serif" font-size="8.25" lengthAdjust="spacingAndGlyphs" textLength="117" x="75.75" y="767.361">offsets: Array&lt;ByteOffset&gt;</text><ellipse cx="69" cy="775.2334" fill="none" rx="2.25" ry="2.25" style="stroke: #038048; stroke-width: 0.75;"/><text fill="#000000" font-family="sans-serif" font-size="8.25" lengthAdjust="spacingAndGlyphs" textLength="96" x="75.75" y="776.9645">name: Maybe&lt;String&gt;</text><ellipse cx="69" cy="784.8369" fill="none" rx="2.25" ry="2.25" style="stroke: #038048; stroke-width: 0.75;"/><text fill="#000000" font-family="sans-serif" font-size="8.25" lengthAdjust="spacingAndGlyphs" textLength="62.25" x="75.75" y="786.568">length: Integer</text><line style="stroke: #A80036; stroke-width: 1.125;" x1="61.5" x2="196.5" y1="791.5137" y2="791.5137"/><!--class SourceMap--><rect fill="#FEFECE" filter="url(#fnffzeixbz4ul)" height="78.8672" id="SourceMap" style="stroke: #A80036; stroke-width: 1.125;" width="293.25" x="62.0625" y="423.375"/><ellipse cx="174.375" cy="437.6016" fill="#7CFC00" rx="8.25" ry="8.25" style="stroke: #A80036; stroke-width: 0.75;"/><path d="M174.457,434.2852 Q173.7539,434.2852 173.4316,435.0352 Q173.1094,435.7852 173.1094,437.4609 Q173.1094,439.1367 173.4316,439.8867 Q173.7539,440.6367 174.457,440.6367 Q175.1719,440.6367 175.4941,439.8867 Q175.8164,439.1367 175.8164,437.4609 Q175.8164,435.7852 175.4941,435.0352 Q175.1719,434.2852 174.457,434.2852 Z M171.1992,437.4609 Q171.1992,435.082 172.0254,433.8574 Q172.8516,432.6328 174.457,432.6328 Q176.0742,432.6328 176.9004,433.8574 Q177.7266,435.082 177.7266,437.4609 Q177.7266,439.8398 176.9004,441.0586 Q176.0742,442.2773 174.457,442.2773 Q172.8516,442.2773 172.0254,441.0586 Q171.1992,439.8398 171.1992,437.4609 Z "/><text fill="#000000" font-family="sans-serif" font-size="9" font-style="italic" lengthAdjust="spacingAndGlyphs" textLength="65.25" x="188.25" y="435.479">«Data Object»</text><text fill="#000000" font-family="sans-serif" font-size="9" lengthAdjust="spacingAndGlyphs" textLength="52.5" x="194.625" y="445.9556">SourceMap</text><line style="stroke: #A80036; stroke-width: 1.125;" x1="62.8125" x2="354.5625" y1="451.8281" y2="451.8281"/><ellipse cx="70.3125" cy="460.7549" fill="#84BE84" rx="2.25" ry="2.25" style="stroke: #038048; stroke-width: 0.75;"/><text fill="#000000" font-family="sans-serif" font-size="8.25" lengthAdjust="spacingAndGlyphs" textLength="83.25" x="77.0625" y="462.486">bytecode: Bytecode</text><ellipse cx="70.3125" cy="470.3584" fill="#84BE84" rx="2.25" ry="2.25" style="stroke: #038048; stroke-width: 0.75;"/><text fill="#000000" font-family="sans-serif" font-size="8.25" lengthAdjust="spacingAndGlyphs" textLength="273.75" x="77.0625" y="472.0895">instructionSourceRanges(index: Integer): Maybe&lt;SourceRange&gt;</text><line style="stroke: #A80036; stroke-width: 0.75; stroke-dasharray: 1.0,2.0;" x1="62.8125" x2="354.5625" y1="477.0352" y2="477.0352"/><rect fill="none" height="4.5" style="stroke: #C82930; stroke-width: 0.75;" width="4.5" x="68.0625" y="483.7119"/><text fill="#000000" font-family="sans-serif" font-size="8.25" lengthAdjust="spacingAndGlyphs" textLength="94.5" x="77.0625" y="487.693">rawSourceMap: String</text><rect fill="none" height="4.5" style="stroke: #C82930; stroke-width: 0.75;" width="4.5" x="68.0625" y="493.3154"/><text fill="#000000" font-family="sans-serif" font-size="8.25" lengthAdjust="spacingAndGlyphs" textLength="60" x="77.0625" y="497.2965">bytecodeId: ID</text><!--class SourceRange--><rect fill="#FEFECE" filter="url(#fnffzeixbz4ul)" height="88.4707" id="SourceRange" style="stroke: #A80036; stroke-width: 1.125;" width="90.75" x="381.5625" y="418.5"/><ellipse cx="394.5" cy="432.7266" fill="#7CFC00" rx="8.25" ry="8.25" style="stroke: #A80036; stroke-width: 0.75;"/><path d="M394.582,429.4102 Q393.8789,429.4102 393.5566,430.1602 Q393.2344,430.9102 393.2344,432.5859 Q393.2344,434.2617 393.5566,435.0117 Q393.8789,435.7617 394.582,435.7617 Q395.2969,435.7617 395.6191,435.0117 Q395.9414,434.2617 395.9414,432.5859 Q395.9414,430.9102 395.6191,430.1602 Q395.2969,429.4102 394.582,429.4102 Z M391.3242,432.5859 Q391.3242,430.207 392.1504,428.9824 Q392.9766,427.7578 394.582,427.7578 Q396.1992,427.7578 397.0254,428.9824 Q397.8516,430.207 397.8516,432.5859 Q397.8516,434.9648 397.0254,436.1836 Q396.1992,437.4023 394.582,437.4023 Q392.9766,437.4023 392.1504,436.1836 Q391.3242,434.9648 391.3242,432.5859 Z "/><text fill="#000000" font-family="sans-serif" font-size="9" font-style="italic" lengthAdjust="spacingAndGlyphs" textLength="65.25" x="404.25" y="430.604">«Data Object»</text><text fill="#000000" font-family="sans-serif" font-size="9" lengthAdjust="spacingAndGlyphs" textLength="63" x="405.375" y="441.0806">SourceRange</text><line style="stroke: #A80036; stroke-width: 1.125;" x1="382.3125" x2="471.5625" y1="446.9531" y2="446.9531"/><ellipse cx="389.8125" cy="455.8799" fill="none" rx="2.25" ry="2.25" style="stroke: #038048; stroke-width: 0.75;"/><text fill="#000000" font-family="sans-serif" font-size="8.25" lengthAdjust="spacingAndGlyphs" textLength="71.25" x="396.5625" y="457.611">start: ByteOffset</text><ellipse cx="389.8125" cy="465.4834" fill="none" rx="2.25" ry="2.25" style="stroke: #038048; stroke-width: 0.75;"/><text fill="#000000" font-family="sans-serif" font-size="8.25" lengthAdjust="spacingAndGlyphs" textLength="60.75" x="396.5625" y="467.2145">length: Length</text><ellipse cx="389.8125" cy="475.0869" fill="none" rx="2.25" ry="2.25" style="stroke: #038048; stroke-width: 0.75;"/><text fill="#000000" font-family="sans-serif" font-size="8.25" lengthAdjust="spacingAndGlyphs" textLength="54.75" x="396.5625" y="476.818">meta: Object</text><ellipse cx="389.8125" cy="484.6904" fill="#84BE84" rx="2.25" ry="2.25" style="stroke: #038048; stroke-width: 0.75;"/><text fill="#000000" font-family="sans-serif" font-size="8.25" lengthAdjust="spacingAndGlyphs" textLength="65.25" x="396.5625" y="486.4215">source: Source</text><line style="stroke: #A80036; stroke-width: 0.75; stroke-dasharray: 1.0,2.0;" x1="382.3125" x2="471.5625" y1="491.3672" y2="491.3672"/><rect fill="none" height="4.5" style="stroke: #C82930; stroke-width: 0.75;" width="4.5" x="387.5625" y="498.0439"/><text fill="#000000" font-family="sans-serif" font-size="8.25" lengthAdjust="spacingAndGlyphs" textLength="51" x="396.5625" y="502.025">sourceId: ID</text><!--link Instruction to InstructionMeta--><path d="M467.682,591.75 C473.0295,591.75 478.3778,591.75 483.7252,591.75 " fill="none" id="Instruction-InstructionMeta" style="stroke: #A80036; stroke-width: 0.75;"/><polygon fill="#A80036" points="457.7318,591.75,462.2318,594.75,466.7318,591.75,462.2318,588.75,457.7318,591.75" style="stroke: #A80036; stroke-width: 0.75;"/><text fill="#000000" font-family="sans-serif" font-size="9.75" lengthAdjust="spacingAndGlyphs" textLength="6" x="471.8048" y="588.1718">1</text><!--link Instruction to Bytecode--><path d="M377.5838,631.1745 C365.3692,655.8218 349.4528,687.939 336.447,714.183 " fill="none" id="Instruction-Bytecode" style="stroke: #A80036; stroke-width: 0.75;"/><polygon fill="#A80036" points="331.9793,723.1988,336.6652,720.4984,335.9749,715.1343,331.2889,717.8347,331.9793,723.1988" style="stroke: #A80036; stroke-width: 0.75;"/><text fill="#000000" font-family="sans-serif" font-size="9.75" lengthAdjust="spacingAndGlyphs" textLength="6" x="367.7544" y="646.277">n</text><!--link SourceContract to Compilation--><path d="M273.414,229.254 C265.6298,240.93 256.92,253.995 248.5275,266.5838 " fill="none" id="SourceContract-Compilation" style="stroke: #A80036; stroke-width: 0.75;"/><polygon fill="#A80036" points="243.0713,274.7678,248.0636,272.6876,248.0636,267.2793,243.0713,269.3594,243.0713,274.7678" style="stroke: #A80036; stroke-width: 0.75;"/><text fill="#000000" font-family="sans-serif" font-size="9.75" lengthAdjust="spacingAndGlyphs" textLength="6" x="262.6884" y="244.3672">n</text><!--link SourceMap to SourceRange--><path d="M364.9973,462.75 C370.476,462.75 375.954,462.75 381.432,462.75 " fill="none" id="SourceMap-SourceRange" style="stroke: #A80036; stroke-width: 0.75;"/><polygon fill="#A80036" points="355.137,462.75,359.637,465.75,364.137,462.75,359.637,459.75,355.137,462.75" style="stroke: #A80036; stroke-width: 0.75;"/><text fill="#000000" font-family="sans-serif" font-size="9.75" lengthAdjust="spacingAndGlyphs" textLength="6" x="369.6025" y="459.1494">n</text><!--link Contract to Compilation--><path d="M244.0155,114.5618 C241.8788,126.2857 239.6993,138.528 237.75,150 C230.6123,192.0157 223.206,239.8913 217.9605,274.6515 " fill="none" id="Contract-Compilation" style="stroke: #A80036; stroke-width: 0.75;"/><polygon fill="#FFFFFF" points="245.7938,104.8635,242.0314,108.7487,244.1706,113.7159,247.933,109.8308,245.7938,104.8635" style="stroke: #A80036; stroke-width: 0.75;"/><text fill="#000000" font-family="sans-serif" font-size="9.75" lengthAdjust="spacingAndGlyphs" textLength="18" x="198.9476" y="266.5774">0..1</text><!--link Contract to SourceContract--><path d="M274.2465,113.9902 C278.3257,126.2265 282.537,138.8603 286.314,150.1913 " fill="none" id="Contract-SourceContract" style="stroke: #A80036; stroke-width: 0.75; stroke-dasharray: 7.0,7.0;"/><polygon fill="#FFFFFF" points="271.1633,104.739,269.7404,109.9568,274.0096,113.2771,275.4324,108.0592,271.1633,104.739" style="stroke: #A80036; stroke-width: 0.75;"/><text fill="#000000" font-family="sans-serif" font-size="9.75" lengthAdjust="spacingAndGlyphs" textLength="6" x="277.739" y="142.2165">1</text><!--link LinkReference to Bytecode--><path d="M197.547,762.75 C203.0318,762.75 208.5165,762.75 214.0005,762.75 " fill="none" id="LinkReference-Bytecode" style="stroke: #A80036; stroke-width: 0.75;"/><polygon fill="#A80036" points="223.8728,762.75,219.3728,759.75,214.8728,762.75,219.3728,765.75,223.8728,762.75" style="stroke: #A80036; stroke-width: 0.75;"/><text fill="#000000" font-family="sans-serif" font-size="9.75" lengthAdjust="spacingAndGlyphs" textLength="6" x="203.2484" y="759.2856">n</text><!--link SourceContract to Source--><path d="M342.705,236.5568 C359.0955,253.929 377.424,273.3555 392.571,289.4085 " fill="none" id="SourceContract-Source" style="stroke: #A80036; stroke-width: 0.75;"/><polygon fill="#FFFFFF" points="335.814,229.254,336.7201,234.5859,341.9903,235.8002,341.0842,230.4683,335.814,229.254" style="stroke: #A80036; stroke-width: 0.75;"/><text fill="#000000" font-family="sans-serif" font-size="9.75" lengthAdjust="spacingAndGlyphs" textLength="6" x="381.2096" y="281.1993">1</text><!--link Compiler to Compilation--><path d="M94.2218,324 C99.6743,324 105.1275,324 110.58,324 " fill="none" id="Compiler-Compilation" style="stroke: #A80036; stroke-width: 0.75;"/><polygon fill="#A80036" points="120.3952,324,115.8952,321,111.3952,324,115.8952,327,120.3952,324" style="stroke: #A80036; stroke-width: 0.75;"/><text fill="#000000" font-family="sans-serif" font-size="9.75" lengthAdjust="spacingAndGlyphs" textLength="6" x="100.8799" y="320.1422">1</text><!--link Compilation to Source--><path d="M311.0175,324 C317.7623,324 324.5078,324 331.2533,324 " fill="none" id="Compilation-Source" style="stroke: #A80036; stroke-width: 0.75;"/><polygon fill="#FFFFFF" points="301.1348,324,305.6348,327,310.1348,324,305.6348,321,301.1348,324" style="stroke: #A80036; stroke-width: 0.75;"/><text fill="#000000" font-family="sans-serif" font-size="9.75" lengthAdjust="spacingAndGlyphs" textLength="6" x="319.1817" y="320.6971">n</text><!--link Compilation to SourceMap--><path d="M209.796,382.9342 C209.5725,396.5662 209.34,410.7615 209.1345,423.2993 " fill="none" id="Compilation-SourceMap" style="stroke: #A80036; stroke-width: 0.75;"/><polygon fill="#A80036" points="209.9565,373.1393,206.8832,377.5895,209.8091,382.138,212.8824,377.6878,209.9565,373.1393" style="stroke: #A80036; stroke-width: 0.75;"/><text fill="#000000" font-family="sans-serif" font-size="9.75" lengthAdjust="spacingAndGlyphs" textLength="6" x="202.0026" y="415.0498">n</text><!--link SourceMap to Bytecode--><path d="M225.3248,511.674 C245.901,570.5903 280.3208,669.1455 299.2523,723.351 " fill="none" id="SourceMap-Bytecode" style="stroke: #A80036; stroke-width: 0.75;"/><polygon fill="#FFFFFF" points="222.0218,502.218,220.6736,507.4556,224.9897,510.7145,226.3379,505.4769,222.0218,502.218" style="stroke: #A80036; stroke-width: 0.75;"/><text fill="#000000" font-family="sans-serif" font-size="9.75" lengthAdjust="spacingAndGlyphs" textLength="6" x="290.4863" y="715.1075">1</text><!--link SourceRange to Instruction--><path d="M414.276,516.5145 C411.4478,528.534 408.4965,541.0778 405.8393,552.3698 " fill="none" id="SourceRange-Instruction" style="stroke: #A80036; stroke-width: 0.75;"/><polygon fill="#FFFFFF" points="416.5095,507.0218,412.5587,510.7151,414.4484,515.7826,418.3992,512.0892,416.5095,507.0218" style="stroke: #A80036; stroke-width: 0.75;"/><text fill="#000000" font-family="sans-serif" font-size="9.75" lengthAdjust="spacingAndGlyphs" textLength="6" x="399.7066" y="544.1285">1</text><!--link Source to SourceRange--><path d="M425.0565,358.677 C425.3017,373.6703 425.5973,391.6613 425.871,408.399 " fill="none" id="Source-SourceRange" style="stroke: #A80036; stroke-width: 0.75;"/><polygon fill="#FFFFFF" points="426.0345,418.3478,428.9604,413.7992,425.8871,409.349,422.9612,413.8975,426.0345,418.3478" style="stroke: #A80036; stroke-width: 0.75;"/><text fill="#000000" font-family="sans-serif" font-size="9.75" lengthAdjust="spacingAndGlyphs" textLength="6" x="417.7696" y="373.8859">1</text><!--
@startuml
scale 0.75



skinparam defaultMonospacedFontName Andale Mono



    class Contract << (R,darkorange) External Resource >> {
      + name: String
      + abi: ABI
      + constructor: Constructor
      + {method} compilation: Maybe<Compilation>
      + {method} sourceContract: Maybe<SourceContract>
      + {method} interface: ContractInterface
    }






    class Bytecode << (R,orchid) Resource >> {
      + bytes: Array<Byte>
      + linkReferences : Set<LinkReference>
      + {method} instructions: Array<Instruction>
      ..
      - {field} <&key> id: ID //= hash(// ""bytes"" //)//
    }

    class Instruction << (O,lawngreen) Data Object >> {
      + programCounter: String
      + opcode: Integer
      + pushData: String
      + meta: InstructionMeta
    }

    class InstructionMeta << (O,lawngreen) Data Object >> {
      + cost: Integer
      + pops: Integer
      + pushes: Integer
      + dynamic: Integer
    }

    Instruction *-right- "1" InstructionMeta
    Instruction "n" - -* Bytecode

    class Source << (R,orchid) Resource >> {
      + contents: String
      + sourcePath: Maybe<String>
      ..
      - {field} <&key> id: ID //= hash(// ""contents""//,// ""sourcePath"" //)//
    }




    class Compilation << (R,orchid) Resource >> {
      + compiler : Compiler
      + {method} sources : Array<Maybe<Source>>
      + {method} contracts : Array<SourceContract>
      ..
      - {field} <&key> id: ID //= hash(// ""compiler""//,// ""sourceIds"" //)//
      - sourceIds: Array<Maybe<ID>>
      - contractIds : Array<Maybe<ID>>
    }

  SourceContract "n" - -* Compilation







  class Compiler << (O,lawngreen) Data Object >> {
    + name : String
    + version : String
    + settings : Object
  }




    class LinkReference << (O,lawngreen) Data Object >> {
      + offsets: Array<ByteOffset>
      + name: Maybe<String>
      + length: Integer
    }

    class SourceMap << (O,lawngreen) Data Object >> {
      + {method} bytecode: Bytecode
      + instructionSourceRanges(index: Integer): Maybe<SourceRange>
      ..
      - rawSourceMap: String
      - bytecodeId: ID
    }

    class SourceRange << (O,lawngreen) Data Object >> {
      + start: ByteOffset
      + length: Length
      + meta: Object
      + {method} source: Source
      ..
      - sourceId: ID
    }

    SourceMap *-right- "n" SourceRange


    class SourceContract << (O,lawngreen) Data Object >> {
      + name: String
      + ast: AST
      + {method} source: Source
      ..
      - sourceId: ID
    }








  Contract o- - "0..1" Compilation
  Contract o.. "1" SourceContract



  LinkReference "n" -* Bytecode



  SourceContract o- - "1" Source





  Compilation *-left- "1" Compiler

  Compilation o-right- "n" Source


  Compilation *- - "n" SourceMap



  SourceMap o- - - - "1" Bytecode
  SourceRange o- - "1" Instruction

  Source "1" - -o SourceRange


@enduml

PlantUML version 1.2018.14(Fri Dec 21 16:33:16 UTC 2018)
(GPL source distribution)
Java Runtime: Java(TM) SE Runtime Environment
JVM: Java HotSpot(TM) 64-Bit Server VM
Java Version: 1.8.0_151-b12
Operating System: Linux
OS Version: 4.4.0-101-generic
Default Encoding: UTF-8
Language: en
Country: US
--></g></svg>