<?xml version="1.0" encoding="UTF-8" standalone="no"?><svg xmlns="http://www.w3.org/2000/svg" xmlns:xlink="http://www.w3.org/1999/xlink" contentScriptType="application/ecmascript" contentStyleType="text/css" height="493.5px" preserveAspectRatio="none" style="width:789px;height:493px;" version="1.1" viewBox="0 0 789 493" width="789.75px" zoomAndPan="magnify"><defs><filter height="300%" id="f1prz170dgjt3o" width="300%" x="-1" y="-1"><feGaussianBlur result="blurOut" stdDeviation="1.5"/><feColorMatrix in="blurOut" result="blurOut2" type="matrix" values="0 0 0 0 0 0 0 0 0 0 0 0 0 0 0 0 0 0 .4 0"/><feOffset dx="3.0" dy="3.0" in="blurOut2" result="blurOut3"/><feBlend in="SourceGraphic" in2="blurOut3" mode="normal"/></filter></defs><g><!--class Contract--><rect fill="#FEFECE" filter="url(#f1prz170dgjt3o)" height="107.6777" id="Contract" style="stroke: #A80036; stroke-width: 1.125;" width="197.25" x="422.625" y="6"/><ellipse cx="471.5625" cy="20.2266" fill="#FF8C00" rx="8.25" ry="8.25" style="stroke: #A80036; stroke-width: 0.75;"/><path d="M472.4648,20.332 Q472.7344,20.3906 472.9336,20.6016 Q473.1445,20.8008 473.4375,21.3867 L475.1133,24.7266 L473.0977,24.7266 L471.9727,22.3828 Q471.9258,22.2773 471.8438,22.1016 Q471.3516,21.0586 470.6836,21.0586 L470.0977,21.0586 L470.0977,24.7266 L468.2695,24.7266 L468.2695,15.4336 L470.918,15.4336 Q472.7109,15.4336 473.4844,16.0664 Q474.2695,16.6992 474.2695,18.1289 Q474.2695,19.0898 473.8008,19.6641 Q473.3438,20.2266 472.4648,20.332 Z M470.0977,16.9805 L470.0977,19.5117 L470.9648,19.5117 Q471.7266,19.5117 472.043,19.2188 Q472.3711,18.9141 472.3711,18.2344 Q472.3711,17.5664 472.043,17.2734 Q471.7266,16.9805 470.9648,16.9805 L470.0977,16.9805 Z "/><text fill="#000000" font-family="sans-serif" font-size="9" font-style="italic" lengthAdjust="spacingAndGlyphs" textLength="96" x="485.4375" y="18.104">«External Resource»</text><text fill="#000000" font-family="sans-serif" font-size="9" lengthAdjust="spacingAndGlyphs" textLength="40.5" x="513.1875" y="28.5806">Contract</text><line style="stroke: #A80036; stroke-width: 1.125;" x1="423.375" x2="619.125" y1="34.4531" y2="34.4531"/><ellipse cx="430.875" cy="43.3799" fill="none" rx="2.25" ry="2.25" style="stroke: #038048; stroke-width: 0.75;"/><text fill="#000000" font-family="sans-serif" font-size="8.25" lengthAdjust="spacingAndGlyphs" textLength="55.5" x="437.625" y="45.111">name: String</text><ellipse cx="430.875" cy="52.9834" fill="none" rx="2.25" ry="2.25" style="stroke: #038048; stroke-width: 0.75;"/><text fill="#000000" font-family="sans-serif" font-size="8.25" lengthAdjust="spacingAndGlyphs" textLength="32.25" x="437.625" y="54.7145">abi: ABI</text><line style="stroke: #A80036; stroke-width: 1.125;" x1="423.375" x2="619.125" y1="59.6602" y2="59.6602"/><ellipse cx="430.875" cy="68.5869" fill="#84BE84" rx="2.25" ry="2.25" style="stroke: #038048; stroke-width: 0.75;"/><text fill="#000000" font-family="sans-serif" font-size="8.25" lengthAdjust="spacingAndGlyphs" textLength="151.5" x="437.625" y="70.318">createBytecode: Maybe&lt;Bytecode&gt;</text><ellipse cx="430.875" cy="78.1904" fill="#84BE84" rx="2.25" ry="2.25" style="stroke: #038048; stroke-width: 0.75;"/><text fill="#000000" font-family="sans-serif" font-size="8.25" lengthAdjust="spacingAndGlyphs" textLength="138.75" x="437.625" y="79.9215">callBytecode: Maybe&lt;Bytecode&gt;</text><ellipse cx="430.875" cy="87.7939" fill="#84BE84" rx="2.25" ry="2.25" style="stroke: #038048; stroke-width: 0.75;"/><text fill="#000000" font-family="sans-serif" font-size="8.25" lengthAdjust="spacingAndGlyphs" textLength="145.5" x="437.625" y="89.525">compilation: Maybe&lt;Compilation&gt;</text><ellipse cx="430.875" cy="97.3975" fill="#84BE84" rx="2.25" ry="2.25" style="stroke: #038048; stroke-width: 0.75;"/><text fill="#000000" font-family="sans-serif" font-size="8.25" lengthAdjust="spacingAndGlyphs" textLength="177.75" x="437.625" y="99.1285">sourceContract: Maybe&lt;SourceContract&gt;</text><ellipse cx="430.875" cy="107.001" fill="#84BE84" rx="2.25" ry="2.25" style="stroke: #038048; stroke-width: 0.75;"/><text fill="#000000" font-family="sans-serif" font-size="8.25" lengthAdjust="spacingAndGlyphs" textLength="117" x="437.625" y="108.7321">interface: ContractInterface</text><!--class Bytecode--><rect fill="#FEFECE" filter="url(#f1prz170dgjt3o)" height="78.8672" id="Bytecode" style="stroke: #A80036; stroke-width: 1.125;" width="177.75" x="167.625" y="159"/><ellipse cx="227.4375" cy="173.2266" fill="#DA70D6" rx="8.25" ry="8.25" style="stroke: #A80036; stroke-width: 0.75;"/><path d="M228.3398,173.332 Q228.6094,173.3906 228.8086,173.6016 Q229.0195,173.8008 229.3125,174.3867 L230.9883,177.7266 L228.9727,177.7266 L227.8477,175.3828 Q227.8008,175.2773 227.7188,175.1016 Q227.2266,174.0586 226.5586,174.0586 L225.9727,174.0586 L225.9727,177.7266 L224.1445,177.7266 L224.1445,168.4336 L226.793,168.4336 Q228.5859,168.4336 229.3594,169.0664 Q230.1445,169.6992 230.1445,171.1289 Q230.1445,172.0898 229.6758,172.6641 Q229.2188,173.2266 228.3398,173.332 Z M225.9727,169.9805 L225.9727,172.5117 L226.8398,172.5117 Q227.6016,172.5117 227.918,172.2188 Q228.2461,171.9141 228.2461,171.2344 Q228.2461,170.5664 227.918,170.2734 Q227.6016,169.9805 226.8398,169.9805 L225.9727,169.9805 Z "/><text fill="#000000" font-family="sans-serif" font-size="9" font-style="italic" lengthAdjust="spacingAndGlyphs" textLength="54.75" x="241.3125" y="171.104">«Resource»</text><text fill="#000000" font-family="sans-serif" font-size="9" lengthAdjust="spacingAndGlyphs" textLength="43.5" x="246.9375" y="181.5806">Bytecode</text><line style="stroke: #A80036; stroke-width: 1.125;" x1="168.375" x2="344.625" y1="187.4531" y2="187.4531"/><ellipse cx="175.875" cy="196.3799" fill="none" rx="2.25" ry="2.25" style="stroke: #038048; stroke-width: 0.75;"/><text fill="#000000" font-family="sans-serif" font-size="8.25" lengthAdjust="spacingAndGlyphs" textLength="53.25" x="182.625" y="198.111">bytes: Bytes</text><ellipse cx="175.875" cy="205.9834" fill="none" rx="2.25" ry="2.25" style="stroke: #038048; stroke-width: 0.75;"/><text fill="#000000" font-family="sans-serif" font-size="8.25" lengthAdjust="spacingAndGlyphs" textLength="158.25" x="182.625" y="207.7145">linkReferences : Set&lt;LinkReference&gt;</text><ellipse cx="175.875" cy="215.5869" fill="#84BE84" rx="2.25" ry="2.25" style="stroke: #038048; stroke-width: 0.75;"/><text fill="#000000" font-family="sans-serif" font-size="8.25" lengthAdjust="spacingAndGlyphs" textLength="137.25" x="182.625" y="217.318">instructions: Array&lt;Instruction&gt;</text><line style="stroke: #A80036; stroke-width: 0.75; stroke-dasharray: 1.0,2.0;" x1="168.375" x2="344.625" y1="222.2637" y2="222.2637"/><rect fill="none" height="4.5" style="stroke: #C82930; stroke-width: 0.75;" width="4.5" x="173.625" y="228.9404"/><path d="M187.1563,227.3047 C186.2075,227.3047 185.4375,228.0747 185.4375,229.0234 C185.4375,229.1334 185.4602,229.2276 185.4808,229.3246 L183.375,231.4304 L183.375,232.8054 L185.4375,232.8054 L185.4375,231.4304 L186.8125,231.4304 L186.8125,230.7429 L186.8558,230.6996 C186.9521,230.7202 187.0463,230.7429 187.1569,230.7429 C188.1057,230.7429 188.8757,229.9729 188.8757,229.0241 C188.8757,228.0754 188.1057,227.3054 187.1569,227.3054 M187.5007,227.9929 C187.8788,227.9929 188.1882,228.3023 188.1882,228.6804 C188.1882,229.0585 187.8788,229.3679 187.5007,229.3679 C187.1226,229.3679 186.8132,229.0585 186.8132,228.6804 C186.8132,228.3023 187.1226,227.9929 187.5007,227.9929 " fill="#000000" style="stroke: ; stroke-width: 0.0; stroke-dasharray: ;"/><text fill="#000000" font-family="sans-serif" font-size="8.25" lengthAdjust="spacingAndGlyphs" textLength="21.75" x="192.625" y="232.9215">id: ID</text><text fill="#000000" font-family="sans-serif" font-size="8.25" font-style="italic" lengthAdjust="spacingAndGlyphs" textLength="33.75" x="217.375" y="232.9215">= hash(</text><text fill="#000000" font-family="sans-serif" font-size="8.25" lengthAdjust="spacingAndGlyphs" textLength="0" x="254.125" y="232.9215"/><text fill="#000000" font-family="Andale Mono" font-size="8.25" lengthAdjust="spacingAndGlyphs" textLength="23.25" x="254.125" y="232.9215">bytes</text><text fill="#000000" font-family="sans-serif" font-size="8.25" lengthAdjust="spacingAndGlyphs" textLength="0" x="280.375" y="232.9215"/><text fill="#000000" font-family="sans-serif" font-size="8.25" font-style="italic" lengthAdjust="spacingAndGlyphs" textLength="3" x="280.375" y="232.9215">)</text><!--class Instruction--><rect fill="#FEFECE" filter="url(#f1prz170dgjt3o)" height="78.8672" id="Instruction" style="stroke: #A80036; stroke-width: 1.125;" width="126" x="146.25" y="20.625"/><ellipse cx="175.05" cy="34.8516" fill="#7CFC00" rx="8.25" ry="8.25" style="stroke: #A80036; stroke-width: 0.75;"/><path d="M175.132,31.5352 Q174.4289,31.5352 174.1008,32.2852 Q173.7844,33.0352 173.7844,34.7109 Q173.7844,36.3867 174.1008,37.1367 Q174.4289,37.8867 175.132,37.8867 Q175.8469,37.8867 176.1633,37.1367 Q176.4914,36.3867 176.4914,34.7109 Q176.4914,33.0352 176.1633,32.2852 Q175.8469,31.5352 175.132,31.5352 Z M171.8742,34.7109 Q171.8742,32.332 172.6945,31.1133 Q173.5266,29.8828 175.132,29.8828 Q176.7492,29.8828 177.5695,31.1133 Q178.4016,32.332 178.4016,34.7109 Q178.4016,37.0898 177.5695,38.3086 Q176.7492,39.5273 175.132,39.5273 Q173.5266,39.5273 172.6945,38.3086 Q171.8742,37.0898 171.8742,34.7109 Z "/><text fill="#000000" font-family="sans-serif" font-size="9" font-style="italic" lengthAdjust="spacingAndGlyphs" textLength="66" x="187.95" y="32.729">«Data Object»</text><text fill="#000000" font-family="sans-serif" font-size="9" lengthAdjust="spacingAndGlyphs" textLength="50.25" x="195.825" y="43.2056">Instruction</text><line style="stroke: #A80036; stroke-width: 1.125;" x1="147" x2="271.5" y1="49.0781" y2="49.0781"/><ellipse cx="154.5" cy="58.0049" fill="none" rx="2.25" ry="2.25" style="stroke: #038048; stroke-width: 0.75;"/><text fill="#000000" font-family="sans-serif" font-size="8.25" lengthAdjust="spacingAndGlyphs" textLength="106.5" x="161.25" y="59.736">programCounter: Integer</text><ellipse cx="154.5" cy="67.6084" fill="none" rx="2.25" ry="2.25" style="stroke: #038048; stroke-width: 0.75;"/><text fill="#000000" font-family="sans-serif" font-size="8.25" lengthAdjust="spacingAndGlyphs" textLength="62.25" x="161.25" y="69.3395">opcode: String</text><ellipse cx="154.5" cy="77.2119" fill="none" rx="2.25" ry="2.25" style="stroke: #038048; stroke-width: 0.75;"/><text fill="#000000" font-family="sans-serif" font-size="8.25" lengthAdjust="spacingAndGlyphs" textLength="70.5" x="161.25" y="78.943">pushData: Bytes</text><ellipse cx="154.5" cy="86.8154" fill="none" rx="2.25" ry="2.25" style="stroke: #038048; stroke-width: 0.75;"/><text fill="#000000" font-family="sans-serif" font-size="8.25" lengthAdjust="spacingAndGlyphs" textLength="93" x="161.25" y="88.5465">meta: InstructionMeta</text><line style="stroke: #A80036; stroke-width: 1.125;" x1="147" x2="271.5" y1="93.4922" y2="93.4922"/><!--class InstructionMeta--><rect fill="#FEFECE" filter="url(#f1prz170dgjt3o)" height="78.8672" id="InstructionMeta" style="stroke: #A80036; stroke-width: 1.125;" width="97.5" x="298.5" y="20.625"/><ellipse cx="309.75" cy="34.8516" fill="#7CFC00" rx="8.25" ry="8.25" style="stroke: #A80036; stroke-width: 0.75;"/><path d="M309.832,31.5352 Q309.1289,31.5352 308.8008,32.2852 Q308.4844,33.0352 308.4844,34.7109 Q308.4844,36.3867 308.8008,37.1367 Q309.1289,37.8867 309.832,37.8867 Q310.5469,37.8867 310.8633,37.1367 Q311.1914,36.3867 311.1914,34.7109 Q311.1914,33.0352 310.8633,32.2852 Q310.5469,31.5352 309.832,31.5352 Z M306.5742,34.7109 Q306.5742,32.332 307.3945,31.1133 Q308.2266,29.8828 309.832,29.8828 Q311.4492,29.8828 312.2695,31.1133 Q313.1016,32.332 313.1016,34.7109 Q313.1016,37.0898 312.2695,38.3086 Q311.4492,39.5273 309.832,39.5273 Q308.2266,39.5273 307.3945,38.3086 Q306.5742,37.0898 306.5742,34.7109 Z "/><text fill="#000000" font-family="sans-serif" font-size="9" font-style="italic" lengthAdjust="spacingAndGlyphs" textLength="66" x="324" y="32.729">«Data Object»</text><text fill="#000000" font-family="sans-serif" font-size="9" lengthAdjust="spacingAndGlyphs" textLength="73.5" x="320.25" y="43.2056">InstructionMeta</text><line style="stroke: #A80036; stroke-width: 1.125;" x1="299.25" x2="395.25" y1="49.0781" y2="49.0781"/><ellipse cx="306.75" cy="58.0049" fill="none" rx="2.25" ry="2.25" style="stroke: #038048; stroke-width: 0.75;"/><text fill="#000000" font-family="sans-serif" font-size="8.25" lengthAdjust="spacingAndGlyphs" textLength="54" x="313.5" y="59.736">cost: Integer</text><ellipse cx="306.75" cy="67.6084" fill="none" rx="2.25" ry="2.25" style="stroke: #038048; stroke-width: 0.75;"/><text fill="#000000" font-family="sans-serif" font-size="8.25" lengthAdjust="spacingAndGlyphs" textLength="57" x="313.5" y="69.3395">pops: Integer</text><ellipse cx="306.75" cy="77.2119" fill="none" rx="2.25" ry="2.25" style="stroke: #038048; stroke-width: 0.75;"/><text fill="#000000" font-family="sans-serif" font-size="8.25" lengthAdjust="spacingAndGlyphs" textLength="67.5" x="313.5" y="78.943">pushes: Integer</text><ellipse cx="306.75" cy="86.8154" fill="none" rx="2.25" ry="2.25" style="stroke: #038048; stroke-width: 0.75;"/><text fill="#000000" font-family="sans-serif" font-size="8.25" lengthAdjust="spacingAndGlyphs" textLength="71.25" x="313.5" y="88.5465">dynamic: Integer</text><line style="stroke: #A80036; stroke-width: 1.125;" x1="299.25" x2="395.25" y1="93.4922" y2="93.4922"/><!--class Source--><rect fill="#FEFECE" filter="url(#f1prz170dgjt3o)" height="69.2637" id="Source" style="stroke: #A80036; stroke-width: 1.125;" width="187.75" x="594" y="302.25"/><ellipse cx="658.8125" cy="316.4766" fill="#DA70D6" rx="8.25" ry="8.25" style="stroke: #A80036; stroke-width: 0.75;"/><path d="M659.7148,316.582 Q659.9844,316.6406 660.1836,316.8516 Q660.3945,317.0508 660.6875,317.6367 L662.3633,320.9766 L660.3477,320.9766 L659.2227,318.6328 Q659.1758,318.5273 659.0938,318.3516 Q658.6016,317.3086 657.9336,317.3086 L657.3477,317.3086 L657.3477,320.9766 L655.5195,320.9766 L655.5195,311.6836 L658.168,311.6836 Q659.9609,311.6836 660.7344,312.3164 Q661.5195,312.9492 661.5195,314.3789 Q661.5195,315.3398 661.0508,315.9141 Q660.5938,316.4766 659.7148,316.582 Z M657.3477,313.2305 L657.3477,315.7617 L658.2148,315.7617 Q658.9766,315.7617 659.293,315.4688 Q659.6211,315.1641 659.6211,314.4844 Q659.6211,313.8164 659.293,313.5234 Q658.9766,313.2305 658.2148,313.2305 L657.3477,313.2305 Z "/><text fill="#000000" font-family="sans-serif" font-size="9" font-style="italic" lengthAdjust="spacingAndGlyphs" textLength="54.75" x="672.6875" y="314.354">«Resource»</text><text fill="#000000" font-family="sans-serif" font-size="9" lengthAdjust="spacingAndGlyphs" textLength="33" x="683.5625" y="324.8306">Source</text><line style="stroke: #A80036; stroke-width: 1.125;" x1="594.75" x2="781" y1="330.7031" y2="330.7031"/><ellipse cx="602.25" cy="339.6299" fill="none" rx="2.25" ry="2.25" style="stroke: #038048; stroke-width: 0.75;"/><text fill="#000000" font-family="sans-serif" font-size="8.25" lengthAdjust="spacingAndGlyphs" textLength="68.25" x="609" y="341.361">contents: String</text><ellipse cx="602.25" cy="349.2334" fill="none" rx="2.25" ry="2.25" style="stroke: #038048; stroke-width: 0.75;"/><text fill="#000000" font-family="sans-serif" font-size="8.25" lengthAdjust="spacingAndGlyphs" textLength="120" x="609" y="350.9645">sourcePath: Maybe&lt;String&gt;</text><line style="stroke: #A80036; stroke-width: 0.75; stroke-dasharray: 1.0,2.0;" x1="594.75" x2="781" y1="355.9102" y2="355.9102"/><rect fill="none" height="4.5" style="stroke: #C82930; stroke-width: 0.75;" width="4.5" x="600" y="362.5869"/><path d="M613.5313,360.9512 C612.5825,360.9512 611.8125,361.7212 611.8125,362.6699 C611.8125,362.7799 611.8352,362.8741 611.8558,362.971 L609.75,365.0769 L609.75,366.4519 L611.8125,366.4519 L611.8125,365.0769 L613.1875,365.0769 L613.1875,364.3894 L613.2308,364.346 C613.3271,364.3667 613.4213,364.3894 613.5319,364.3894 C614.4807,364.3894 615.2507,363.6194 615.2507,362.6706 C615.2507,361.7219 614.4807,360.9519 613.5319,360.9519 M613.8757,361.6394 C614.2538,361.6394 614.5632,361.9487 614.5632,362.3269 C614.5632,362.705 614.2538,363.0144 613.8757,363.0144 C613.4976,363.0144 613.1882,362.705 613.1882,362.3269 C613.1882,361.9487 613.4976,361.6394 613.8757,361.6394 " fill="#000000" style="stroke: ; stroke-width: 0.0; stroke-dasharray: ;"/><text fill="#000000" font-family="sans-serif" font-size="8.25" lengthAdjust="spacingAndGlyphs" textLength="21.75" x="619" y="366.568">id: ID</text><text fill="#000000" font-family="sans-serif" font-size="8.25" font-style="italic" lengthAdjust="spacingAndGlyphs" textLength="33.75" x="643.75" y="366.568">= hash(</text><text fill="#000000" font-family="sans-serif" font-size="8.25" lengthAdjust="spacingAndGlyphs" textLength="0" x="680.5" y="366.568"/><text fill="#000000" font-family="Andale Mono" font-size="8.25" lengthAdjust="spacingAndGlyphs" textLength="36.75" x="680.5" y="366.568">contents</text><text fill="#000000" font-family="sans-serif" font-size="8.25" font-style="italic" lengthAdjust="spacingAndGlyphs" textLength="3" x="717.25" y="366.568">,</text><text fill="#000000" font-family="sans-serif" font-size="8.25" lengthAdjust="spacingAndGlyphs" textLength="0" x="723.25" y="366.568"/><text fill="#000000" font-family="Andale Mono" font-size="8.25" lengthAdjust="spacingAndGlyphs" textLength="48" x="723.25" y="366.568">sourcePath</text><text fill="#000000" font-family="sans-serif" font-size="8.25" lengthAdjust="spacingAndGlyphs" textLength="0" x="774.25" y="366.568"/><text fill="#000000" font-family="sans-serif" font-size="8.25" font-style="italic" lengthAdjust="spacingAndGlyphs" textLength="3" x="774.25" y="366.568">)</text><!--class Compilation--><rect fill="#FEFECE" filter="url(#f1prz170dgjt3o)" height="107.6777" id="Compilation" style="stroke: #A80036; stroke-width: 1.125;" width="181.75" x="386.25" y="282.75"/><ellipse cx="446.5625" cy="296.9766" fill="#DA70D6" rx="8.25" ry="8.25" style="stroke: #A80036; stroke-width: 0.75;"/><path d="M447.4648,297.082 Q447.7344,297.1406 447.9336,297.3516 Q448.1445,297.5508 448.4375,298.1367 L450.1133,301.4766 L448.0977,301.4766 L446.9727,299.1328 Q446.9258,299.0273 446.8438,298.8516 Q446.3516,297.8086 445.6836,297.8086 L445.0977,297.8086 L445.0977,301.4766 L443.2695,301.4766 L443.2695,292.1836 L445.918,292.1836 Q447.7109,292.1836 448.4844,292.8164 Q449.2695,293.4492 449.2695,294.8789 Q449.2695,295.8398 448.8008,296.4141 Q448.3438,296.9766 447.4648,297.082 Z M445.0977,293.7305 L445.0977,296.2617 L445.9648,296.2617 Q446.7266,296.2617 447.043,295.9688 Q447.3711,295.6641 447.3711,294.9844 Q447.3711,294.3164 447.043,294.0234 Q446.7266,293.7305 445.9648,293.7305 L445.0977,293.7305 Z "/><text fill="#000000" font-family="sans-serif" font-size="9" font-style="italic" lengthAdjust="spacingAndGlyphs" textLength="54.75" x="461.9375" y="294.854">«Resource»</text><text fill="#000000" font-family="sans-serif" font-size="9" lengthAdjust="spacingAndGlyphs" textLength="54.75" x="461.9375" y="305.3306">Compilation</text><line style="stroke: #A80036; stroke-width: 1.125;" x1="387" x2="567.25" y1="311.2031" y2="311.2031"/><ellipse cx="394.5" cy="320.1299" fill="none" rx="2.25" ry="2.25" style="stroke: #038048; stroke-width: 0.75;"/><text fill="#000000" font-family="sans-serif" font-size="8.25" lengthAdjust="spacingAndGlyphs" textLength="84" x="401.25" y="321.861">compiler : Compiler</text><ellipse cx="394.5" cy="329.7334" fill="#84BE84" rx="2.25" ry="2.25" style="stroke: #038048; stroke-width: 0.75;"/><text fill="#000000" font-family="sans-serif" font-size="8.25" lengthAdjust="spacingAndGlyphs" textLength="150" x="401.25" y="331.4645">sources : Array&lt;Maybe&lt;Source&gt;&gt;</text><ellipse cx="394.5" cy="339.3369" fill="#84BE84" rx="2.25" ry="2.25" style="stroke: #038048; stroke-width: 0.75;"/><text fill="#000000" font-family="sans-serif" font-size="8.25" lengthAdjust="spacingAndGlyphs" textLength="156" x="401.25" y="341.068">contracts : Array&lt;SourceContract&gt;s</text><ellipse cx="394.5" cy="348.9404" fill="none" rx="2.25" ry="2.25" style="stroke: #038048; stroke-width: 0.75;"/><text fill="#000000" font-family="sans-serif" font-size="8.25" lengthAdjust="spacingAndGlyphs" textLength="141" x="401.25" y="350.6715">sourceMaps: Array&lt;SourceMap&gt;</text><line style="stroke: #A80036; stroke-width: 0.75; stroke-dasharray: 1.0,2.0;" x1="387" x2="567.25" y1="355.6172" y2="355.6172"/><rect fill="none" height="4.5" style="stroke: #C82930; stroke-width: 0.75;" width="4.5" x="392.25" y="362.2939"/><path d="M405.7813,360.6582 C404.8325,360.6582 404.0625,361.4282 404.0625,362.377 C404.0625,362.487 404.0852,362.5811 404.1058,362.6781 L402,364.7839 L402,366.1589 L404.0625,366.1589 L404.0625,364.7839 L405.4375,364.7839 L405.4375,364.0964 L405.4808,364.0531 C405.5771,364.0737 405.6713,364.0964 405.7819,364.0964 C406.7307,364.0964 407.5007,363.3264 407.5007,362.3776 C407.5007,361.4289 406.7307,360.6589 405.7819,360.6589 M406.1257,361.3464 C406.5038,361.3464 406.8132,361.6558 406.8132,362.0339 C406.8132,362.412 406.5038,362.7214 406.1257,362.7214 C405.7476,362.7214 405.4382,362.412 405.4382,362.0339 C405.4382,361.6558 405.7476,361.3464 406.1257,361.3464 " fill="#000000" style="stroke: ; stroke-width: 0.0; stroke-dasharray: ;"/><text fill="#000000" font-family="sans-serif" font-size="8.25" lengthAdjust="spacingAndGlyphs" textLength="21.75" x="411.25" y="366.275">id: ID</text><text fill="#000000" font-family="sans-serif" font-size="8.25" font-style="italic" lengthAdjust="spacingAndGlyphs" textLength="33.75" x="436" y="366.275">= hash(</text><text fill="#000000" font-family="sans-serif" font-size="8.25" lengthAdjust="spacingAndGlyphs" textLength="0" x="472.75" y="366.275"/><text fill="#000000" font-family="Andale Mono" font-size="8.25" lengthAdjust="spacingAndGlyphs" textLength="36.75" x="472.75" y="366.275">compiler</text><text fill="#000000" font-family="sans-serif" font-size="8.25" font-style="italic" lengthAdjust="spacingAndGlyphs" textLength="3" x="509.5" y="366.275">,</text><text fill="#000000" font-family="sans-serif" font-size="8.25" lengthAdjust="spacingAndGlyphs" textLength="0" x="515.5" y="366.275"/><text fill="#000000" font-family="Andale Mono" font-size="8.25" lengthAdjust="spacingAndGlyphs" textLength="42" x="515.5" y="366.275">sourceIds</text><text fill="#000000" font-family="sans-serif" font-size="8.25" lengthAdjust="spacingAndGlyphs" textLength="0" x="560.5" y="366.275"/><text fill="#000000" font-family="sans-serif" font-size="8.25" font-style="italic" lengthAdjust="spacingAndGlyphs" textLength="3" x="560.5" y="366.275">)</text><rect fill="none" height="4.5" style="stroke: #C82930; stroke-width: 0.75;" width="4.5" x="392.25" y="371.8975"/><text fill="#000000" font-family="sans-serif" font-size="8.25" lengthAdjust="spacingAndGlyphs" textLength="132.75" x="401.25" y="375.8785">sourceIds: Array&lt;Maybe&lt;ID&gt;&gt;</text><rect fill="none" height="4.5" style="stroke: #C82930; stroke-width: 0.75;" width="4.5" x="392.25" y="381.501"/><text fill="#000000" font-family="sans-serif" font-size="8.25" lengthAdjust="spacingAndGlyphs" textLength="141" x="401.25" y="385.4821">contractIds : Array&lt;Maybe&lt;ID&gt;&gt;</text><!--class SourceContract--><rect fill="#FEFECE" filter="url(#f1prz170dgjt3o)" height="78.8672" id="SourceContract" style="stroke: #A80036; stroke-width: 1.125;" width="97.5" x="516.75" y="159"/><ellipse cx="528" cy="173.2266" fill="#7CFC00" rx="8.25" ry="8.25" style="stroke: #A80036; stroke-width: 0.75;"/><path d="M528.082,169.9102 Q527.3789,169.9102 527.0508,170.6602 Q526.7344,171.4102 526.7344,173.0859 Q526.7344,174.7617 527.0508,175.5117 Q527.3789,176.2617 528.082,176.2617 Q528.7969,176.2617 529.1133,175.5117 Q529.4414,174.7617 529.4414,173.0859 Q529.4414,171.4102 529.1133,170.6602 Q528.7969,169.9102 528.082,169.9102 Z M524.8242,173.0859 Q524.8242,170.707 525.6445,169.4883 Q526.4766,168.2578 528.082,168.2578 Q529.6992,168.2578 530.5195,169.4883 Q531.3516,170.707 531.3516,173.0859 Q531.3516,175.4648 530.5195,176.6836 Q529.6992,177.9023 528.082,177.9023 Q526.4766,177.9023 525.6445,176.6836 Q524.8242,175.4648 524.8242,173.0859 Z "/><text fill="#000000" font-family="sans-serif" font-size="9" font-style="italic" lengthAdjust="spacingAndGlyphs" textLength="66" x="542.25" y="171.104">«Data Object»</text><text fill="#000000" font-family="sans-serif" font-size="9" lengthAdjust="spacingAndGlyphs" textLength="73.5" x="538.5" y="181.5806">SourceContract</text><line style="stroke: #A80036; stroke-width: 1.125;" x1="517.5" x2="613.5" y1="187.4531" y2="187.4531"/><ellipse cx="525" cy="196.3799" fill="none" rx="2.25" ry="2.25" style="stroke: #038048; stroke-width: 0.75;"/><text fill="#000000" font-family="sans-serif" font-size="8.25" lengthAdjust="spacingAndGlyphs" textLength="55.5" x="531.75" y="198.111">name: String</text><ellipse cx="525" cy="205.9834" fill="none" rx="2.25" ry="2.25" style="stroke: #038048; stroke-width: 0.75;"/><text fill="#000000" font-family="sans-serif" font-size="8.25" lengthAdjust="spacingAndGlyphs" textLength="36" x="531.75" y="207.7145">ast: AST</text><ellipse cx="525" cy="215.5869" fill="#84BE84" rx="2.25" ry="2.25" style="stroke: #038048; stroke-width: 0.75;"/><text fill="#000000" font-family="sans-serif" font-size="8.25" lengthAdjust="spacingAndGlyphs" textLength="65.25" x="531.75" y="217.318">source: Source</text><line style="stroke: #A80036; stroke-width: 0.75; stroke-dasharray: 1.0,2.0;" x1="517.5" x2="613.5" y1="222.2637" y2="222.2637"/><rect fill="none" height="4.5" style="stroke: #C82930; stroke-width: 0.75;" width="4.5" x="522.75" y="228.9404"/><text fill="#000000" font-family="sans-serif" font-size="8.25" lengthAdjust="spacingAndGlyphs" textLength="51" x="531.75" y="232.9215">sourceId: ID</text><!--class Compiler--><rect fill="#FEFECE" filter="url(#f1prz170dgjt3o)" height="69.2637" id="Compiler" style="stroke: #A80036; stroke-width: 1.125;" width="90" x="270" y="302.25"/><ellipse cx="282.6" cy="316.4766" fill="#7CFC00" rx="8.25" ry="8.25" style="stroke: #A80036; stroke-width: 0.75;"/><path d="M282.682,313.1602 Q281.9789,313.1602 281.6508,313.9102 Q281.3344,314.6602 281.3344,316.3359 Q281.3344,318.0117 281.6508,318.7617 Q281.9789,319.5117 282.682,319.5117 Q283.3969,319.5117 283.7133,318.7617 Q284.0414,318.0117 284.0414,316.3359 Q284.0414,314.6602 283.7133,313.9102 Q283.3969,313.1602 282.682,313.1602 Z M279.4242,316.3359 Q279.4242,313.957 280.2445,312.7383 Q281.0766,311.5078 282.682,311.5078 Q284.2992,311.5078 285.1195,312.7383 Q285.9516,313.957 285.9516,316.3359 Q285.9516,318.7148 285.1195,319.9336 Q284.2992,321.1523 282.682,321.1523 Q281.0766,321.1523 280.2445,319.9336 Q279.4242,318.7148 279.4242,316.3359 Z "/><text fill="#000000" font-family="sans-serif" font-size="9" font-style="italic" lengthAdjust="spacingAndGlyphs" textLength="66" x="291.9" y="314.354">«Data Object»</text><text fill="#000000" font-family="sans-serif" font-size="9" lengthAdjust="spacingAndGlyphs" textLength="40.5" x="304.65" y="324.8306">Compiler</text><line style="stroke: #A80036; stroke-width: 1.125;" x1="270.75" x2="359.25" y1="330.7031" y2="330.7031"/><ellipse cx="278.25" cy="339.6299" fill="none" rx="2.25" ry="2.25" style="stroke: #038048; stroke-width: 0.75;"/><text fill="#000000" font-family="sans-serif" font-size="8.25" lengthAdjust="spacingAndGlyphs" textLength="58.5" x="285" y="341.361">name : String</text><ellipse cx="278.25" cy="349.2334" fill="none" rx="2.25" ry="2.25" style="stroke: #038048; stroke-width: 0.75;"/><text fill="#000000" font-family="sans-serif" font-size="8.25" lengthAdjust="spacingAndGlyphs" textLength="66" x="285" y="350.9645">version : String</text><ellipse cx="278.25" cy="358.8369" fill="none" rx="2.25" ry="2.25" style="stroke: #038048; stroke-width: 0.75;"/><text fill="#000000" font-family="sans-serif" font-size="8.25" lengthAdjust="spacingAndGlyphs" textLength="70.5" x="285" y="360.568">settings : Object</text><line style="stroke: #A80036; stroke-width: 1.125;" x1="270.75" x2="359.25" y1="365.5137" y2="365.5137"/><!--class LinkReference--><rect fill="#FEFECE" filter="url(#f1prz170dgjt3o)" height="69.2637" id="LinkReference" style="stroke: #A80036; stroke-width: 1.125;" width="136.5" x="4.5" y="163.875"/><ellipse cx="36.675" cy="178.1016" fill="#7CFC00" rx="8.25" ry="8.25" style="stroke: #A80036; stroke-width: 0.75;"/><path d="M36.757,174.7852 Q36.0539,174.7852 35.7258,175.5352 Q35.4094,176.2852 35.4094,177.9609 Q35.4094,179.6367 35.7258,180.3867 Q36.0539,181.1367 36.757,181.1367 Q37.4719,181.1367 37.7883,180.3867 Q38.1164,179.6367 38.1164,177.9609 Q38.1164,176.2852 37.7883,175.5352 Q37.4719,174.7852 36.757,174.7852 Z M33.4992,177.9609 Q33.4992,175.582 34.3195,174.3633 Q35.1516,173.1328 36.757,173.1328 Q38.3742,173.1328 39.1945,174.3633 Q40.0266,175.582 40.0266,177.9609 Q40.0266,180.3398 39.1945,181.5586 Q38.3742,182.7773 36.757,182.7773 Q35.1516,182.7773 34.3195,181.5586 Q33.4992,180.3398 33.4992,177.9609 Z "/><text fill="#000000" font-family="sans-serif" font-size="9" font-style="italic" lengthAdjust="spacingAndGlyphs" textLength="66" x="51.825" y="175.979">«Data Object»</text><text fill="#000000" font-family="sans-serif" font-size="9" lengthAdjust="spacingAndGlyphs" textLength="66" x="51.825" y="186.4556">LinkReference</text><line style="stroke: #A80036; stroke-width: 1.125;" x1="5.25" x2="140.25" y1="192.3281" y2="192.3281"/><ellipse cx="12.75" cy="201.2549" fill="none" rx="2.25" ry="2.25" style="stroke: #038048; stroke-width: 0.75;"/><text fill="#000000" font-family="sans-serif" font-size="8.25" lengthAdjust="spacingAndGlyphs" textLength="117" x="19.5" y="202.986">offsets: Array&lt;ByteOffset&gt;</text><ellipse cx="12.75" cy="210.8584" fill="none" rx="2.25" ry="2.25" style="stroke: #038048; stroke-width: 0.75;"/><text fill="#000000" font-family="sans-serif" font-size="8.25" lengthAdjust="spacingAndGlyphs" textLength="96" x="19.5" y="212.5895">name: Maybe&lt;String&gt;</text><ellipse cx="12.75" cy="220.4619" fill="none" rx="2.25" ry="2.25" style="stroke: #038048; stroke-width: 0.75;"/><text fill="#000000" font-family="sans-serif" font-size="8.25" lengthAdjust="spacingAndGlyphs" textLength="62.25" x="19.5" y="222.193">length: Integer</text><line style="stroke: #A80036; stroke-width: 1.125;" x1="5.25" x2="140.25" y1="227.1387" y2="227.1387"/><!--class SourceMap--><rect fill="#FEFECE" filter="url(#f1prz170dgjt3o)" height="50.0566" id="SourceMap" style="stroke: #A80036; stroke-width: 1.125;" width="87" x="433.5" y="435.75"/><ellipse cx="444.75" cy="449.9766" fill="#7CFC00" rx="8.25" ry="8.25" style="stroke: #A80036; stroke-width: 0.75;"/><path d="M444.832,446.6602 Q444.1289,446.6602 443.8008,447.4102 Q443.4844,448.1602 443.4844,449.8359 Q443.4844,451.5117 443.8008,452.2617 Q444.1289,453.0117 444.832,453.0117 Q445.5469,453.0117 445.8633,452.2617 Q446.1914,451.5117 446.1914,449.8359 Q446.1914,448.1602 445.8633,447.4102 Q445.5469,446.6602 444.832,446.6602 Z M441.5742,449.8359 Q441.5742,447.457 442.3945,446.2383 Q443.2266,445.0078 444.832,445.0078 Q446.4492,445.0078 447.2695,446.2383 Q448.1016,447.457 448.1016,449.8359 Q448.1016,452.2148 447.2695,453.4336 Q446.4492,454.6523 444.832,454.6523 Q443.2266,454.6523 442.3945,453.4336 Q441.5742,452.2148 441.5742,449.8359 Z "/><text fill="#000000" font-family="sans-serif" font-size="9" font-style="italic" lengthAdjust="spacingAndGlyphs" textLength="66" x="453.75" y="447.854">«Data Object»</text><text fill="#000000" font-family="sans-serif" font-size="9" lengthAdjust="spacingAndGlyphs" textLength="52.5" x="460.5" y="458.3306">SourceMap</text><line style="stroke: #A80036; stroke-width: 1.125;" x1="434.25" x2="519.75" y1="464.2031" y2="464.2031"/><ellipse cx="441.75" cy="473.1299" fill="none" rx="2.25" ry="2.25" style="stroke: #038048; stroke-width: 0.75;"/><text fill="#000000" font-family="sans-serif" font-size="8.25" lengthAdjust="spacingAndGlyphs" textLength="49.5" x="448.5" y="474.861">json: String</text><line style="stroke: #A80036; stroke-width: 1.125;" x1="434.25" x2="519.75" y1="479.8066" y2="479.8066"/><!--link Instruction to InstructionMeta--><path d="M282.0893,60 C287.5163,60 292.9433,60 298.3703,60 " fill="none" id="Instruction-InstructionMeta" style="stroke: #A80036; stroke-width: 0.75;"/><polygon fill="#A80036" points="272.3205,60,276.8205,63,281.3205,60,276.8205,57,272.3205,60" style="stroke: #A80036; stroke-width: 0.75;"/><text fill="#000000" font-family="sans-serif" font-size="9.75" lengthAdjust="spacingAndGlyphs" textLength="6" x="286.3717" y="57.1488">1</text><!--link Instruction to Bytecode--><path d="M222.6638,99.6067 C228.0233,115.1333 234.2512,133.1745 239.892,149.5155 " fill="none" id="Instruction-Bytecode" style="stroke: #A80036; stroke-width: 0.75;"/><polygon fill="#A80036" points="243.135,158.9085,244.5019,153.6758,240.1974,150.4014,238.8305,155.6341,243.135,158.9085" style="stroke: #A80036; stroke-width: 0.75;"/><text fill="#000000" font-family="sans-serif" font-size="9.75" lengthAdjust="spacingAndGlyphs" textLength="6" x="217.998" y="114.4511">n</text><!--link SourceContract to Compilation--><path d="M540.3765,237.9818 C533.0685,249.2835 524.8988,261.9188 516.9195,274.26 " fill="none" id="SourceContract-Compilation" style="stroke: #A80036; stroke-width: 0.75;"/><polygon fill="#A80036" points="511.4385,282.738,516.4011,280.5879,516.3251,275.1801,511.3625,277.3302,511.4385,282.738" style="stroke: #A80036; stroke-width: 0.75;"/><text fill="#000000" font-family="sans-serif" font-size="9.75" lengthAdjust="spacingAndGlyphs" textLength="6" x="530.7732" y="252.8261">n</text><!--link Contract to Bytecode--><path d="M413.5665,116.4217 C385.9373,130.7062 356.8208,145.7595 331.263,158.973 " fill="none" id="Contract-Bytecode" style="stroke: #A80036; stroke-width: 0.75;"/><polygon fill="#FFFFFF" points="422.4788,111.8145,417.1036,111.2168,414.4844,115.9486,419.8596,116.5463,422.4788,111.8145" style="stroke: #A80036; stroke-width: 0.75;"/><text fill="#000000" font-family="sans-serif" font-size="9.75" lengthAdjust="spacingAndGlyphs" textLength="18" x="322.0999" y="150.7215">0..2</text><!--link Contract to Compilation--><path d="M509.3527,123.903 C507.2497,135.5618 505.1325,147.639 503.25,159 C496.3815,200.4502 489.4433,247.5075 484.4265,282.6773 " fill="none" id="Contract-Compilation" style="stroke: #A80036; stroke-width: 0.75;"/><polygon fill="#FFFFFF" points="511.1108,114.2332,507.3545,118.1243,509.5016,123.0882,513.2578,119.1971,511.1108,114.2332" style="stroke: #A80036; stroke-width: 0.75;"/><text fill="#000000" font-family="sans-serif" font-size="9.75" lengthAdjust="spacingAndGlyphs" textLength="18" x="466.2513" y="274.3428">0..1</text><!--link Contract to SourceContract--><path d="M541.575,123.6203 C545.46,135.6375 549.4192,147.8842 552.9698,158.8665 " fill="none" id="Contract-SourceContract" style="stroke: #A80036; stroke-width: 0.75; stroke-dasharray: 7.0,7.0;"/><polygon fill="#FFFFFF" points="538.485,114.0615,537.0147,119.2661,541.2535,122.6251,542.7238,117.4205,538.485,114.0615" style="stroke: #A80036; stroke-width: 0.75;"/><text fill="#000000" font-family="sans-serif" font-size="9.75" lengthAdjust="spacingAndGlyphs" textLength="6" x="544.8829" y="150.6007">1</text><!--link LinkReference to Bytecode--><path d="M141.297,198.375 C146.7818,198.375 152.2665,198.375 157.7505,198.375 " fill="none" id="LinkReference-Bytecode" style="stroke: #A80036; stroke-width: 0.75;"/><polygon fill="#A80036" points="167.6228,198.375,163.1228,195.375,158.6228,198.375,163.1228,201.375,167.6228,198.375" style="stroke: #A80036; stroke-width: 0.75;"/><text fill="#000000" font-family="sans-serif" font-size="9.75" lengthAdjust="spacingAndGlyphs" textLength="6" x="146.9984" y="195.7204">n</text><!--link SourceContract to Source--><path d="M606.702,245.256 C623.3438,263.889 642.198,284.9985 657.531,302.166 " fill="none" id="SourceContract-Source" style="stroke: #A80036; stroke-width: 0.75;"/><polygon fill="#FFFFFF" points="600.2048,237.9818,600.965,243.3364,606.2001,244.6941,605.4399,239.3395,600.2048,237.9818" style="stroke: #A80036; stroke-width: 0.75;"/><text fill="#000000" font-family="sans-serif" font-size="9.75" lengthAdjust="spacingAndGlyphs" textLength="6" x="646.6336" y="294.0484">1</text><!--link Compiler to Compilation--><path d="M360.246,336.75 C365.5943,336.75 370.9425,336.75 376.2908,336.75 " fill="none" id="Compiler-Compilation" style="stroke: #A80036; stroke-width: 0.75;"/><polygon fill="#A80036" points="386.2418,336.75,381.7417,333.75,377.2417,336.75,381.7417,339.75,386.2418,336.75" style="stroke: #A80036; stroke-width: 0.75;"/><text fill="#000000" font-family="sans-serif" font-size="9.75" lengthAdjust="spacingAndGlyphs" textLength="6" x="366.126" y="333.8546">1</text><!--link Compilation to Source--><path d="M577.5173,336.75 C582.9368,336.75 588.3563,336.75 593.7758,336.75 " fill="none" id="Compilation-Source" style="stroke: #A80036; stroke-width: 0.75;"/><polygon fill="#FFFFFF" points="567.7628,336.75,572.2628,339.75,576.7628,336.75,572.2628,333.75,567.7628,336.75" style="stroke: #A80036; stroke-width: 0.75;"/><text fill="#000000" font-family="sans-serif" font-size="9.75" lengthAdjust="spacingAndGlyphs" textLength="6" x="581.8588" y="334.2024">n</text><!--link Compilation to SourceMap--><path d="M477,400.866 C477,413.2757 477,425.5733 477,435.7218 " fill="none" id="Compilation-SourceMap" style="stroke: #A80036; stroke-width: 0.75;"/><polygon fill="#A80036" points="477,390.9285,474,395.4285,477,399.9285,480,395.4285,477,390.9285" style="stroke: #A80036; stroke-width: 0.75;"/><text fill="#000000" font-family="sans-serif" font-size="9.75" lengthAdjust="spacingAndGlyphs" textLength="18" x="457.2281" y="427.4914">0..1</text><!--
@startuml
scale 0.75



skinparam defaultMonospacedFontName Andale Mono





    class Contract << (R,darkorange) External Resource >> {
      + name: String
      + abi: ABI
      + {method} createBytecode: Maybe<Bytecode>
      + {method} callBytecode: Maybe<Bytecode>
      + {method} compilation: Maybe<Compilation>
      + {method} sourceContract: Maybe<SourceContract>
      + {method} interface: ContractInterface
    }






    class Bytecode << (R,orchid) Resource >> {
      + bytes: Bytes
      + linkReferences : Set<LinkReference>
      + {method} instructions: Array<Instruction>
      ..
      - {field} <&key> id: ID //= hash(// ""bytes"" //)//
    }

    class Instruction << (O,lawngreen) Data Object >> {
      + programCounter: Integer
      + opcode: String
      + pushData: Bytes
      + meta: InstructionMeta
    }

    class InstructionMeta << (O,lawngreen) Data Object >> {
      + cost: Integer
      + pops: Integer
      + pushes: Integer
      + dynamic: Integer
    }

    Instruction *-right- "1" InstructionMeta
    Instruction "n" - -* Bytecode

    class Source << (R,orchid) Resource >> {
      + contents: String
      + sourcePath: Maybe<String>
      ..
      - {field} <&key> id: ID //= hash(// ""contents""//,// ""sourcePath"" //)//
    }




    class Compilation << (R,orchid) Resource >> {
      + compiler : Compiler
      + {method} sources : Array<Maybe<Source>>
      + {method} contracts : Array<SourceContract>s
      + sourceMaps: Array<SourceMap>
      ..
      - {field} <&key> id: ID //= hash(// ""compiler""//,// ""sourceIds"" //)//
      - sourceIds: Array<Maybe<ID>>
      - contractIds : Array<Maybe<ID>>
    }

  SourceContract "n" - -* Compilation







  class Compiler << (O,lawngreen) Data Object >> {
    + name : String
    + version : String
    + settings : Object
  }




    class LinkReference << (O,lawngreen) Data Object >> {
      + offsets: Array<ByteOffset>
      + name: Maybe<String>
      + length: Integer
    }

    class SourceMap << (O,lawngreen) Data Object >> {
      + json: String
    }


    class SourceContract << (O,lawngreen) Data Object >> {
      + name: String
      + ast: AST
      + {method} source: Source
      ..
      - sourceId: ID
    }










  Contract o- - "0..2" Bytecode


  Contract o- - "0..1" Compilation
  Contract o.. "1" SourceContract



  LinkReference "n" -* Bytecode



  SourceContract o- - "1" Source





  Compilation *-left- "1" Compiler

  Compilation o-right- "n" Source


  Compilation *- - "0..1" SourceMap






@enduml

PlantUML version 1.2018.14(Fri Dec 21 16:33:16 UTC 2018)
(GPL source distribution)
Java Runtime: OpenJDK Runtime Environment
JVM: OpenJDK 64-Bit Server VM
Java Version: 11.0.2+9
Operating System: Linux
OS Version: 4.15.0-1028-gcp
Default Encoding: UTF-8
Language: en
Country: US
--></g></svg>