<?xml version="1.0" encoding="UTF-8" standalone="no"?><svg xmlns="http://www.w3.org/2000/svg" xmlns:xlink="http://www.w3.org/1999/xlink" contentScriptType="application/ecmascript" contentStyleType="text/css" height="796.5px" preserveAspectRatio="none" style="width:588px;height:796px;" version="1.1" viewBox="0 0 588 796" width="588.75px" zoomAndPan="magnify"><defs><filter height="300%" id="f1qlr1tnhz98rr" width="300%" x="-1" y="-1"><feGaussianBlur result="blurOut" stdDeviation="1.5"/><feColorMatrix in="blurOut" result="blurOut2" type="matrix" values="0 0 0 0 0 0 0 0 0 0 0 0 0 0 0 0 0 0 .4 0"/><feOffset dx="3.0" dy="3.0" in="blurOut2" result="blurOut3"/><feBlend in="SourceGraphic" in2="blurOut3" mode="normal"/></filter></defs><g><!--class Contract--><rect fill="#FEFECE" filter="url(#f1qlr1tnhz98rr)" height="88.4707" id="Contract" style="stroke: #A80036; stroke-width: 1.125;" width="197.25" x="157.125" y="6"/><ellipse cx="206.0625" cy="20.2266" fill="#FF8C00" rx="8.25" ry="8.25" style="stroke: #A80036; stroke-width: 0.75;"/><path d="M206.9648,20.332 Q207.2344,20.3906 207.4336,20.6016 Q207.6445,20.8008 207.9375,21.3867 L209.6133,24.7266 L207.5977,24.7266 L206.4727,22.3828 Q206.4258,22.2773 206.3438,22.1016 Q205.8516,21.0586 205.1836,21.0586 L204.5977,21.0586 L204.5977,24.7266 L202.7695,24.7266 L202.7695,15.4336 L205.418,15.4336 Q207.2109,15.4336 207.9844,16.0664 Q208.7695,16.6992 208.7695,18.1289 Q208.7695,19.0898 208.3008,19.6641 Q207.8438,20.2266 206.9648,20.332 Z M204.5977,16.9805 L204.5977,19.5117 L205.4648,19.5117 Q206.2266,19.5117 206.543,19.2188 Q206.8711,18.9141 206.8711,18.2344 Q206.8711,17.5664 206.543,17.2734 Q206.2266,16.9805 205.4648,16.9805 L204.5977,16.9805 Z "/><text fill="#000000" font-family="sans-serif" font-size="9" font-style="italic" lengthAdjust="spacingAndGlyphs" textLength="96" x="219.9375" y="18.104">«External Resource»</text><text fill="#000000" font-family="sans-serif" font-size="9" lengthAdjust="spacingAndGlyphs" textLength="40.5" x="247.6875" y="28.5806">Contract</text><line style="stroke: #A80036; stroke-width: 1.125;" x1="157.875" x2="353.625" y1="34.4531" y2="34.4531"/><ellipse cx="165.375" cy="43.3799" fill="none" rx="2.25" ry="2.25" style="stroke: #038048; stroke-width: 0.75;"/><text fill="#000000" font-family="sans-serif" font-size="8.25" lengthAdjust="spacingAndGlyphs" textLength="55.5" x="172.125" y="45.111">name: String</text><ellipse cx="165.375" cy="52.9834" fill="none" rx="2.25" ry="2.25" style="stroke: #038048; stroke-width: 0.75;"/><text fill="#000000" font-family="sans-serif" font-size="8.25" lengthAdjust="spacingAndGlyphs" textLength="32.25" x="172.125" y="54.7145">abi: ABI</text><line style="stroke: #A80036; stroke-width: 1.125;" x1="157.875" x2="353.625" y1="59.6602" y2="59.6602"/><ellipse cx="165.375" cy="68.5869" fill="#84BE84" rx="2.25" ry="2.25" style="stroke: #038048; stroke-width: 0.75;"/><text fill="#000000" font-family="sans-serif" font-size="8.25" lengthAdjust="spacingAndGlyphs" textLength="145.5" x="172.125" y="70.318">compilation: Maybe&lt;Compilation&gt;</text><ellipse cx="165.375" cy="78.1904" fill="#84BE84" rx="2.25" ry="2.25" style="stroke: #038048; stroke-width: 0.75;"/><text fill="#000000" font-family="sans-serif" font-size="8.25" lengthAdjust="spacingAndGlyphs" textLength="177.75" x="172.125" y="79.9215">sourceContract: Maybe&lt;SourceContract&gt;</text><ellipse cx="165.375" cy="87.7939" fill="#84BE84" rx="2.25" ry="2.25" style="stroke: #038048; stroke-width: 0.75;"/><text fill="#000000" font-family="sans-serif" font-size="8.25" lengthAdjust="spacingAndGlyphs" textLength="117" x="172.125" y="89.525">interface: ContractInterface</text><!--class Bytecode--><rect fill="#FEFECE" filter="url(#f1qlr1tnhz98rr)" height="78.8672" id="Bytecode" style="stroke: #A80036; stroke-width: 1.125;" width="177.75" x="223.125" y="709.5"/><ellipse cx="282.9375" cy="723.7266" fill="#DA70D6" rx="8.25" ry="8.25" style="stroke: #A80036; stroke-width: 0.75;"/><path d="M283.8398,723.832 Q284.1094,723.8906 284.3086,724.1016 Q284.5195,724.3008 284.8125,724.8867 L286.4883,728.2266 L284.4727,728.2266 L283.3477,725.8828 Q283.3008,725.7773 283.2188,725.6016 Q282.7266,724.5586 282.0586,724.5586 L281.4727,724.5586 L281.4727,728.2266 L279.6445,728.2266 L279.6445,718.9336 L282.293,718.9336 Q284.0859,718.9336 284.8594,719.5664 Q285.6445,720.1992 285.6445,721.6289 Q285.6445,722.5898 285.1758,723.1641 Q284.7188,723.7266 283.8398,723.832 Z M281.4727,720.4805 L281.4727,723.0117 L282.3398,723.0117 Q283.1016,723.0117 283.418,722.7188 Q283.7461,722.4141 283.7461,721.7344 Q283.7461,721.0664 283.418,720.7734 Q283.1016,720.4805 282.3398,720.4805 L281.4727,720.4805 Z "/><text fill="#000000" font-family="sans-serif" font-size="9" font-style="italic" lengthAdjust="spacingAndGlyphs" textLength="54.75" x="296.8125" y="721.604">«Resource»</text><text fill="#000000" font-family="sans-serif" font-size="9" lengthAdjust="spacingAndGlyphs" textLength="43.5" x="302.4375" y="732.0806">Bytecode</text><line style="stroke: #A80036; stroke-width: 1.125;" x1="223.875" x2="400.125" y1="737.9531" y2="737.9531"/><ellipse cx="231.375" cy="746.8799" fill="none" rx="2.25" ry="2.25" style="stroke: #038048; stroke-width: 0.75;"/><text fill="#000000" font-family="sans-serif" font-size="8.25" lengthAdjust="spacingAndGlyphs" textLength="53.25" x="238.125" y="748.611">bytes: Bytes</text><ellipse cx="231.375" cy="756.4834" fill="none" rx="2.25" ry="2.25" style="stroke: #038048; stroke-width: 0.75;"/><text fill="#000000" font-family="sans-serif" font-size="8.25" lengthAdjust="spacingAndGlyphs" textLength="158.25" x="238.125" y="758.2145">linkReferences : Set&lt;LinkReference&gt;</text><ellipse cx="231.375" cy="766.0869" fill="#84BE84" rx="2.25" ry="2.25" style="stroke: #038048; stroke-width: 0.75;"/><text fill="#000000" font-family="sans-serif" font-size="8.25" lengthAdjust="spacingAndGlyphs" textLength="137.25" x="238.125" y="767.818">instructions: Array&lt;Instruction&gt;</text><line style="stroke: #A80036; stroke-width: 0.75; stroke-dasharray: 1.0,2.0;" x1="223.875" x2="400.125" y1="772.7637" y2="772.7637"/><rect fill="none" height="4.5" style="stroke: #C82930; stroke-width: 0.75;" width="4.5" x="229.125" y="779.4404"/><path d="M242.6563,777.8047 C241.7075,777.8047 240.9375,778.5747 240.9375,779.5234 C240.9375,779.6334 240.9602,779.7276 240.9808,779.8246 L238.875,781.9304 L238.875,783.3054 L240.9375,783.3054 L240.9375,781.9304 L242.3125,781.9304 L242.3125,781.2429 L242.3558,781.1996 C242.4521,781.2202 242.5463,781.2429 242.6569,781.2429 C243.6057,781.2429 244.3757,780.4729 244.3757,779.5241 C244.3757,778.5754 243.6057,777.8054 242.6569,777.8054 M243.0007,778.4929 C243.3788,778.4929 243.6882,778.8023 243.6882,779.1804 C243.6882,779.5585 243.3788,779.8679 243.0007,779.8679 C242.6226,779.8679 242.3132,779.5585 242.3132,779.1804 C242.3132,778.8023 242.6226,778.4929 243.0007,778.4929 " fill="#000000" style="stroke: ; stroke-width: 0.0; stroke-dasharray: ;"/><text fill="#000000" font-family="sans-serif" font-size="8.25" lengthAdjust="spacingAndGlyphs" textLength="21.75" x="248.125" y="783.4215">id: ID</text><text fill="#000000" font-family="sans-serif" font-size="8.25" font-style="italic" lengthAdjust="spacingAndGlyphs" textLength="33.75" x="272.875" y="783.4215">= hash(</text><text fill="#000000" font-family="sans-serif" font-size="8.25" lengthAdjust="spacingAndGlyphs" textLength="0" x="309.625" y="783.4215"/><text fill="#000000" font-family="Andale Mono" font-size="8.25" lengthAdjust="spacingAndGlyphs" textLength="23.25" x="309.625" y="783.4215">bytes</text><text fill="#000000" font-family="sans-serif" font-size="8.25" lengthAdjust="spacingAndGlyphs" textLength="0" x="335.875" y="783.4215"/><text fill="#000000" font-family="sans-serif" font-size="8.25" font-style="italic" lengthAdjust="spacingAndGlyphs" textLength="3" x="335.875" y="783.4215">)</text><!--class Instruction--><rect fill="#FEFECE" filter="url(#f1qlr1tnhz98rr)" height="78.8672" id="Instruction" style="stroke: #A80036; stroke-width: 1.125;" width="121.5" x="335.25" y="540"/><ellipse cx="362.025" cy="554.2266" fill="#7CFC00" rx="8.25" ry="8.25" style="stroke: #A80036; stroke-width: 0.75;"/><path d="M362.107,550.9102 Q361.4039,550.9102 361.0758,551.6602 Q360.7594,552.4102 360.7594,554.0859 Q360.7594,555.7617 361.0758,556.5117 Q361.4039,557.2617 362.107,557.2617 Q362.8219,557.2617 363.1383,556.5117 Q363.4664,555.7617 363.4664,554.0859 Q363.4664,552.4102 363.1383,551.6602 Q362.8219,550.9102 362.107,550.9102 Z M358.8492,554.0859 Q358.8492,551.707 359.6695,550.4883 Q360.5016,549.2578 362.107,549.2578 Q363.7242,549.2578 364.5445,550.4883 Q365.3766,551.707 365.3766,554.0859 Q365.3766,556.4648 364.5445,557.6836 Q363.7242,558.9023 362.107,558.9023 Q360.5016,558.9023 359.6695,557.6836 Q358.8492,556.4648 358.8492,554.0859 Z "/><text fill="#000000" font-family="sans-serif" font-size="9" font-style="italic" lengthAdjust="spacingAndGlyphs" textLength="66" x="374.475" y="552.104">«Data Object»</text><text fill="#000000" font-family="sans-serif" font-size="9" lengthAdjust="spacingAndGlyphs" textLength="50.25" x="382.35" y="562.5806">Instruction</text><line style="stroke: #A80036; stroke-width: 1.125;" x1="336" x2="456" y1="568.4531" y2="568.4531"/><ellipse cx="343.5" cy="577.3799" fill="none" rx="2.25" ry="2.25" style="stroke: #038048; stroke-width: 0.75;"/><text fill="#000000" font-family="sans-serif" font-size="8.25" lengthAdjust="spacingAndGlyphs" textLength="102" x="350.25" y="579.111">programCounter: String</text><ellipse cx="343.5" cy="586.9834" fill="none" rx="2.25" ry="2.25" style="stroke: #038048; stroke-width: 0.75;"/><text fill="#000000" font-family="sans-serif" font-size="8.25" lengthAdjust="spacingAndGlyphs" textLength="66.75" x="350.25" y="588.7145">opcode: Integer</text><ellipse cx="343.5" cy="596.5869" fill="none" rx="2.25" ry="2.25" style="stroke: #038048; stroke-width: 0.75;"/><text fill="#000000" font-family="sans-serif" font-size="8.25" lengthAdjust="spacingAndGlyphs" textLength="72" x="350.25" y="598.318">pushData: String</text><ellipse cx="343.5" cy="606.1904" fill="none" rx="2.25" ry="2.25" style="stroke: #038048; stroke-width: 0.75;"/><text fill="#000000" font-family="sans-serif" font-size="8.25" lengthAdjust="spacingAndGlyphs" textLength="93" x="350.25" y="607.9215">meta: InstructionMeta</text><line style="stroke: #A80036; stroke-width: 1.125;" x1="336" x2="456" y1="612.8672" y2="612.8672"/><!--class InstructionMeta--><rect fill="#FEFECE" filter="url(#f1qlr1tnhz98rr)" height="78.8672" id="InstructionMeta" style="stroke: #A80036; stroke-width: 1.125;" width="97.5" x="483" y="540"/><ellipse cx="494.25" cy="554.2266" fill="#7CFC00" rx="8.25" ry="8.25" style="stroke: #A80036; stroke-width: 0.75;"/><path d="M494.332,550.9102 Q493.6289,550.9102 493.3008,551.6602 Q492.9844,552.4102 492.9844,554.0859 Q492.9844,555.7617 493.3008,556.5117 Q493.6289,557.2617 494.332,557.2617 Q495.0469,557.2617 495.3633,556.5117 Q495.6914,555.7617 495.6914,554.0859 Q495.6914,552.4102 495.3633,551.6602 Q495.0469,550.9102 494.332,550.9102 Z M491.0742,554.0859 Q491.0742,551.707 491.8945,550.4883 Q492.7266,549.2578 494.332,549.2578 Q495.9492,549.2578 496.7695,550.4883 Q497.6016,551.707 497.6016,554.0859 Q497.6016,556.4648 496.7695,557.6836 Q495.9492,558.9023 494.332,558.9023 Q492.7266,558.9023 491.8945,557.6836 Q491.0742,556.4648 491.0742,554.0859 Z "/><text fill="#000000" font-family="sans-serif" font-size="9" font-style="italic" lengthAdjust="spacingAndGlyphs" textLength="66" x="508.5" y="552.104">«Data Object»</text><text fill="#000000" font-family="sans-serif" font-size="9" lengthAdjust="spacingAndGlyphs" textLength="73.5" x="504.75" y="562.5806">InstructionMeta</text><line style="stroke: #A80036; stroke-width: 1.125;" x1="483.75" x2="579.75" y1="568.4531" y2="568.4531"/><ellipse cx="491.25" cy="577.3799" fill="none" rx="2.25" ry="2.25" style="stroke: #038048; stroke-width: 0.75;"/><text fill="#000000" font-family="sans-serif" font-size="8.25" lengthAdjust="spacingAndGlyphs" textLength="54" x="498" y="579.111">cost: Integer</text><ellipse cx="491.25" cy="586.9834" fill="none" rx="2.25" ry="2.25" style="stroke: #038048; stroke-width: 0.75;"/><text fill="#000000" font-family="sans-serif" font-size="8.25" lengthAdjust="spacingAndGlyphs" textLength="57" x="498" y="588.7145">pops: Integer</text><ellipse cx="491.25" cy="596.5869" fill="none" rx="2.25" ry="2.25" style="stroke: #038048; stroke-width: 0.75;"/><text fill="#000000" font-family="sans-serif" font-size="8.25" lengthAdjust="spacingAndGlyphs" textLength="67.5" x="498" y="598.318">pushes: Integer</text><ellipse cx="491.25" cy="606.1904" fill="none" rx="2.25" ry="2.25" style="stroke: #038048; stroke-width: 0.75;"/><text fill="#000000" font-family="sans-serif" font-size="8.25" lengthAdjust="spacingAndGlyphs" textLength="71.25" x="498" y="607.9215">dynamic: Integer</text><line style="stroke: #A80036; stroke-width: 1.125;" x1="483.75" x2="579.75" y1="612.8672" y2="612.8672"/><!--class Source--><rect fill="#FEFECE" filter="url(#f1qlr1tnhz98rr)" height="69.2637" id="Source" style="stroke: #A80036; stroke-width: 1.125;" width="187.75" x="328.5" y="277.875"/><ellipse cx="393.3125" cy="292.1016" fill="#DA70D6" rx="8.25" ry="8.25" style="stroke: #A80036; stroke-width: 0.75;"/><path d="M394.2148,292.207 Q394.4844,292.2656 394.6836,292.4766 Q394.8945,292.6758 395.1875,293.2617 L396.8633,296.6016 L394.8477,296.6016 L393.7227,294.2578 Q393.6758,294.1523 393.5938,293.9766 Q393.1016,292.9336 392.4336,292.9336 L391.8477,292.9336 L391.8477,296.6016 L390.0195,296.6016 L390.0195,287.3086 L392.668,287.3086 Q394.4609,287.3086 395.2344,287.9414 Q396.0195,288.5742 396.0195,290.0039 Q396.0195,290.9648 395.5508,291.5391 Q395.0938,292.1016 394.2148,292.207 Z M391.8477,288.8555 L391.8477,291.3867 L392.7148,291.3867 Q393.4766,291.3867 393.793,291.0938 Q394.1211,290.7891 394.1211,290.1094 Q394.1211,289.4414 393.793,289.1484 Q393.4766,288.8555 392.7148,288.8555 L391.8477,288.8555 Z "/><text fill="#000000" font-family="sans-serif" font-size="9" font-style="italic" lengthAdjust="spacingAndGlyphs" textLength="54.75" x="407.1875" y="289.979">«Resource»</text><text fill="#000000" font-family="sans-serif" font-size="9" lengthAdjust="spacingAndGlyphs" textLength="33" x="418.0625" y="300.4556">Source</text><line style="stroke: #A80036; stroke-width: 1.125;" x1="329.25" x2="515.5" y1="306.3281" y2="306.3281"/><ellipse cx="336.75" cy="315.2549" fill="none" rx="2.25" ry="2.25" style="stroke: #038048; stroke-width: 0.75;"/><text fill="#000000" font-family="sans-serif" font-size="8.25" lengthAdjust="spacingAndGlyphs" textLength="68.25" x="343.5" y="316.986">contents: String</text><ellipse cx="336.75" cy="324.8584" fill="none" rx="2.25" ry="2.25" style="stroke: #038048; stroke-width: 0.75;"/><text fill="#000000" font-family="sans-serif" font-size="8.25" lengthAdjust="spacingAndGlyphs" textLength="120" x="343.5" y="326.5895">sourcePath: Maybe&lt;String&gt;</text><line style="stroke: #A80036; stroke-width: 0.75; stroke-dasharray: 1.0,2.0;" x1="329.25" x2="515.5" y1="331.5352" y2="331.5352"/><rect fill="none" height="4.5" style="stroke: #C82930; stroke-width: 0.75;" width="4.5" x="334.5" y="338.2119"/><path d="M348.0313,336.5762 C347.0825,336.5762 346.3125,337.3462 346.3125,338.2949 C346.3125,338.4049 346.3352,338.4991 346.3558,338.596 L344.25,340.7019 L344.25,342.0769 L346.3125,342.0769 L346.3125,340.7019 L347.6875,340.7019 L347.6875,340.0144 L347.7308,339.971 C347.8271,339.9917 347.9213,340.0144 348.0319,340.0144 C348.9807,340.0144 349.7507,339.2444 349.7507,338.2956 C349.7507,337.3469 348.9807,336.5769 348.0319,336.5769 M348.3757,337.2644 C348.7538,337.2644 349.0632,337.5737 349.0632,337.9519 C349.0632,338.33 348.7538,338.6394 348.3757,338.6394 C347.9976,338.6394 347.6882,338.33 347.6882,337.9519 C347.6882,337.5737 347.9976,337.2644 348.3757,337.2644 " fill="#000000" style="stroke: ; stroke-width: 0.0; stroke-dasharray: ;"/><text fill="#000000" font-family="sans-serif" font-size="8.25" lengthAdjust="spacingAndGlyphs" textLength="21.75" x="353.5" y="342.193">id: ID</text><text fill="#000000" font-family="sans-serif" font-size="8.25" font-style="italic" lengthAdjust="spacingAndGlyphs" textLength="33.75" x="378.25" y="342.193">= hash(</text><text fill="#000000" font-family="sans-serif" font-size="8.25" lengthAdjust="spacingAndGlyphs" textLength="0" x="415" y="342.193"/><text fill="#000000" font-family="Andale Mono" font-size="8.25" lengthAdjust="spacingAndGlyphs" textLength="36.75" x="415" y="342.193">contents</text><text fill="#000000" font-family="sans-serif" font-size="8.25" font-style="italic" lengthAdjust="spacingAndGlyphs" textLength="3" x="451.75" y="342.193">,</text><text fill="#000000" font-family="sans-serif" font-size="8.25" lengthAdjust="spacingAndGlyphs" textLength="0" x="457.75" y="342.193"/><text fill="#000000" font-family="Andale Mono" font-size="8.25" lengthAdjust="spacingAndGlyphs" textLength="48" x="457.75" y="342.193">sourcePath</text><text fill="#000000" font-family="sans-serif" font-size="8.25" lengthAdjust="spacingAndGlyphs" textLength="0" x="508.75" y="342.193"/><text fill="#000000" font-family="sans-serif" font-size="8.25" font-style="italic" lengthAdjust="spacingAndGlyphs" textLength="3" x="508.75" y="342.193">)</text><!--class Compilation--><rect fill="#FEFECE" filter="url(#f1qlr1tnhz98rr)" height="98.0742" id="Compilation" style="stroke: #A80036; stroke-width: 1.125;" width="181.75" x="120.75" y="263.25"/><ellipse cx="181.0625" cy="277.4766" fill="#DA70D6" rx="8.25" ry="8.25" style="stroke: #A80036; stroke-width: 0.75;"/><path d="M181.9648,277.582 Q182.2344,277.6406 182.4336,277.8516 Q182.6445,278.0508 182.9375,278.6367 L184.6133,281.9766 L182.5977,281.9766 L181.4727,279.6328 Q181.4258,279.5273 181.3438,279.3516 Q180.8516,278.3086 180.1836,278.3086 L179.5977,278.3086 L179.5977,281.9766 L177.7695,281.9766 L177.7695,272.6836 L180.418,272.6836 Q182.2109,272.6836 182.9844,273.3164 Q183.7695,273.9492 183.7695,275.3789 Q183.7695,276.3398 183.3008,276.9141 Q182.8438,277.4766 181.9648,277.582 Z M179.5977,274.2305 L179.5977,276.7617 L180.4648,276.7617 Q181.2266,276.7617 181.543,276.4688 Q181.8711,276.1641 181.8711,275.4844 Q181.8711,274.8164 181.543,274.5234 Q181.2266,274.2305 180.4648,274.2305 L179.5977,274.2305 Z "/><text fill="#000000" font-family="sans-serif" font-size="9" font-style="italic" lengthAdjust="spacingAndGlyphs" textLength="54.75" x="196.4375" y="275.354">«Resource»</text><text fill="#000000" font-family="sans-serif" font-size="9" lengthAdjust="spacingAndGlyphs" textLength="54.75" x="196.4375" y="285.8306">Compilation</text><line style="stroke: #A80036; stroke-width: 1.125;" x1="121.5" x2="301.75" y1="291.7031" y2="291.7031"/><ellipse cx="129" cy="300.6299" fill="none" rx="2.25" ry="2.25" style="stroke: #038048; stroke-width: 0.75;"/><text fill="#000000" font-family="sans-serif" font-size="8.25" lengthAdjust="spacingAndGlyphs" textLength="84" x="135.75" y="302.361">compiler : Compiler</text><ellipse cx="129" cy="310.2334" fill="#84BE84" rx="2.25" ry="2.25" style="stroke: #038048; stroke-width: 0.75;"/><text fill="#000000" font-family="sans-serif" font-size="8.25" lengthAdjust="spacingAndGlyphs" textLength="150" x="135.75" y="311.9645">sources : Array&lt;Maybe&lt;Source&gt;&gt;</text><ellipse cx="129" cy="319.8369" fill="#84BE84" rx="2.25" ry="2.25" style="stroke: #038048; stroke-width: 0.75;"/><text fill="#000000" font-family="sans-serif" font-size="8.25" lengthAdjust="spacingAndGlyphs" textLength="150.75" x="135.75" y="321.568">contracts : Array&lt;SourceContract&gt;</text><line style="stroke: #A80036; stroke-width: 0.75; stroke-dasharray: 1.0,2.0;" x1="121.5" x2="301.75" y1="326.5137" y2="326.5137"/><rect fill="none" height="4.5" style="stroke: #C82930; stroke-width: 0.75;" width="4.5" x="126.75" y="333.1904"/><path d="M140.2813,331.5547 C139.3325,331.5547 138.5625,332.3247 138.5625,333.2734 C138.5625,333.3834 138.5852,333.4776 138.6058,333.5746 L136.5,335.6804 L136.5,337.0554 L138.5625,337.0554 L138.5625,335.6804 L139.9375,335.6804 L139.9375,334.9929 L139.9808,334.9496 C140.0771,334.9702 140.1713,334.9929 140.2819,334.9929 C141.2307,334.9929 142.0007,334.2229 142.0007,333.2741 C142.0007,332.3254 141.2307,331.5554 140.2819,331.5554 M140.6257,332.2429 C141.0038,332.2429 141.3132,332.5523 141.3132,332.9304 C141.3132,333.3085 141.0038,333.6179 140.6257,333.6179 C140.2476,333.6179 139.9382,333.3085 139.9382,332.9304 C139.9382,332.5523 140.2476,332.2429 140.6257,332.2429 " fill="#000000" style="stroke: ; stroke-width: 0.0; stroke-dasharray: ;"/><text fill="#000000" font-family="sans-serif" font-size="8.25" lengthAdjust="spacingAndGlyphs" textLength="21.75" x="145.75" y="337.1715">id: ID</text><text fill="#000000" font-family="sans-serif" font-size="8.25" font-style="italic" lengthAdjust="spacingAndGlyphs" textLength="33.75" x="170.5" y="337.1715">= hash(</text><text fill="#000000" font-family="sans-serif" font-size="8.25" lengthAdjust="spacingAndGlyphs" textLength="0" x="207.25" y="337.1715"/><text fill="#000000" font-family="Andale Mono" font-size="8.25" lengthAdjust="spacingAndGlyphs" textLength="36.75" x="207.25" y="337.1715">compiler</text><text fill="#000000" font-family="sans-serif" font-size="8.25" font-style="italic" lengthAdjust="spacingAndGlyphs" textLength="3" x="244" y="337.1715">,</text><text fill="#000000" font-family="sans-serif" font-size="8.25" lengthAdjust="spacingAndGlyphs" textLength="0" x="250" y="337.1715"/><text fill="#000000" font-family="Andale Mono" font-size="8.25" lengthAdjust="spacingAndGlyphs" textLength="42" x="250" y="337.1715">sourceIds</text><text fill="#000000" font-family="sans-serif" font-size="8.25" lengthAdjust="spacingAndGlyphs" textLength="0" x="295" y="337.1715"/><text fill="#000000" font-family="sans-serif" font-size="8.25" font-style="italic" lengthAdjust="spacingAndGlyphs" textLength="3" x="295" y="337.1715">)</text><rect fill="none" height="4.5" style="stroke: #C82930; stroke-width: 0.75;" width="4.5" x="126.75" y="342.7939"/><text fill="#000000" font-family="sans-serif" font-size="8.25" lengthAdjust="spacingAndGlyphs" textLength="132.75" x="135.75" y="346.775">sourceIds: Array&lt;Maybe&lt;ID&gt;&gt;</text><rect fill="none" height="4.5" style="stroke: #C82930; stroke-width: 0.75;" width="4.5" x="126.75" y="352.3975"/><text fill="#000000" font-family="sans-serif" font-size="8.25" lengthAdjust="spacingAndGlyphs" textLength="141" x="135.75" y="356.3785">contractIds : Array&lt;Maybe&lt;ID&gt;&gt;</text><!--class SourceContract--><rect fill="#FEFECE" filter="url(#f1qlr1tnhz98rr)" height="78.8672" id="SourceContract" style="stroke: #A80036; stroke-width: 1.125;" width="97.5" x="251.25" y="139.5"/><ellipse cx="262.5" cy="153.7266" fill="#7CFC00" rx="8.25" ry="8.25" style="stroke: #A80036; stroke-width: 0.75;"/><path d="M262.582,150.4102 Q261.8789,150.4102 261.5508,151.1602 Q261.2344,151.9102 261.2344,153.5859 Q261.2344,155.2617 261.5508,156.0117 Q261.8789,156.7617 262.582,156.7617 Q263.2969,156.7617 263.6133,156.0117 Q263.9414,155.2617 263.9414,153.5859 Q263.9414,151.9102 263.6133,151.1602 Q263.2969,150.4102 262.582,150.4102 Z M259.3242,153.5859 Q259.3242,151.207 260.1445,149.9883 Q260.9766,148.7578 262.582,148.7578 Q264.1992,148.7578 265.0195,149.9883 Q265.8516,151.207 265.8516,153.5859 Q265.8516,155.9648 265.0195,157.1836 Q264.1992,158.4023 262.582,158.4023 Q260.9766,158.4023 260.1445,157.1836 Q259.3242,155.9648 259.3242,153.5859 Z "/><text fill="#000000" font-family="sans-serif" font-size="9" font-style="italic" lengthAdjust="spacingAndGlyphs" textLength="66" x="276.75" y="151.604">«Data Object»</text><text fill="#000000" font-family="sans-serif" font-size="9" lengthAdjust="spacingAndGlyphs" textLength="73.5" x="273" y="162.0806">SourceContract</text><line style="stroke: #A80036; stroke-width: 1.125;" x1="252" x2="348" y1="167.9531" y2="167.9531"/><ellipse cx="259.5" cy="176.8799" fill="none" rx="2.25" ry="2.25" style="stroke: #038048; stroke-width: 0.75;"/><text fill="#000000" font-family="sans-serif" font-size="8.25" lengthAdjust="spacingAndGlyphs" textLength="55.5" x="266.25" y="178.611">name: String</text><ellipse cx="259.5" cy="186.4834" fill="none" rx="2.25" ry="2.25" style="stroke: #038048; stroke-width: 0.75;"/><text fill="#000000" font-family="sans-serif" font-size="8.25" lengthAdjust="spacingAndGlyphs" textLength="36" x="266.25" y="188.2145">ast: AST</text><ellipse cx="259.5" cy="196.0869" fill="#84BE84" rx="2.25" ry="2.25" style="stroke: #038048; stroke-width: 0.75;"/><text fill="#000000" font-family="sans-serif" font-size="8.25" lengthAdjust="spacingAndGlyphs" textLength="65.25" x="266.25" y="197.818">source: Source</text><line style="stroke: #A80036; stroke-width: 0.75; stroke-dasharray: 1.0,2.0;" x1="252" x2="348" y1="202.7637" y2="202.7637"/><rect fill="none" height="4.5" style="stroke: #C82930; stroke-width: 0.75;" width="4.5" x="257.25" y="209.4404"/><text fill="#000000" font-family="sans-serif" font-size="8.25" lengthAdjust="spacingAndGlyphs" textLength="51" x="266.25" y="213.4215">sourceId: ID</text><!--class Compiler--><rect fill="#FEFECE" filter="url(#f1qlr1tnhz98rr)" height="69.2637" id="Compiler" style="stroke: #A80036; stroke-width: 1.125;" width="90" x="4.5" y="277.875"/><ellipse cx="17.1" cy="292.1016" fill="#7CFC00" rx="8.25" ry="8.25" style="stroke: #A80036; stroke-width: 0.75;"/><path d="M17.182,288.7852 Q16.4789,288.7852 16.1508,289.5352 Q15.8344,290.2852 15.8344,291.9609 Q15.8344,293.6367 16.1508,294.3867 Q16.4789,295.1367 17.182,295.1367 Q17.8969,295.1367 18.2133,294.3867 Q18.5414,293.6367 18.5414,291.9609 Q18.5414,290.2852 18.2133,289.5352 Q17.8969,288.7852 17.182,288.7852 Z M13.9242,291.9609 Q13.9242,289.582 14.7445,288.3633 Q15.5766,287.1328 17.182,287.1328 Q18.7992,287.1328 19.6195,288.3633 Q20.4516,289.582 20.4516,291.9609 Q20.4516,294.3398 19.6195,295.5586 Q18.7992,296.7773 17.182,296.7773 Q15.5766,296.7773 14.7445,295.5586 Q13.9242,294.3398 13.9242,291.9609 Z "/><text fill="#000000" font-family="sans-serif" font-size="9" font-style="italic" lengthAdjust="spacingAndGlyphs" textLength="66" x="26.4" y="289.979">«Data Object»</text><text fill="#000000" font-family="sans-serif" font-size="9" lengthAdjust="spacingAndGlyphs" textLength="40.5" x="39.15" y="300.4556">Compiler</text><line style="stroke: #A80036; stroke-width: 1.125;" x1="5.25" x2="93.75" y1="306.3281" y2="306.3281"/><ellipse cx="12.75" cy="315.2549" fill="none" rx="2.25" ry="2.25" style="stroke: #038048; stroke-width: 0.75;"/><text fill="#000000" font-family="sans-serif" font-size="8.25" lengthAdjust="spacingAndGlyphs" textLength="58.5" x="19.5" y="316.986">name : String</text><ellipse cx="12.75" cy="324.8584" fill="none" rx="2.25" ry="2.25" style="stroke: #038048; stroke-width: 0.75;"/><text fill="#000000" font-family="sans-serif" font-size="8.25" lengthAdjust="spacingAndGlyphs" textLength="66" x="19.5" y="326.5895">version : String</text><ellipse cx="12.75" cy="334.4619" fill="none" rx="2.25" ry="2.25" style="stroke: #038048; stroke-width: 0.75;"/><text fill="#000000" font-family="sans-serif" font-size="8.25" lengthAdjust="spacingAndGlyphs" textLength="70.5" x="19.5" y="336.193">settings : Object</text><line style="stroke: #A80036; stroke-width: 1.125;" x1="5.25" x2="93.75" y1="341.1387" y2="341.1387"/><!--class LinkReference--><rect fill="#FEFECE" filter="url(#f1qlr1tnhz98rr)" height="69.2637" id="LinkReference" style="stroke: #A80036; stroke-width: 1.125;" width="136.5" x="60" y="714.375"/><ellipse cx="92.175" cy="728.6016" fill="#7CFC00" rx="8.25" ry="8.25" style="stroke: #A80036; stroke-width: 0.75;"/><path d="M92.257,725.2852 Q91.5539,725.2852 91.2258,726.0352 Q90.9094,726.7852 90.9094,728.4609 Q90.9094,730.1367 91.2258,730.8867 Q91.5539,731.6367 92.257,731.6367 Q92.9719,731.6367 93.2883,730.8867 Q93.6164,730.1367 93.6164,728.4609 Q93.6164,726.7852 93.2883,726.0352 Q92.9719,725.2852 92.257,725.2852 Z M88.9992,728.4609 Q88.9992,726.082 89.8195,724.8633 Q90.6516,723.6328 92.257,723.6328 Q93.8742,723.6328 94.6945,724.8633 Q95.5266,726.082 95.5266,728.4609 Q95.5266,730.8398 94.6945,732.0586 Q93.8742,733.2773 92.257,733.2773 Q90.6516,733.2773 89.8195,732.0586 Q88.9992,730.8398 88.9992,728.4609 Z "/><text fill="#000000" font-family="sans-serif" font-size="9" font-style="italic" lengthAdjust="spacingAndGlyphs" textLength="66" x="107.325" y="726.479">«Data Object»</text><text fill="#000000" font-family="sans-serif" font-size="9" lengthAdjust="spacingAndGlyphs" textLength="66" x="107.325" y="736.9556">LinkReference</text><line style="stroke: #A80036; stroke-width: 1.125;" x1="60.75" x2="195.75" y1="742.8281" y2="742.8281"/><ellipse cx="68.25" cy="751.7549" fill="none" rx="2.25" ry="2.25" style="stroke: #038048; stroke-width: 0.75;"/><text fill="#000000" font-family="sans-serif" font-size="8.25" lengthAdjust="spacingAndGlyphs" textLength="117" x="75" y="753.486">offsets: Array&lt;ByteOffset&gt;</text><ellipse cx="68.25" cy="761.3584" fill="none" rx="2.25" ry="2.25" style="stroke: #038048; stroke-width: 0.75;"/><text fill="#000000" font-family="sans-serif" font-size="8.25" lengthAdjust="spacingAndGlyphs" textLength="96" x="75" y="763.0895">name: Maybe&lt;String&gt;</text><ellipse cx="68.25" cy="770.9619" fill="none" rx="2.25" ry="2.25" style="stroke: #038048; stroke-width: 0.75;"/><text fill="#000000" font-family="sans-serif" font-size="8.25" lengthAdjust="spacingAndGlyphs" textLength="62.25" x="75" y="772.693">length: Integer</text><line style="stroke: #A80036; stroke-width: 1.125;" x1="60.75" x2="195.75" y1="777.6387" y2="777.6387"/><!--class SourceMap--><rect fill="#FEFECE" filter="url(#f1qlr1tnhz98rr)" height="78.8672" id="SourceMap" style="stroke: #A80036; stroke-width: 1.125;" width="293.25" x="61.125" y="411.375"/><ellipse cx="173.0625" cy="425.6016" fill="#7CFC00" rx="8.25" ry="8.25" style="stroke: #A80036; stroke-width: 0.75;"/><path d="M173.1445,422.2852 Q172.4414,422.2852 172.1133,423.0352 Q171.7969,423.7852 171.7969,425.4609 Q171.7969,427.1367 172.1133,427.8867 Q172.4414,428.6367 173.1445,428.6367 Q173.8594,428.6367 174.1758,427.8867 Q174.5039,427.1367 174.5039,425.4609 Q174.5039,423.7852 174.1758,423.0352 Q173.8594,422.2852 173.1445,422.2852 Z M169.8867,425.4609 Q169.8867,423.082 170.707,421.8633 Q171.5391,420.6328 173.1445,420.6328 Q174.7617,420.6328 175.582,421.8633 Q176.4141,423.082 176.4141,425.4609 Q176.4141,427.8398 175.582,429.0586 Q174.7617,430.2773 173.1445,430.2773 Q171.5391,430.2773 170.707,429.0586 Q169.8867,427.8398 169.8867,425.4609 Z "/><text fill="#000000" font-family="sans-serif" font-size="9" font-style="italic" lengthAdjust="spacingAndGlyphs" textLength="66" x="186.9375" y="423.479">«Data Object»</text><text fill="#000000" font-family="sans-serif" font-size="9" lengthAdjust="spacingAndGlyphs" textLength="52.5" x="193.6875" y="433.9556">SourceMap</text><line style="stroke: #A80036; stroke-width: 1.125;" x1="61.875" x2="353.625" y1="439.8281" y2="439.8281"/><ellipse cx="69.375" cy="448.7549" fill="#84BE84" rx="2.25" ry="2.25" style="stroke: #038048; stroke-width: 0.75;"/><text fill="#000000" font-family="sans-serif" font-size="8.25" lengthAdjust="spacingAndGlyphs" textLength="83.25" x="76.125" y="450.486">bytecode: Bytecode</text><ellipse cx="69.375" cy="458.3584" fill="#84BE84" rx="2.25" ry="2.25" style="stroke: #038048; stroke-width: 0.75;"/><text fill="#000000" font-family="sans-serif" font-size="8.25" lengthAdjust="spacingAndGlyphs" textLength="273.75" x="76.125" y="460.0895">instructionSourceRanges(index: Integer): Maybe&lt;SourceRange&gt;</text><line style="stroke: #A80036; stroke-width: 0.75; stroke-dasharray: 1.0,2.0;" x1="61.875" x2="353.625" y1="465.0352" y2="465.0352"/><rect fill="none" height="4.5" style="stroke: #C82930; stroke-width: 0.75;" width="4.5" x="67.125" y="471.7119"/><text fill="#000000" font-family="sans-serif" font-size="8.25" lengthAdjust="spacingAndGlyphs" textLength="94.5" x="76.125" y="475.693">rawSourceMap: String</text><rect fill="none" height="4.5" style="stroke: #C82930; stroke-width: 0.75;" width="4.5" x="67.125" y="481.3154"/><text fill="#000000" font-family="sans-serif" font-size="8.25" lengthAdjust="spacingAndGlyphs" textLength="60" x="76.125" y="485.2965">bytecodeId: ID</text><!--class SourceRange--><rect fill="#FEFECE" filter="url(#f1qlr1tnhz98rr)" height="88.4707" id="SourceRange" style="stroke: #A80036; stroke-width: 1.125;" width="90.75" x="380.625" y="406.5"/><ellipse cx="393.5625" cy="420.7266" fill="#7CFC00" rx="8.25" ry="8.25" style="stroke: #A80036; stroke-width: 0.75;"/><path d="M393.6445,417.4102 Q392.9414,417.4102 392.6133,418.1602 Q392.2969,418.9102 392.2969,420.5859 Q392.2969,422.2617 392.6133,423.0117 Q392.9414,423.7617 393.6445,423.7617 Q394.3594,423.7617 394.6758,423.0117 Q395.0039,422.2617 395.0039,420.5859 Q395.0039,418.9102 394.6758,418.1602 Q394.3594,417.4102 393.6445,417.4102 Z M390.3867,420.5859 Q390.3867,418.207 391.207,416.9883 Q392.0391,415.7578 393.6445,415.7578 Q395.2617,415.7578 396.082,416.9883 Q396.9141,418.207 396.9141,420.5859 Q396.9141,422.9648 396.082,424.1836 Q395.2617,425.4023 393.6445,425.4023 Q392.0391,425.4023 391.207,424.1836 Q390.3867,422.9648 390.3867,420.5859 Z "/><text fill="#000000" font-family="sans-serif" font-size="9" font-style="italic" lengthAdjust="spacingAndGlyphs" textLength="66" x="402.9375" y="418.604">«Data Object»</text><text fill="#000000" font-family="sans-serif" font-size="9" lengthAdjust="spacingAndGlyphs" textLength="63" x="404.4375" y="429.0806">SourceRange</text><line style="stroke: #A80036; stroke-width: 1.125;" x1="381.375" x2="470.625" y1="434.9531" y2="434.9531"/><ellipse cx="388.875" cy="443.8799" fill="none" rx="2.25" ry="2.25" style="stroke: #038048; stroke-width: 0.75;"/><text fill="#000000" font-family="sans-serif" font-size="8.25" lengthAdjust="spacingAndGlyphs" textLength="71.25" x="395.625" y="445.611">start: ByteOffset</text><ellipse cx="388.875" cy="453.4834" fill="none" rx="2.25" ry="2.25" style="stroke: #038048; stroke-width: 0.75;"/><text fill="#000000" font-family="sans-serif" font-size="8.25" lengthAdjust="spacingAndGlyphs" textLength="60.75" x="395.625" y="455.2145">length: Length</text><ellipse cx="388.875" cy="463.0869" fill="none" rx="2.25" ry="2.25" style="stroke: #038048; stroke-width: 0.75;"/><text fill="#000000" font-family="sans-serif" font-size="8.25" lengthAdjust="spacingAndGlyphs" textLength="54.75" x="395.625" y="464.818">meta: Object</text><ellipse cx="388.875" cy="472.6904" fill="#84BE84" rx="2.25" ry="2.25" style="stroke: #038048; stroke-width: 0.75;"/><text fill="#000000" font-family="sans-serif" font-size="8.25" lengthAdjust="spacingAndGlyphs" textLength="65.25" x="395.625" y="474.4215">source: Source</text><line style="stroke: #A80036; stroke-width: 0.75; stroke-dasharray: 1.0,2.0;" x1="381.375" x2="470.625" y1="479.3672" y2="479.3672"/><rect fill="none" height="4.5" style="stroke: #C82930; stroke-width: 0.75;" width="4.5" x="386.625" y="486.0439"/><text fill="#000000" font-family="sans-serif" font-size="8.25" lengthAdjust="spacingAndGlyphs" textLength="51" x="395.625" y="490.025">sourceId: ID</text><!--link Instruction to InstructionMeta--><path d="M466.932,579.375 C472.2795,579.375 477.6278,579.375 482.9752,579.375 " fill="none" id="Instruction-InstructionMeta" style="stroke: #A80036; stroke-width: 0.75;"/><polygon fill="#A80036" points="456.9818,579.375,461.4818,582.375,465.9818,579.375,461.4818,576.375,456.9818,579.375" style="stroke: #A80036; stroke-width: 0.75;"/><text fill="#000000" font-family="sans-serif" font-size="9.75" lengthAdjust="spacingAndGlyphs" textLength="6" x="470.9888" y="576.5238">1</text><!--link Instruction to Bytecode--><path d="M376.623,618.8783 C364.4873,643.1498 348.7605,674.6048 335.8597,700.4063 " fill="none" id="Instruction-Bytecode" style="stroke: #A80036; stroke-width: 0.75;"/><polygon fill="#A80036" points="331.4243,709.2758,336.1199,706.5922,335.4488,701.2257,330.7532,703.9092,331.4243,709.2758" style="stroke: #A80036; stroke-width: 0.75;"/><text fill="#000000" font-family="sans-serif" font-size="9.75" lengthAdjust="spacingAndGlyphs" textLength="6" x="367.6161" y="633.9913">n</text><!--link SourceContract to Compilation--><path d="M273.9255,218.5155 C266.3033,229.8848 257.8095,242.553 249.6038,254.7922 " fill="none" id="SourceContract-Compilation" style="stroke: #A80036; stroke-width: 0.75;"/><polygon fill="#A80036" points="243.9833,263.1758,248.9809,261.1086,248.9949,255.7003,243.9973,257.7674,243.9833,263.1758" style="stroke: #A80036; stroke-width: 0.75;"/><text fill="#000000" font-family="sans-serif" font-size="9.75" lengthAdjust="spacingAndGlyphs" textLength="6" x="264.2003" y="233.3642">n</text><!--link SourceMap to SourceRange--><path d="M364.143,450.75 C369.5625,450.75 374.9828,450.75 380.4023,450.75 " fill="none" id="SourceMap-SourceRange" style="stroke: #A80036; stroke-width: 0.75;"/><polygon fill="#A80036" points="354.387,450.75,358.887,453.75,363.387,450.75,358.887,447.75,354.387,450.75" style="stroke: #A80036; stroke-width: 0.75;"/><text fill="#000000" font-family="sans-serif" font-size="9.75" lengthAdjust="spacingAndGlyphs" textLength="6" x="368.4794" y="447.8725">n</text><!--link Contract to Compilation--><path d="M245.052,104.1892 C242.8073,115.8112 240.5123,128.0573 238.5,139.5 C231.1928,181.059 223.8323,228.4358 218.646,262.9493 " fill="none" id="Contract-Compilation" style="stroke: #A80036; stroke-width: 0.75;"/><polygon fill="#FFFFFF" points="246.9195,94.6043,243.1144,98.4476,245.1986,103.4382,249.0037,99.5949,246.9195,94.6043" style="stroke: #A80036; stroke-width: 0.75;"/><text fill="#000000" font-family="sans-serif" font-size="9.75" lengthAdjust="spacingAndGlyphs" textLength="18" x="200.4419" y="255.0865">0..1</text><!--link Contract to SourceContract--><path d="M274.2338,104.1015 C278.3535,115.9372 282.6465,128.2703 286.5195,139.398 " fill="none" id="Contract-SourceContract" style="stroke: #A80036; stroke-width: 0.75; stroke-dasharray: 7.0,7.0;"/><polygon fill="#FFFFFF" points="270.978,94.749,269.6244,99.9852,273.9371,103.2486,275.2908,98.0124,270.978,94.749" style="stroke: #A80036; stroke-width: 0.75;"/><text fill="#000000" font-family="sans-serif" font-size="9.75" lengthAdjust="spacingAndGlyphs" textLength="6" x="278.3049" y="131.1364">1</text><!--link LinkReference to Bytecode--><path d="M196.797,748.875 C202.2818,748.875 207.7665,748.875 213.2505,748.875 " fill="none" id="LinkReference-Bytecode" style="stroke: #A80036; stroke-width: 0.75;"/><polygon fill="#A80036" points="223.1228,748.875,218.6228,745.875,214.1228,748.875,218.6228,751.875,223.1228,748.875" style="stroke: #A80036; stroke-width: 0.75;"/><text fill="#000000" font-family="sans-serif" font-size="9.75" lengthAdjust="spacingAndGlyphs" textLength="6" x="202.4984" y="746.2204">n</text><!--link SourceContract to Source--><path d="M342.681,225.7103 C358.5233,242.8155 376.188,261.8895 390.8423,277.7123 " fill="none" id="SourceContract-Source" style="stroke: #A80036; stroke-width: 0.75;"/><polygon fill="#FFFFFF" points="336.018,218.5155,336.8747,223.8555,342.1335,225.1186,341.2768,219.7786,336.018,218.5155" style="stroke: #A80036; stroke-width: 0.75;"/><text fill="#000000" font-family="sans-serif" font-size="9.75" lengthAdjust="spacingAndGlyphs" textLength="6" x="379.7703" y="269.5831">1</text><!--link Compiler to Compilation--><path d="M94.746,312.375 C100.0943,312.375 105.4425,312.375 110.7908,312.375 " fill="none" id="Compiler-Compilation" style="stroke: #A80036; stroke-width: 0.75;"/><polygon fill="#A80036" points="120.7418,312.375,116.2418,309.375,111.7418,312.375,116.2418,315.375,120.7418,312.375" style="stroke: #A80036; stroke-width: 0.75;"/><text fill="#000000" font-family="sans-serif" font-size="9.75" lengthAdjust="spacingAndGlyphs" textLength="6" x="100.626" y="309.4796">1</text><!--link Compilation to Source--><path d="M312.0173,312.375 C317.4368,312.375 322.8563,312.375 328.2758,312.375 " fill="none" id="Compilation-Source" style="stroke: #A80036; stroke-width: 0.75;"/><polygon fill="#FFFFFF" points="302.2628,312.375,306.7628,315.375,311.2628,312.375,306.7628,309.375,302.2628,312.375" style="stroke: #A80036; stroke-width: 0.75;"/><text fill="#000000" font-family="sans-serif" font-size="9.75" lengthAdjust="spacingAndGlyphs" textLength="6" x="316.3588" y="309.8274">n</text><!--link Compilation to SourceMap--><path d="M209.901,371.4833 C209.5328,384.9353 209.1495,398.919 208.8105,411.2933 " fill="none" id="Compilation-SourceMap" style="stroke: #A80036; stroke-width: 0.75;"/><polygon fill="#A80036" points="210.1725,361.575,207.0505,365.9912,209.9262,370.5716,213.0482,366.1554,210.1725,361.575" style="stroke: #A80036; stroke-width: 0.75;"/><text fill="#000000" font-family="sans-serif" font-size="9.75" lengthAdjust="spacingAndGlyphs" textLength="6" x="202.5499" y="403.0344">n</text><!--link SourceMap to Bytecode--><path d="M224.6768,499.6627 C245.2163,558.1035 279.4403,655.482 298.368,709.3373 " fill="none" id="SourceMap-Bytecode" style="stroke: #A80036; stroke-width: 0.75;"/><polygon fill="#FFFFFF" points="221.379,490.2787,220.0407,495.5189,224.3629,498.7697,225.7013,493.5296,221.379,490.2787" style="stroke: #A80036; stroke-width: 0.75;"/><text fill="#000000" font-family="sans-serif" font-size="9.75" lengthAdjust="spacingAndGlyphs" textLength="6" x="290.1331" y="701.0675">1</text><!--link SourceRange to Instruction--><path d="M413.3858,504.9532 C410.6183,516.681 407.739,528.8805 405.1387,539.898 " fill="none" id="SourceRange-Instruction" style="stroke: #A80036; stroke-width: 0.75;"/><polygon fill="#FFFFFF" points="415.6755,495.249,411.7222,498.9397,413.6085,504.0084,417.5618,500.3177,415.6755,495.249" style="stroke: #A80036; stroke-width: 0.75;"/><text fill="#000000" font-family="sans-serif" font-size="9.75" lengthAdjust="spacingAndGlyphs" textLength="6" x="399.9636" y="531.6364">1</text><!--link Source to SourceRange--><path d="M423.177,346.959 C423.5865,361.911 424.0785,379.854 424.5353,396.546 " fill="none" id="Source-SourceRange" style="stroke: #A80036; stroke-width: 0.75;"/><polygon fill="#FFFFFF" points="424.8075,406.467,427.6827,401.8863,424.5603,397.4704,421.685,402.0511,424.8075,406.467" style="stroke: #A80036; stroke-width: 0.75;"/><text fill="#000000" font-family="sans-serif" font-size="9.75" lengthAdjust="spacingAndGlyphs" textLength="6" x="416.8404" y="362.1536">1</text><!--
@startuml
scale 0.75



skinparam defaultMonospacedFontName Andale Mono



    class Contract << (R,darkorange) External Resource >> {
      + name: String
      + abi: ABI
      + {method} compilation: Maybe<Compilation>
      + {method} sourceContract: Maybe<SourceContract>
      + {method} interface: ContractInterface
    }






    class Bytecode << (R,orchid) Resource >> {
      + bytes: Bytes
      + linkReferences : Set<LinkReference>
      + {method} instructions: Array<Instruction>
      ..
      - {field} <&key> id: ID //= hash(// ""bytes"" //)//
    }

    class Instruction << (O,lawngreen) Data Object >> {
      + programCounter: String
      + opcode: Integer
      + pushData: String
      + meta: InstructionMeta
    }

    class InstructionMeta << (O,lawngreen) Data Object >> {
      + cost: Integer
      + pops: Integer
      + pushes: Integer
      + dynamic: Integer
    }

    Instruction *-right- "1" InstructionMeta
    Instruction "n" - -* Bytecode

    class Source << (R,orchid) Resource >> {
      + contents: String
      + sourcePath: Maybe<String>
      ..
      - {field} <&key> id: ID //= hash(// ""contents""//,// ""sourcePath"" //)//
    }




    class Compilation << (R,orchid) Resource >> {
      + compiler : Compiler
      + {method} sources : Array<Maybe<Source>>
      + {method} contracts : Array<SourceContract>
      ..
      - {field} <&key> id: ID //= hash(// ""compiler""//,// ""sourceIds"" //)//
      - sourceIds: Array<Maybe<ID>>
      - contractIds : Array<Maybe<ID>>
    }

  SourceContract "n" - -* Compilation







  class Compiler << (O,lawngreen) Data Object >> {
    + name : String
    + version : String
    + settings : Object
  }




    class LinkReference << (O,lawngreen) Data Object >> {
      + offsets: Array<ByteOffset>
      + name: Maybe<String>
      + length: Integer
    }

    class SourceMap << (O,lawngreen) Data Object >> {
      + {method} bytecode: Bytecode
      + instructionSourceRanges(index: Integer): Maybe<SourceRange>
      ..
      - rawSourceMap: String
      - bytecodeId: ID
    }

    class SourceRange << (O,lawngreen) Data Object >> {
      + start: ByteOffset
      + length: Length
      + meta: Object
      + {method} source: Source
      ..
      - sourceId: ID
    }

    SourceMap *-right- "n" SourceRange


    class SourceContract << (O,lawngreen) Data Object >> {
      + name: String
      + ast: AST
      + {method} source: Source
      ..
      - sourceId: ID
    }








  Contract o- - "0..1" Compilation
  Contract o.. "1" SourceContract



  LinkReference "n" -* Bytecode



  SourceContract o- - "1" Source





  Compilation *-left- "1" Compiler

  Compilation o-right- "n" Source


  Compilation *- - "n" SourceMap



  SourceMap o- - - - "1" Bytecode
  SourceRange o- - "1" Instruction

  Source "1" - -o SourceRange


@enduml

PlantUML version 1.2018.14(Fri Dec 21 16:33:16 UTC 2018)
(GPL source distribution)
Java Runtime: OpenJDK Runtime Environment
JVM: OpenJDK 64-Bit Server VM
Java Version: 11.0.2+9
Operating System: Linux
OS Version: 4.15.0-1028-gcp
Default Encoding: UTF-8
Language: en
Country: US
--></g></svg>